<svg  xmlns="http://www.w3.org/2000/svg" xmlns:xlink="http://www.w3.org/1999/xlink" width="16px" height="15px">
    <path d="M15.321,5.723 C15.054,6.868 14.786,8.014 14.517,9.159 C14.433,9.516 14.268,9.654 13.930,9.654 C12.572,9.655 11.213,9.654 9.854,9.654 C8.485,9.654 7.116,9.654 5.747,9.654 C5.532,9.654 5.530,9.656 5.579,9.874 C5.669,10.269 5.769,10.662 5.852,11.058 C5.882,11.201 5.943,11.240 6.075,11.240 C8.527,11.236 10.979,11.237 13.431,11.237 C13.478,11.237 13.525,11.237 13.571,11.237 C13.904,11.240 14.136,11.469 14.133,11.791 C14.130,12.104 13.897,12.331 13.574,12.331 C11.934,12.332 10.295,12.331 8.655,12.332 C7.640,12.332 6.624,12.332 5.609,12.332 C5.206,12.332 5.059,12.211 4.961,11.790 C4.221,8.612 3.482,5.434 2.743,2.255 C2.667,1.926 2.588,1.596 2.519,1.265 C2.492,1.135 2.441,1.083 2.309,1.085 C1.705,1.093 1.101,1.091 0.497,1.087 C0.233,1.086 0.021,0.878 -0.005,0.611 C-0.033,0.327 0.118,0.081 0.366,0.013 C0.426,-0.004 0.490,-0.005 0.552,-0.005 C1.307,-0.006 2.061,-0.006 2.816,-0.006 C3.144,-0.006 3.310,0.129 3.389,0.463 C3.506,0.954 3.625,1.445 3.730,1.939 C3.763,2.095 3.826,2.139 3.973,2.139 C7.789,2.135 11.605,2.136 15.421,2.135 C15.547,2.135 15.670,2.141 15.780,2.221 C15.972,2.361 16.051,2.586 15.989,2.853 C15.768,3.810 15.544,4.767 15.321,5.723 ZM6.385,12.843 C6.947,12.845 7.389,13.326 7.387,13.932 C7.385,14.535 6.940,15.008 6.374,15.008 C5.808,15.009 5.366,14.535 5.366,13.928 C5.366,13.313 5.808,12.842 6.385,12.843 ZM12.504,12.844 C13.067,12.844 13.512,13.323 13.511,13.927 C13.510,14.531 13.064,15.007 12.501,15.009 C11.933,15.010 11.489,14.537 11.490,13.933 C11.490,13.312 11.927,12.844 12.504,12.844 Z"/>
</svg>