<svg  xmlns="http://www.w3.org/2000/svg" xmlns:xlink="http://www.w3.org/1999/xlink" width="20px" height="27px">
<path  d="M19.927,1.507 C19.762,1.993 19.357,2.277 18.806,2.278 C17.483,2.281 16.159,2.279 14.836,2.280 C14.470,2.280 14.469,2.280 14.469,2.662 C14.469,6.138 14.469,9.615 14.469,13.091 C14.470,13.468 14.470,13.469 14.839,13.470 C15.064,13.471 15.289,13.469 15.514,13.470 C16.163,13.471 16.657,13.944 16.664,14.572 C16.672,15.244 16.205,15.757 15.543,15.766 C14.583,15.778 13.623,15.768 12.663,15.769 C12.247,15.769 12.246,15.769 12.246,16.179 C12.245,16.697 12.239,17.215 12.249,17.733 C12.254,17.946 12.188,18.030 11.969,18.029 C10.663,18.023 9.357,18.025 8.051,18.032 C7.827,18.033 7.746,17.951 7.750,17.723 C7.761,17.161 7.746,16.599 7.757,16.037 C7.761,15.828 7.689,15.764 7.487,15.765 C6.475,15.772 5.463,15.773 4.451,15.765 C3.934,15.761 3.520,15.429 3.377,14.932 C3.233,14.434 3.414,13.939 3.848,13.643 C4.025,13.523 4.220,13.466 4.435,13.469 C4.712,13.474 4.989,13.457 5.265,13.473 C5.477,13.485 5.530,13.398 5.529,13.197 C5.525,11.529 5.530,9.861 5.530,8.192 C5.530,6.332 5.522,4.470 5.533,2.609 C5.534,2.331 5.443,2.272 5.190,2.274 C3.910,2.285 2.629,2.257 1.349,2.288 C0.562,2.307 0.151,1.851 0.041,1.406 C-0.105,0.813 0.145,0.352 0.811,0.000 C6.937,0.000 13.063,0.000 19.189,0.000 C19.883,0.356 20.140,0.881 19.927,1.507 ZM8.029,20.211 C8.694,20.219 9.360,20.214 10.026,20.214 C10.674,20.214 11.323,20.220 11.971,20.211 C12.169,20.208 12.251,20.271 12.248,20.480 C12.240,21.060 12.239,21.639 12.251,22.218 C12.256,22.453 12.162,22.519 11.944,22.518 C10.638,22.511 9.332,22.511 8.027,22.515 C7.829,22.516 7.748,22.452 7.751,22.243 C7.760,21.655 7.759,21.067 7.749,20.479 C7.746,20.267 7.833,20.208 8.029,20.211 ZM8.028,24.696 C8.685,24.703 9.342,24.699 9.999,24.699 C9.999,24.698 9.999,24.697 9.999,24.697 C10.648,24.697 11.297,24.703 11.945,24.693 C12.165,24.690 12.262,24.760 12.249,24.995 C12.234,25.284 12.251,25.574 12.244,25.864 C12.227,26.514 11.755,26.990 11.115,26.994 C10.372,27.000 9.628,26.999 8.884,26.995 C8.260,26.991 7.783,26.524 7.757,25.891 C7.745,25.584 7.762,25.276 7.752,24.969 C7.744,24.761 7.830,24.693 8.028,24.696 Z"/>
</svg>