<svg  xmlns="http://www.w3.org/2000/svg" xmlns:xlink="http://www.w3.org/1999/xlink" width="33px" height="25px">
<path d="M32.557,7.719 C28.682,7.712 24.807,7.711 20.933,7.720 C20.600,7.721 20.487,7.606 20.500,7.285 C20.519,6.815 20.509,6.344 20.503,5.873 C20.490,4.755 19.888,4.095 18.754,4.068 C17.245,4.033 15.732,4.032 14.223,4.071 C13.105,4.101 12.517,4.755 12.505,5.858 C12.500,6.315 12.480,6.773 12.509,7.228 C12.533,7.615 12.387,7.721 12.007,7.720 C9.265,7.706 6.523,7.713 3.781,7.714 C2.676,7.714 1.571,7.704 0.466,7.719 C0.121,7.724 -0.005,7.608 0.011,7.265 C0.061,6.202 -0.092,5.131 0.100,4.075 C0.525,1.733 2.572,0.020 4.975,0.011 C8.822,-0.002 12.669,0.008 16.516,0.008 C16.516,0.008 16.516,0.009 16.516,0.009 C20.335,0.009 24.154,0.038 27.973,-0.000 C30.806,-0.029 33.052,2.446 32.993,4.965 C32.975,5.740 32.980,6.516 32.999,7.291 C33.007,7.620 32.879,7.720 32.557,7.719 ZM19.219,11.470 C19.218,12.842 18.558,13.690 17.191,13.959 C16.019,14.189 14.963,13.956 14.189,12.962 C13.926,12.624 13.788,12.236 13.788,11.806 C13.788,9.813 13.791,7.821 13.784,5.829 C13.782,5.478 13.920,5.324 14.279,5.326 C15.761,5.333 17.243,5.333 18.725,5.325 C19.081,5.324 19.227,5.474 19.224,5.825 C19.215,6.849 19.221,7.873 19.221,8.897 C19.221,8.897 19.220,8.897 19.220,8.897 C19.220,9.755 19.220,10.613 19.219,11.470 ZM17.479,8.350 C17.461,7.783 17.079,7.397 16.535,7.389 C15.981,7.382 15.546,7.782 15.529,8.340 C15.515,8.795 15.518,9.251 15.532,9.707 C15.550,10.284 15.953,10.646 16.542,10.636 C17.090,10.627 17.464,10.246 17.479,9.675 C17.485,9.455 17.480,9.234 17.481,9.013 C17.481,8.792 17.487,8.571 17.479,8.350 ZM0.615,8.985 C4.393,8.984 8.171,8.984 11.949,8.985 C12.503,8.985 12.495,8.987 12.505,9.537 C12.520,10.381 12.435,11.228 12.554,12.068 C12.785,13.700 14.031,14.960 15.684,15.205 C17.095,15.414 18.380,15.142 19.441,14.118 C20.178,13.407 20.490,12.534 20.501,11.538 C20.508,10.831 20.515,10.125 20.500,9.419 C20.493,9.106 20.587,8.978 20.927,8.979 C24.817,8.988 28.707,8.990 32.597,8.979 C33.011,8.977 32.993,9.210 32.992,9.487 C32.990,12.713 32.992,15.940 32.992,19.166 C32.992,20.482 32.993,21.797 32.991,23.113 C32.989,24.279 32.268,24.995 31.075,24.996 C26.639,25.000 22.203,24.998 17.768,24.998 C17.348,24.998 16.928,24.998 16.508,24.998 C11.681,24.998 6.853,24.998 2.026,24.998 C0.723,24.998 0.014,24.290 0.015,22.995 C0.016,18.522 0.015,14.049 0.016,9.576 C0.016,8.987 0.018,8.985 0.615,8.985 ZM25.801,22.941 C27.228,22.947 28.654,22.949 30.081,22.942 C30.644,22.940 30.907,22.680 30.914,22.128 C30.924,21.422 30.916,20.716 30.916,20.010 C30.916,19.332 30.919,18.654 30.914,17.975 C30.913,17.825 30.900,17.671 30.866,17.524 C30.800,17.231 30.591,17.063 30.302,17.049 C30.011,17.036 29.807,17.203 29.693,17.474 C29.626,17.634 29.633,17.799 29.633,17.965 C29.632,18.975 29.633,19.986 29.632,20.996 C29.631,21.671 29.629,21.672 28.953,21.674 C27.890,21.675 26.827,21.669 25.764,21.677 C25.224,21.682 24.920,21.990 25.003,22.434 C25.085,22.874 25.434,22.940 25.801,22.941 ZM2.091,22.059 C2.095,22.696 2.340,22.941 2.981,22.944 C3.974,22.949 4.967,22.946 5.960,22.945 C6.436,22.945 6.912,22.956 7.387,22.935 C7.780,22.919 8.063,22.650 8.072,22.333 C8.082,21.998 7.792,21.717 7.388,21.680 C7.249,21.668 7.108,21.675 6.968,21.675 C5.919,21.674 4.870,21.662 3.821,21.680 C3.469,21.686 3.364,21.561 3.369,21.223 C3.384,20.102 3.378,18.981 3.372,17.859 C3.369,17.356 3.115,17.044 2.728,17.040 C2.352,17.036 2.098,17.358 2.094,17.865 C2.088,18.557 2.092,19.249 2.092,19.941 C2.091,19.941 2.091,19.941 2.090,19.941 C2.090,20.647 2.086,21.353 2.091,22.059 Z"/>
</svg>