<svg  xmlns="http://www.w3.org/2000/svg" xmlns:xlink="http://www.w3.org/1999/xlink" width="34px" height="32px">
<path d="M33.797,27.104 C33.677,27.286 33.511,27.410 33.328,27.521 C29.569,29.803 25.515,31.232 21.140,31.751 C19.939,31.893 18.736,31.968 17.730,31.999 C11.825,31.938 6.520,30.476 1.645,27.501 C1.025,27.122 0.820,26.418 1.151,25.822 C1.479,25.232 2.191,25.028 2.840,25.404 C4.135,26.155 5.447,26.866 6.835,27.434 C9.495,28.521 12.250,29.209 15.120,29.440 C21.170,29.927 26.793,28.614 31.996,25.497 C32.646,25.107 33.257,25.143 33.688,25.595 C34.059,25.984 34.105,26.636 33.797,27.104 ZM30.625,17.590 C30.580,17.590 30.535,17.590 30.489,17.590 C29.467,17.588 29.446,17.543 29.565,16.539 C29.691,15.472 29.400,14.494 28.738,13.658 C28.444,13.288 28.205,12.901 27.987,12.487 C27.742,12.019 27.430,11.591 27.062,11.207 C26.993,11.134 26.874,11.071 26.913,10.950 C26.955,10.820 27.089,10.860 27.188,10.853 C30.250,10.638 32.774,13.643 32.039,16.629 C31.813,17.549 31.746,17.594 30.625,17.590 ZM27.348,17.904 C27.145,18.233 27.154,18.485 27.295,18.818 C28.211,20.986 29.101,23.165 30.022,25.331 C30.186,25.716 30.105,25.905 29.734,26.054 C29.342,26.211 28.954,26.386 28.584,26.588 C28.245,26.774 28.077,26.658 27.908,26.352 C26.899,24.530 25.876,22.716 24.859,20.898 C24.513,20.279 24.513,20.269 23.833,20.425 C23.444,20.514 23.053,20.512 22.661,20.512 C18.745,20.512 14.829,20.517 10.913,20.501 C10.507,20.499 10.287,20.635 10.096,20.983 C9.105,22.780 8.085,24.561 7.093,26.358 C6.919,26.673 6.758,26.773 6.423,26.590 C6.026,26.374 5.611,26.186 5.194,26.011 C4.865,25.873 4.835,25.689 4.967,25.375 C6.119,22.635 7.258,19.890 8.401,17.146 C8.546,16.797 8.675,16.442 8.834,16.100 C9.673,14.289 9.164,12.667 8.132,11.123 C8.026,10.965 7.864,10.835 7.705,10.724 C7.163,10.347 6.958,10.371 6.495,10.831 C6.089,11.236 5.685,11.644 5.276,12.047 C4.023,13.283 2.388,13.396 1.111,12.337 C-0.120,11.317 -0.363,9.495 0.565,8.118 C1.687,6.452 2.815,4.791 3.957,3.140 C4.169,2.832 4.209,2.582 3.960,2.292 C3.853,2.167 3.771,2.019 3.687,1.876 C3.426,1.437 3.561,1.148 4.056,1.076 C8.495,0.435 12.710,3.874 12.952,8.327 C12.973,8.700 12.956,9.087 13.136,9.434 C13.252,9.657 13.444,9.843 13.677,9.890 C14.090,9.975 14.128,10.224 14.133,10.577 C14.150,11.616 14.044,12.658 14.207,13.694 C14.423,15.075 15.775,16.678 17.976,16.483 C19.538,16.344 20.925,14.897 20.976,13.250 C20.989,12.813 20.978,12.375 20.978,11.938 C20.982,11.938 20.987,11.938 20.991,11.938 C20.991,11.425 20.991,10.911 20.991,10.398 C20.991,10.184 21.039,9.997 21.301,9.985 C23.037,9.902 24.705,10.027 26.145,11.195 C28.101,12.781 28.671,15.763 27.348,17.904 ZM4.898,5.902 C4.274,5.901 3.865,6.300 3.865,6.910 C3.865,7.469 4.360,7.958 4.909,7.941 C5.443,7.925 5.907,7.438 5.903,6.899 C5.898,6.325 5.472,5.903 4.898,5.902 ZM17.575,15.887 C16.047,15.885 14.822,14.701 14.793,13.194 C14.776,12.276 14.772,11.358 14.749,10.441 C14.740,10.085 14.903,9.961 15.242,9.965 C16.027,9.975 16.812,9.968 17.598,9.968 C17.598,9.970 17.598,9.972 17.598,9.974 C18.368,9.974 19.138,9.981 19.908,9.970 C20.247,9.965 20.398,10.080 20.391,10.443 C20.372,11.362 20.397,12.282 20.379,13.201 C20.349,14.694 19.091,15.889 17.575,15.887 Z"/>
</svg>