<svg  xmlns="http://www.w3.org/2000/svg" xmlns:xlink="http://www.w3.org/1999/xlink" width="31px" height="34px">
<path d="M30.973,3.931 C30.875,4.234 30.704,4.502 30.548,4.775 C29.613,6.409 28.675,8.041 27.741,9.676 C27.432,10.217 27.132,10.371 26.529,10.238 C25.903,10.101 25.271,9.993 24.650,9.825 C23.867,9.614 23.115,9.715 22.451,10.224 C22.416,10.251 22.381,10.276 22.344,10.300 C21.924,10.569 21.876,10.558 21.617,10.130 C21.319,9.638 21.322,9.644 20.836,9.910 C18.202,11.355 15.566,12.798 12.929,14.239 C12.513,14.467 12.426,14.443 12.225,14.020 C11.687,12.891 10.944,11.927 9.965,11.146 C9.675,10.916 9.697,10.717 10.044,10.522 C11.335,9.797 12.627,9.074 13.926,8.364 C15.560,7.470 17.198,6.586 18.840,5.708 C19.076,5.582 19.110,5.456 19.001,5.217 C18.718,4.603 18.728,4.599 19.317,4.280 C19.833,4.001 20.199,3.579 20.465,3.064 C20.848,2.326 21.054,1.521 21.334,0.745 C21.532,0.193 21.828,-0.023 22.409,0.002 C24.223,0.100 26.037,0.199 27.852,0.294 C28.134,0.309 28.418,0.307 28.701,0.314 C28.766,0.316 28.832,0.316 28.897,0.323 C29.290,0.371 29.577,0.624 29.572,0.915 C29.566,1.201 29.259,1.449 28.852,1.435 C27.884,1.404 26.917,1.349 25.951,1.300 C25.299,1.268 24.648,1.228 23.996,1.192 C23.649,1.172 23.302,1.146 22.954,1.134 C22.609,1.123 22.385,1.279 22.268,1.616 C21.960,2.500 21.641,3.379 21.317,4.256 C21.180,4.625 21.192,4.964 21.375,5.322 C21.820,6.194 22.281,7.057 22.773,7.904 C22.955,8.218 23.199,8.407 23.557,8.480 C24.505,8.675 25.450,8.887 26.397,9.089 C26.749,9.164 26.944,8.951 27.098,8.681 C27.943,7.195 28.786,5.710 29.629,4.224 C29.742,4.025 29.853,3.826 29.958,3.623 C30.093,3.360 30.333,3.264 30.600,3.236 C30.862,3.209 31.075,3.615 30.973,3.931 ZM5.477,22.482 C2.408,22.472 -0.020,20.010 0.001,16.893 C0.020,14.035 2.344,11.501 5.469,11.487 C8.664,11.473 11.032,14.087 10.957,17.011 C10.998,19.933 8.584,22.492 5.477,22.482 ZM5.529,14.329 C4.034,14.282 2.861,15.445 2.828,16.958 C2.797,18.398 3.940,19.598 5.380,19.637 C6.830,19.677 8.055,18.553 8.120,17.181 C8.196,15.571 6.991,14.374 5.529,14.329 ZM8.962,23.502 C10.073,22.913 10.963,22.084 11.668,21.049 C11.888,20.726 12.035,20.711 12.316,20.991 C13.956,22.629 15.595,24.268 17.231,25.910 C18.130,26.812 19.019,27.723 19.917,28.625 C20.229,28.937 20.630,29.054 21.055,29.016 C21.775,28.952 22.491,29.013 23.208,29.033 C23.374,29.038 23.440,29.113 23.440,29.275 C23.439,30.428 23.439,31.581 23.443,32.734 C23.444,33.022 23.243,32.995 23.058,32.995 C21.272,32.996 19.486,32.996 17.700,32.996 C16.208,32.996 14.716,32.989 13.224,33.001 C12.914,33.003 12.804,32.909 12.809,32.592 C12.826,31.526 12.824,30.459 12.811,29.393 C12.807,29.096 12.881,28.940 13.209,28.965 C13.333,28.974 13.462,28.929 13.630,28.902 C12.852,28.115 12.123,27.369 11.384,26.632 C10.551,25.803 9.709,24.983 8.873,24.157 C8.552,23.841 8.567,23.711 8.962,23.502 Z"/>
</svg>