<svg  xmlns="http://www.w3.org/2000/svg" xmlns:xlink="http://www.w3.org/1999/xlink" width="31px" height="27px">
<path d="M9.665,12.110 C9.738,15.266 8.900,18.329 7.194,21.153 C7.080,21.341 7.109,21.452 7.263,21.583 C9.040,23.098 11.205,23.220 13.031,21.697 C13.211,21.547 13.233,21.411 13.124,21.197 C11.876,18.753 11.146,16.167 11.052,13.410 C10.946,10.303 11.184,7.239 12.224,4.283 C12.544,3.374 12.984,2.524 13.678,1.830 C14.849,0.660 16.492,0.753 17.541,2.043 C18.348,3.035 18.795,4.195 19.132,5.409 C19.670,7.351 19.874,9.337 19.952,11.351 C20.033,13.439 19.812,15.476 19.208,17.470 C18.816,18.765 18.302,20.012 17.584,21.160 C17.386,21.476 17.449,21.629 17.728,21.831 C19.542,23.138 22.014,23.073 23.635,21.672 C23.864,21.474 23.918,21.329 23.747,21.041 C22.123,18.294 21.317,15.323 21.328,12.117 C21.337,9.460 21.616,6.852 22.492,4.333 C22.818,3.396 23.264,2.521 23.976,1.814 C25.126,0.672 26.703,0.741 27.767,1.970 C28.589,2.919 29.037,4.057 29.380,5.243 C29.882,6.979 30.115,8.757 30.216,10.560 C30.302,12.105 30.302,13.643 30.082,15.180 C29.791,17.209 29.196,19.138 28.238,20.945 C28.059,21.283 28.103,21.473 28.385,21.705 C29.036,22.240 29.763,22.602 30.588,22.740 C30.886,22.790 31.005,22.906 31.000,23.209 C30.987,24.012 30.985,24.815 30.994,25.618 C30.998,25.930 30.872,26.020 30.576,25.986 C29.000,25.803 27.588,25.232 26.388,24.177 C26.114,23.936 25.950,23.911 25.643,24.163 C22.647,26.620 18.442,26.608 15.509,24.148 C15.319,23.989 15.212,24.026 15.053,24.164 C13.975,25.099 12.732,25.681 11.322,25.880 C9.053,26.202 7.047,25.599 5.320,24.087 C5.071,23.868 4.942,23.838 4.682,24.072 C3.457,25.174 2.006,25.778 0.382,25.981 C0.118,26.014 -0.001,25.932 0.001,25.655 C0.007,24.816 0.008,23.977 0.000,23.137 C-0.002,22.869 0.131,22.789 0.369,22.748 C1.270,22.592 2.060,22.201 2.742,21.583 C2.932,21.411 2.967,21.271 2.837,21.022 C1.643,18.734 0.919,16.308 0.777,13.716 C0.611,10.706 0.856,7.741 1.737,4.849 C2.076,3.739 2.539,2.680 3.368,1.836 C4.449,0.733 5.898,0.721 7.004,1.802 C7.919,2.696 8.376,3.849 8.734,5.043 C9.411,7.295 9.666,9.608 9.665,12.110 ZM15.426,18.581 C17.323,13.937 17.212,9.385 15.565,4.734 C13.837,6.971 13.753,15.727 15.426,18.581 ZM25.978,18.404 C27.529,13.774 27.508,9.267 25.833,4.684 C24.000,7.908 24.074,15.944 25.978,18.404 ZM5.250,4.685 C3.540,7.610 3.480,16.546 5.161,18.369 C7.049,13.819 6.910,9.309 5.250,4.685 Z"/>
</svg>