<svg  xmlns="http://www.w3.org/2000/svg" xmlns:xlink="http://www.w3.org/1999/xlink" width="35px" height="21px">
    <path d="M34.065,13.373 C34.009,13.647 33.960,13.922 33.888,14.191 C33.735,14.761 33.393,15.158 32.768,15.310 C32.542,15.379 32.289,15.363 32.036,15.313 C30.787,15.067 29.539,14.812 28.287,14.576 C27.992,14.521 27.925,14.415 27.996,14.120 C28.233,13.124 28.456,12.124 28.646,11.119 C28.723,10.713 28.891,10.636 29.278,10.720 C30.443,10.974 31.618,11.190 32.787,11.429 C33.855,11.647 34.284,12.305 34.065,13.373 ZM28.853,18.810 C28.797,19.083 28.748,19.359 28.676,19.628 C28.523,20.198 28.181,20.594 27.556,20.747 C27.330,20.816 27.077,20.799 26.824,20.750 C25.575,20.503 24.327,20.249 23.075,20.013 C22.780,19.958 22.713,19.852 22.784,19.557 C23.021,18.561 23.244,17.561 23.434,16.556 C23.511,16.149 23.679,16.073 24.066,16.157 C25.231,16.411 26.405,16.627 27.574,16.866 C28.643,17.084 29.072,17.742 28.853,18.810 ZM26.794,13.857 C26.734,14.159 26.614,14.247 26.301,14.185 C20.684,13.074 15.064,11.978 9.448,10.864 C8.618,10.699 8.053,10.168 7.831,9.369 C7.155,6.928 6.517,4.477 5.854,2.034 C5.683,1.405 5.977,0.958 6.383,0.538 C7.059,0.357 7.735,0.176 8.410,-0.006 C9.167,0.153 9.539,0.623 9.720,1.365 C10.146,3.116 10.654,4.848 11.097,6.595 C11.201,7.007 11.407,7.175 11.814,7.255 C16.853,8.248 21.889,9.255 26.925,10.259 C27.531,10.380 27.532,10.380 27.406,10.970 C27.200,11.932 26.985,12.892 26.794,13.857 ZM6.602,12.692 C11.641,13.685 16.677,14.692 21.713,15.696 C22.319,15.816 22.320,15.816 22.193,16.407 C21.988,17.369 21.773,18.329 21.582,19.294 C21.522,19.596 21.402,19.684 21.088,19.622 C15.472,18.511 9.852,17.414 4.235,16.301 C3.406,16.136 2.840,15.605 2.619,14.806 C1.943,12.365 1.305,9.914 0.641,7.470 C0.471,6.842 0.765,6.395 1.171,5.974 C1.847,5.793 2.523,5.612 3.198,5.431 C3.955,5.590 4.327,6.060 4.507,6.802 C4.934,8.553 5.442,10.285 5.884,12.032 C5.989,12.444 6.195,12.611 6.602,12.692 Z"/>
</svg>