<svg  xmlns="http://www.w3.org/2000/svg" xmlns:xlink="http://www.w3.org/1999/xlink" width="34px" height="30px">
<path d="M33.532,18.358 C33.103,18.346 32.675,18.353 32.246,18.353 C31.525,18.354 31.525,18.355 31.524,19.107 C31.523,19.696 31.498,20.286 31.531,20.873 C31.560,21.378 31.362,21.738 30.983,22.030 C30.228,22.611 29.374,23.018 28.540,23.459 C28.119,23.681 28.179,23.331 28.179,23.106 C28.173,21.184 28.174,19.263 28.173,17.341 C28.173,16.562 28.173,15.783 28.173,15.004 C28.173,12.338 28.171,9.672 28.174,7.006 C28.174,6.380 28.212,6.356 28.766,6.651 C29.463,7.021 30.165,7.382 30.817,7.836 C31.304,8.176 31.580,8.588 31.533,9.223 C31.488,9.843 31.546,10.470 31.516,11.092 C31.495,11.533 31.666,11.671 32.083,11.648 C32.561,11.621 33.043,11.654 33.522,11.643 C33.836,11.636 33.997,11.738 33.996,12.086 C33.989,14.025 33.991,15.964 33.998,17.903 C34.000,18.239 33.852,18.366 33.532,18.358 ZM26.596,23.939 C26.600,24.462 26.399,24.677 25.939,24.811 C24.605,25.199 23.420,24.945 22.413,23.987 C20.718,22.375 19.666,20.371 19.075,18.120 C18.945,17.626 18.727,17.505 18.257,17.512 C16.543,17.537 14.827,17.508 13.113,17.529 C12.660,17.535 12.513,17.378 12.521,16.929 C12.543,15.631 12.543,14.331 12.523,13.033 C12.517,12.597 12.677,12.466 13.094,12.470 C14.757,12.487 16.420,12.477 18.084,12.476 C18.904,12.476 18.908,12.477 19.124,11.688 C19.722,9.505 20.773,7.584 22.406,6.020 C23.409,5.060 24.604,4.813 25.934,5.189 C26.387,5.317 26.601,5.538 26.596,6.065 C26.570,9.061 26.584,12.057 26.583,15.054 C26.583,18.015 26.570,20.977 26.596,23.939 ZM10.421,20.856 C9.667,20.840 8.912,20.829 8.159,20.858 C7.693,20.876 7.578,20.679 7.583,20.243 C7.600,18.478 7.590,16.712 7.590,14.946 C7.590,13.249 7.589,11.553 7.590,9.857 C7.591,9.152 7.593,9.151 8.312,9.150 C9.014,9.149 9.717,9.163 10.420,9.146 C10.786,9.137 10.944,9.261 10.943,9.650 C10.935,13.216 10.936,16.782 10.945,20.349 C10.946,20.738 10.786,20.863 10.421,20.856 ZM5.997,22.639 C5.996,23.339 5.994,23.341 5.324,23.343 C4.689,23.345 4.055,23.344 3.421,23.343 C2.702,23.342 2.703,23.341 2.704,24.046 C2.704,25.795 2.705,27.544 2.703,29.293 C2.702,29.991 2.698,29.995 2.026,29.996 C0.897,29.996 1.004,30.110 1.003,28.970 C1.001,24.295 1.002,19.619 1.002,14.944 C1.002,10.217 1.002,5.489 1.003,0.762 C1.003,0.006 1.006,0.003 1.726,0.002 C2.783,-0.000 2.701,-0.098 2.703,0.971 C2.706,2.668 2.718,4.365 2.696,6.062 C2.691,6.509 2.809,6.686 3.273,6.663 C3.957,6.630 4.646,6.683 5.329,6.645 C5.841,6.617 6.013,6.779 6.008,7.314 C5.984,9.842 6.000,12.371 6.000,14.899 C6.000,17.479 5.999,20.059 5.997,22.639 Z"/>
</svg>