<svg  xmlns="http://www.w3.org/2000/svg" xmlns:xlink="http://www.w3.org/1999/xlink" width="51px" height="20px">
<path  d="M50.996,7.944 C51.020,8.457 50.909,8.894 50.384,9.132 C49.829,9.383 49.402,9.141 49.005,8.788 C48.452,8.295 47.845,7.901 47.125,7.658 C46.193,7.344 45.249,7.313 44.302,7.493 C36.940,8.897 29.580,10.313 22.220,11.725 C20.224,12.108 18.229,12.493 16.232,12.868 C16.037,12.905 15.785,13.034 15.643,12.830 C15.527,12.663 15.712,12.483 15.784,12.316 C16.375,10.943 16.462,9.552 15.962,8.135 C15.688,7.360 15.762,7.290 16.611,7.419 C17.657,7.579 18.703,7.753 19.756,7.855 C21.021,7.977 22.236,7.608 23.460,7.372 C30.985,5.923 38.509,4.466 46.033,3.012 C46.615,2.900 47.189,2.753 47.791,2.760 C49.526,2.779 50.957,4.143 50.995,5.830 C51.003,6.182 50.996,6.534 50.996,6.887 C50.995,6.887 50.994,6.887 50.993,6.887 C50.993,7.239 50.980,7.592 50.996,7.944 ZM10.055,14.022 C7.876,14.001 6.099,12.163 6.121,9.954 C6.143,7.691 7.990,5.965 10.364,5.992 C12.615,6.017 14.366,7.810 14.341,10.065 C14.316,12.383 12.514,14.046 10.055,14.022 ZM19.001,5.885 C17.492,5.671 15.982,5.461 14.471,5.263 C13.940,5.193 13.462,5.024 12.983,4.779 C9.220,2.853 4.735,5.244 4.248,9.370 C3.869,12.568 6.287,15.744 10.071,15.922 C10.681,15.951 11.298,15.854 11.892,15.687 C14.219,15.034 16.622,14.739 18.981,14.237 C19.121,14.207 19.312,14.135 19.400,14.268 C19.523,14.453 19.347,14.622 19.257,14.774 C17.641,17.509 15.283,19.247 12.085,19.859 C11.456,19.979 10.825,20.011 10.340,19.993 C4.982,19.986 0.630,16.224 0.058,11.067 C-0.477,6.254 2.538,1.644 7.726,0.311 C12.108,-0.815 16.909,1.167 19.131,5.018 C19.204,5.144 19.266,5.276 19.335,5.404 C19.530,5.768 19.478,5.953 19.001,5.885 Z"/>
</svg>