<svg  xmlns="http://www.w3.org/2000/svg" xmlns:xlink="http://www.w3.org/1999/xlink" width="56px" height="31px">
<path d="M-0.000,26.963 C0.313,26.571 0.721,26.436 1.211,26.479 C1.483,26.504 1.760,26.462 2.031,26.488 C2.463,26.530 2.604,26.354 2.595,25.921 C2.572,24.726 2.584,23.530 2.588,22.335 C2.591,21.502 2.885,21.172 3.700,21.200 C4.208,21.217 4.348,21.049 4.346,20.543 C4.330,15.136 4.329,9.729 4.342,4.322 C4.347,2.013 6.255,0.039 8.474,0.002 C9.365,-0.013 9.662,0.273 9.662,1.172 C9.665,6.615 9.664,12.059 9.664,17.503 C9.664,18.496 9.654,19.489 9.670,20.482 C9.674,20.772 9.504,21.200 10.074,21.187 C10.644,21.173 10.452,20.736 10.453,20.456 C10.464,15.123 10.459,9.790 10.463,4.456 C10.465,2.308 11.853,0.562 13.927,0.083 C14.156,0.030 14.396,0.010 14.631,0.005 C15.485,-0.012 15.786,0.284 15.787,1.149 C15.789,5.986 15.788,10.823 15.789,15.659 C15.789,17.259 15.780,18.859 15.796,20.459 C15.799,20.740 15.603,21.176 16.175,21.188 C16.742,21.200 16.581,20.773 16.581,20.482 C16.589,15.075 16.579,9.668 16.592,4.261 C16.597,2.026 18.556,0.031 20.729,0.002 C21.618,-0.010 21.912,0.277 21.912,1.178 C21.914,7.634 21.912,14.089 21.919,20.544 C21.920,20.771 21.782,21.097 22.165,21.177 C22.619,21.271 22.718,21.032 22.716,20.618 C22.702,18.135 22.708,15.653 22.708,13.170 C22.709,10.172 22.694,7.175 22.718,4.177 C22.736,1.990 24.726,0.020 26.882,0.001 C27.733,-0.007 28.037,0.291 28.037,1.153 C28.039,7.608 28.038,14.063 28.044,20.518 C28.044,20.738 27.930,21.018 28.214,21.161 C28.570,21.342 28.832,21.124 28.833,20.643 C28.836,18.307 28.833,15.972 28.834,13.636 C28.835,10.473 28.814,7.310 28.847,4.147 C28.870,1.975 30.838,0.040 32.982,0.002 C33.861,-0.014 34.162,0.282 34.162,1.183 C34.164,7.638 34.162,14.093 34.165,20.548 C34.165,20.845 34.070,21.215 34.585,21.190 C34.833,21.178 34.962,21.088 34.955,20.830 C34.953,20.720 34.955,20.609 34.955,20.499 C34.957,15.147 34.950,9.796 34.963,4.445 C34.968,2.272 36.339,0.567 38.434,0.083 C38.697,0.022 38.975,0.006 39.246,0.005 C39.957,0.002 40.281,0.323 40.284,1.048 C40.292,2.832 40.288,4.616 40.288,6.400 C40.288,11.089 40.295,15.779 40.277,20.468 C40.275,20.998 40.374,21.232 40.961,21.203 C41.697,21.166 42.027,21.533 42.033,22.275 C42.041,23.470 42.031,24.666 42.038,25.861 C42.040,26.136 41.940,26.476 42.421,26.487 C42.943,26.498 42.833,26.130 42.833,25.838 C42.838,22.381 42.836,18.924 42.837,15.466 C42.837,14.345 43.058,14.126 44.190,14.126 C45.028,14.125 45.867,14.112 46.705,14.131 C47.080,14.140 47.226,14.012 47.217,13.623 C47.197,12.760 47.199,11.895 47.217,11.031 C47.224,10.701 47.088,10.548 46.801,10.415 C45.310,9.728 44.554,8.573 44.579,6.889 C44.609,4.921 44.582,2.953 44.591,0.985 C44.594,0.385 44.943,0.019 45.473,0.006 C46.031,-0.008 46.387,0.363 46.411,0.987 C46.416,1.134 46.413,1.281 46.413,1.428 C46.413,2.256 46.417,3.083 46.412,3.911 C46.410,4.192 46.428,4.417 46.807,4.419 C47.178,4.421 47.215,4.215 47.212,3.923 C47.205,3.059 47.208,2.195 47.210,1.331 C47.211,0.405 47.498,-0.002 48.139,0.006 C48.759,0.013 49.036,0.412 49.038,1.304 C49.040,2.169 49.040,3.033 49.039,3.897 C49.038,4.167 49.027,4.410 49.416,4.420 C49.828,4.430 49.840,4.187 49.838,3.884 C49.832,2.946 49.830,2.009 49.837,1.071 C49.842,0.388 50.175,0.006 50.747,0.005 C51.318,0.003 51.659,0.386 51.661,1.067 C51.667,3.053 51.655,5.039 51.666,7.026 C51.674,8.594 50.943,9.694 49.569,10.348 C49.152,10.548 49.012,10.778 49.029,11.223 C49.061,12.031 49.050,12.842 49.033,13.651 C49.026,14.012 49.165,14.137 49.516,14.130 C50.373,14.114 51.230,14.125 52.086,14.125 C53.174,14.125 53.413,14.362 53.413,15.439 C53.414,18.897 53.424,22.354 53.403,25.812 C53.400,26.343 53.550,26.557 54.080,26.489 C54.313,26.459 54.555,26.502 54.790,26.480 C55.280,26.432 55.686,26.573 56.000,26.963 C56.000,27.405 56.000,27.846 56.000,28.288 C55.277,30.254 53.880,31.042 51.807,31.000 C47.891,30.921 43.972,30.978 40.054,30.978 C27.899,30.977 15.743,30.973 3.588,30.983 C2.625,30.983 1.810,30.678 1.094,30.046 C0.553,29.568 0.278,28.928 -0.000,28.288 C-0.000,27.846 -0.000,27.405 -0.000,26.963 ZM22.353,23.077 C22.353,23.067 22.354,23.058 22.354,23.049 C21.917,23.049 21.481,23.049 21.045,23.049 C19.079,23.049 17.114,23.048 15.149,23.050 C13.512,23.052 11.875,23.064 10.238,23.062 C8.455,23.060 6.672,23.050 4.889,23.033 C4.533,23.029 4.405,23.179 4.412,23.529 C4.426,24.263 4.415,24.999 4.416,25.734 C4.416,26.480 4.417,26.483 5.169,26.483 C12.986,26.483 20.803,26.483 28.620,26.483 C32.246,26.484 35.872,26.474 39.498,26.494 C40.009,26.497 40.174,26.326 40.154,25.829 C40.125,25.113 40.120,24.394 40.155,23.679 C40.180,23.161 39.984,23.020 39.489,23.027 C37.089,23.062 34.687,23.070 32.286,23.075 C28.975,23.082 25.664,23.077 22.353,23.077 ZM44.664,21.186 C44.664,22.749 44.682,24.312 44.654,25.875 C44.645,26.370 44.811,26.499 45.282,26.493 C47.195,26.470 49.109,26.473 51.023,26.491 C51.443,26.494 51.597,26.377 51.595,25.930 C51.578,22.804 51.578,19.679 51.595,16.553 C51.598,16.085 51.438,15.958 50.995,15.963 C49.082,15.982 47.168,15.982 45.255,15.963 C44.812,15.958 44.647,16.084 44.654,16.553 C44.679,18.097 44.663,19.642 44.664,21.186 ZM53.810,28.373 C36.571,28.373 19.400,28.373 2.158,28.373 C2.642,29.045 3.266,29.135 3.944,29.135 C19.909,29.131 35.874,29.133 51.839,29.132 C52.076,29.132 52.316,29.142 52.549,29.111 C53.044,29.045 53.512,28.913 53.810,28.373 ZM32.334,11.623 C32.334,8.610 32.335,5.597 32.332,2.584 C32.332,2.443 32.395,2.259 32.261,2.170 C32.092,2.060 31.953,2.225 31.826,2.312 C30.999,2.876 30.664,3.692 30.664,4.672 C30.663,9.853 30.662,15.034 30.665,20.216 C30.665,21.286 30.541,21.156 31.629,21.200 C32.174,21.222 32.351,21.067 32.346,20.497 C32.319,17.539 32.334,14.581 32.334,11.623 ZM38.460,11.605 C38.460,8.628 38.461,5.652 38.456,2.675 C38.456,2.501 38.551,2.259 38.368,2.166 C38.167,2.064 38.000,2.271 37.847,2.386 C37.065,2.974 36.785,3.792 36.786,4.746 C36.790,9.890 36.785,15.035 36.789,20.180 C36.790,21.298 36.655,21.150 37.774,21.201 C38.344,21.227 38.476,21.025 38.471,20.479 C38.447,17.521 38.460,14.563 38.460,11.605 ZM7.837,11.614 C7.837,8.618 7.838,5.623 7.834,2.628 C7.834,2.471 7.914,2.258 7.754,2.167 C7.568,2.062 7.417,2.250 7.275,2.350 C6.433,2.944 6.162,3.805 6.163,4.794 C6.164,9.921 6.161,15.047 6.166,20.174 C6.167,21.308 6.018,21.157 7.199,21.199 C7.705,21.217 7.851,21.051 7.847,20.544 C7.826,17.567 7.837,14.590 7.837,11.614 ZM20.085,11.621 C20.085,8.608 20.086,5.595 20.083,2.582 C20.082,2.441 20.145,2.257 20.008,2.170 C19.839,2.064 19.701,2.229 19.573,2.315 C18.699,2.905 18.413,3.779 18.413,4.790 C18.414,9.916 18.411,15.041 18.415,20.168 C18.416,21.317 18.277,21.155 19.442,21.198 C19.938,21.216 20.101,21.069 20.097,20.551 C20.074,17.574 20.086,14.598 20.085,11.621 ZM26.209,11.621 C26.209,8.607 26.210,5.594 26.207,2.580 C26.207,2.439 26.273,2.255 26.135,2.168 C25.967,2.062 25.828,2.226 25.700,2.313 C24.825,2.902 24.537,3.775 24.537,4.786 C24.538,9.913 24.536,15.040 24.539,20.167 C24.540,21.321 24.409,21.157 25.566,21.197 C26.060,21.214 26.225,21.073 26.221,20.551 C26.197,17.575 26.209,14.598 26.209,11.621 ZM13.962,11.625 C13.962,8.609 13.963,5.594 13.959,2.579 C13.958,2.441 14.031,2.257 13.873,2.176 C13.727,2.101 13.599,2.235 13.480,2.311 C12.586,2.882 12.289,3.752 12.289,4.765 C12.288,9.895 12.286,15.025 12.290,20.154 C12.291,21.306 12.150,21.152 13.307,21.200 C13.852,21.222 13.976,21.021 13.972,20.505 C13.951,17.545 13.962,14.585 13.962,11.625 ZM48.157,6.260 C48.157,6.261 48.157,6.263 48.157,6.264 C47.703,6.264 47.249,6.266 46.796,6.263 C46.559,6.261 46.442,6.349 46.411,6.609 C46.278,7.738 47.005,8.737 48.038,8.816 C49.018,8.891 49.819,7.987 49.846,6.836 C49.856,6.367 49.686,6.218 49.245,6.254 C48.885,6.283 48.520,6.260 48.157,6.260 Z"/>
</svg>