<svg  xmlns="http://www.w3.org/2000/svg" xmlns:xlink="http://www.w3.org/1999/xlink" width="26px" height="33px">
<path d="M25.673,13.414 C25.382,13.404 25.090,13.411 24.798,13.411 C24.517,13.411 24.237,13.406 23.956,13.413 C23.744,13.417 23.633,13.349 23.686,13.128 C23.808,12.621 23.785,12.110 23.699,11.602 C23.663,11.393 23.720,11.304 23.951,11.306 C24.534,11.312 25.118,11.312 25.701,11.304 C25.917,11.301 26.001,11.381 25.998,11.587 C25.990,12.100 25.987,12.613 25.999,13.126 C26.004,13.358 25.893,13.421 25.673,13.414 ZM23.042,8.069 C22.871,8.164 22.781,8.119 22.704,7.960 C22.464,7.463 22.162,7.000 21.843,6.547 C21.768,6.442 21.709,6.341 21.868,6.254 C22.422,5.950 22.975,5.644 23.530,5.340 C23.568,5.319 23.612,5.309 23.645,5.298 C23.764,5.303 23.803,5.385 23.847,5.459 C24.132,5.931 24.411,6.407 24.703,6.876 C24.797,7.027 24.789,7.124 24.622,7.213 C24.093,7.495 23.565,7.778 23.042,8.069 ZM18.937,19.658 C18.278,20.954 17.673,22.267 17.448,23.707 C17.413,23.929 17.404,24.155 17.396,24.380 C17.386,24.637 17.284,24.753 16.984,24.750 C15.656,24.735 14.328,24.743 12.999,24.743 C11.682,24.743 10.365,24.734 9.048,24.750 C8.745,24.753 8.626,24.658 8.610,24.377 C8.525,22.845 7.917,21.463 7.252,20.097 C6.537,18.628 5.714,17.210 5.077,15.706 C4.215,13.672 4.002,11.611 4.842,9.532 C6.007,6.648 8.198,4.857 11.376,4.236 C15.567,3.418 19.827,5.800 21.207,9.656 C21.912,11.625 21.791,13.551 21.003,15.468 C20.411,16.909 19.642,18.268 18.937,19.658 ZM19.365,11.393 C19.091,9.860 18.331,8.594 17.074,7.606 C15.864,6.655 14.453,6.198 12.894,6.214 C11.751,6.225 10.680,6.534 9.685,7.090 C7.340,8.399 6.000,11.258 6.776,13.818 C7.154,15.062 7.745,16.215 8.344,17.369 C9.191,19.002 10.083,20.618 10.544,22.403 C10.597,22.606 10.720,22.641 10.912,22.639 C11.598,22.632 12.285,22.636 12.972,22.636 C13.636,22.636 14.300,22.626 14.964,22.641 C15.243,22.648 15.384,22.574 15.459,22.296 C15.746,21.235 16.182,20.225 16.666,19.231 C17.349,17.831 18.150,16.485 18.768,15.056 C19.276,13.881 19.595,12.679 19.365,11.393 ZM19.454,3.839 C19.353,4.010 19.259,4.042 19.085,3.926 C18.613,3.615 18.120,3.334 17.598,3.104 C17.438,3.034 17.411,2.945 17.500,2.801 C17.807,2.301 18.110,1.799 18.409,1.296 C18.499,1.145 18.599,1.110 18.764,1.204 C19.256,1.485 19.754,1.756 20.249,2.033 C20.325,2.075 20.414,2.110 20.414,2.229 C20.391,2.277 20.369,2.338 20.335,2.393 C20.041,2.875 19.740,3.353 19.454,3.839 ZM13.833,2.178 C13.276,2.072 12.721,2.078 12.164,2.177 C11.977,2.211 11.892,2.134 11.895,1.953 C11.904,1.302 11.910,0.651 11.917,-0.000 C12.638,-0.000 13.359,-0.000 14.080,-0.000 C14.087,0.651 14.093,1.302 14.103,1.953 C14.105,2.133 14.019,2.213 13.833,2.178 ZM8.384,3.108 C7.866,3.346 7.367,3.616 6.898,3.935 C6.740,4.041 6.638,4.016 6.545,3.860 C6.246,3.356 5.945,2.853 5.639,2.353 C5.554,2.213 5.575,2.117 5.725,2.037 C6.245,1.758 6.764,1.477 7.280,1.192 C7.402,1.125 7.488,1.137 7.559,1.255 C7.878,1.785 8.200,2.314 8.519,2.844 C8.536,2.871 8.544,2.904 8.554,2.928 C8.558,3.046 8.462,3.072 8.384,3.108 ZM3.306,7.936 C3.213,8.133 3.110,8.158 2.919,8.050 C2.447,7.782 1.968,7.522 1.486,7.270 C1.254,7.149 1.191,7.023 1.343,6.789 C1.622,6.362 1.870,5.917 2.134,5.481 C2.183,5.400 2.221,5.302 2.359,5.293 C2.418,5.320 2.490,5.349 2.558,5.385 C3.046,5.650 3.532,5.919 4.023,6.179 C4.213,6.281 4.289,6.378 4.136,6.578 C3.810,7.002 3.535,7.458 3.306,7.936 ZM2.309,11.567 C2.205,12.099 2.198,12.630 2.312,13.162 C2.346,13.318 2.280,13.410 2.100,13.410 C1.481,13.409 0.861,13.408 0.242,13.411 C0.070,13.412 0.001,13.335 0.002,13.176 C0.004,12.629 0.004,12.082 0.001,11.535 C-0.000,11.368 0.084,11.306 0.250,11.308 C0.554,11.311 0.858,11.309 1.162,11.309 C1.466,11.309 1.770,11.312 2.074,11.308 C2.266,11.305 2.344,11.388 2.309,11.567 ZM3.022,16.619 C3.051,16.604 3.085,16.598 3.112,16.589 C3.218,16.588 3.248,16.663 3.279,16.730 C3.521,17.247 3.757,17.767 4.003,18.282 C4.073,18.429 4.036,18.521 3.894,18.599 C3.427,18.854 2.962,19.112 2.497,19.371 C2.353,19.451 2.253,19.430 2.167,19.287 C1.872,18.795 1.570,18.306 1.270,17.818 C1.203,17.708 1.205,17.617 1.331,17.548 C1.895,17.238 2.458,16.928 3.022,16.619 ZM9.789,25.728 C11.478,25.725 13.166,25.726 14.855,25.726 C15.328,25.726 15.801,25.718 16.273,25.730 C16.937,25.745 17.362,26.195 17.346,26.846 C17.333,27.402 16.859,27.829 16.240,27.831 C15.159,27.834 14.078,27.831 12.997,27.831 C12.997,27.832 12.997,27.832 12.997,27.833 C11.928,27.833 10.858,27.837 9.789,27.832 C8.936,27.828 8.428,27.125 8.724,26.367 C8.884,25.955 9.250,25.729 9.789,25.728 ZM9.689,28.822 C10.804,28.809 11.918,28.818 13.033,28.818 C13.033,28.818 13.033,28.817 13.033,28.817 C14.091,28.817 15.149,28.814 16.208,28.818 C16.846,28.820 17.321,29.223 17.345,29.773 C17.373,30.424 16.987,30.856 16.301,30.916 C16.128,30.931 16.049,31.000 15.976,31.140 C14.960,33.108 12.568,33.599 10.823,32.200 C10.482,31.927 10.226,31.586 10.044,31.200 C9.957,31.014 9.857,30.923 9.625,30.911 C9.046,30.881 8.637,30.412 8.651,29.841 C8.665,29.271 9.096,28.829 9.689,28.822 ZM22.684,16.745 C22.760,16.575 22.854,16.545 23.022,16.639 C23.546,16.930 24.076,17.212 24.603,17.500 C24.680,17.542 24.759,17.590 24.758,17.713 C24.732,17.764 24.703,17.833 24.664,17.898 C24.396,18.344 24.120,18.786 23.860,19.237 C23.755,19.419 23.647,19.453 23.458,19.346 C23.014,19.094 22.564,18.851 22.113,18.610 C21.946,18.521 21.904,18.418 21.989,18.243 C22.230,17.748 22.459,17.247 22.684,16.745 Z"/>
</svg>