<svg  xmlns="http://www.w3.org/2000/svg" xmlns:xlink="http://www.w3.org/1999/xlink" width="49px" height="18px">
<path d="M48.970,12.743 C48.967,12.898 49.049,13.116 48.864,13.189 C48.718,13.245 48.621,13.059 48.518,12.962 C47.561,12.056 46.478,11.358 45.289,10.809 C40.686,8.686 34.903,10.077 31.761,14.141 C30.255,16.089 28.440,17.474 26.009,17.863 C22.572,18.413 19.728,17.276 17.550,14.517 C15.507,11.929 12.926,10.372 9.714,9.926 C9.250,9.861 8.772,9.827 8.318,10.034 C7.628,10.348 7.285,10.968 7.378,11.739 C7.400,11.924 7.382,12.117 7.424,12.295 C7.520,12.703 7.377,12.911 6.973,12.911 C6.494,12.912 6.399,13.134 6.498,13.593 C6.629,14.191 6.673,14.808 6.777,15.413 C6.823,15.676 6.756,15.843 6.525,15.958 C5.619,16.409 4.680,16.618 3.671,16.438 C3.357,16.382 3.197,16.237 3.158,15.902 C3.085,15.274 2.962,14.651 2.897,14.022 C2.857,13.634 2.687,13.543 2.354,13.651 C1.827,13.822 1.647,13.553 1.572,13.055 C1.232,10.791 0.881,8.529 0.513,6.270 C0.439,5.819 0.544,5.636 1.004,5.567 C2.638,5.323 4.267,5.044 5.895,4.763 C6.123,4.724 6.349,4.626 6.556,4.516 C11.013,2.156 15.729,0.692 20.724,0.192 C27.660,-0.500 34.288,0.691 40.634,3.619 C43.197,4.801 45.572,6.301 47.851,7.983 C48.648,8.571 49.099,9.251 48.979,10.282 C48.943,10.595 48.974,10.915 48.974,11.232 C48.974,11.736 48.980,12.240 48.970,12.743 ZM24.578,3.654 C21.554,3.681 19.358,5.907 19.319,9.040 C19.285,11.863 21.700,14.286 24.445,14.295 C27.324,14.305 29.685,11.886 29.689,8.923 C29.694,6.110 27.342,3.630 24.578,3.654 ZM4.567,4.204 C3.351,4.403 2.135,4.607 0.922,4.824 C0.514,4.896 0.262,4.833 0.221,4.335 C0.184,3.874 0.076,3.419 -0.000,2.961 C-0.010,2.395 0.246,2.078 0.782,1.987 C2.069,1.770 3.353,1.533 4.643,1.341 C5.485,1.216 5.760,1.456 5.901,2.309 C6.173,3.946 6.172,3.942 4.567,4.204 ZM41.551,10.630 C43.295,10.798 44.923,11.332 46.408,12.293 C46.930,12.630 47.437,12.992 47.889,13.428 C48.475,13.993 48.468,13.982 47.886,14.583 C47.635,14.843 47.363,14.972 47.090,14.927 C44.802,14.790 42.901,13.963 41.322,12.346 C40.891,11.905 40.931,11.413 40.990,10.899 C41.029,10.556 41.323,10.608 41.551,10.630 Z"/>
</svg>