<svg xmlns="http://www.w3.org/2000/svg" xmlns:xlink="http://www.w3.org/1999/xlink" width="51px" height="28px">
<path d="M50.228,3.393 L26.893,26.728 C26.308,27.314 25.358,27.314 24.772,26.728 C24.186,26.142 24.186,25.193 24.772,24.607 L48.107,1.272 C48.692,0.686 49.642,0.686 50.228,1.272 C50.814,1.858 50.814,2.807 50.228,3.393 ZM14.893,26.728 C14.308,27.314 13.358,27.314 12.772,26.728 C12.186,26.142 12.186,25.193 12.772,24.607 L36.107,1.272 C36.692,0.686 37.642,0.686 38.228,1.272 C38.814,1.858 38.814,2.807 38.228,3.393 L14.893,26.728 ZM2.893,26.728 C2.308,27.314 1.358,27.314 0.772,26.728 C0.186,26.142 0.186,25.193 0.772,24.607 L24.107,1.272 C24.692,0.686 25.642,0.686 26.228,1.272 C26.814,1.858 26.814,2.807 26.228,3.393 L2.893,26.728 Z"/>
</svg>