<svg  xmlns="http://www.w3.org/2000/svg" xmlns:xlink="http://www.w3.org/1999/xlink" width="48px" height="32px">
    <path d="M0.000,28.292 C0.000,22.921 0.000,17.550 0.000,12.179 C0.350,11.088 0.986,10.241 2.062,9.773 C2.307,9.667 2.343,9.469 2.343,9.236 C2.337,7.912 2.328,6.586 2.338,5.262 C2.344,4.484 2.292,3.697 2.514,2.939 C2.977,1.358 4.068,0.430 5.625,0.000 C8.531,0.000 11.438,0.000 14.344,0.000 C15.227,0.240 16.041,0.604 16.649,1.319 C16.804,1.501 16.917,1.473 17.060,1.309 C17.640,0.645 18.388,0.254 19.219,0.000 C22.406,0.000 25.594,0.000 28.781,0.000 C29.621,0.269 30.389,0.657 30.973,1.342 C31.115,1.507 31.224,1.464 31.350,1.319 C31.964,0.612 32.771,0.237 33.656,0.000 C36.563,0.000 39.469,0.000 42.375,0.000 C44.499,0.573 45.701,2.121 45.660,4.560 C45.634,6.071 45.656,7.584 45.657,9.096 C45.657,9.360 45.619,9.634 45.938,9.773 C47.012,10.242 47.651,11.087 48.000,12.179 C48.000,17.550 48.000,22.921 48.000,28.292 C47.950,28.352 47.911,28.435 47.847,28.468 C47.322,28.741 47.275,29.208 47.209,29.740 C47.041,31.096 45.962,31.979 44.591,31.982 C43.920,31.983 43.244,31.934 42.577,31.993 C41.330,32.102 39.894,30.961 39.919,29.377 C39.926,28.919 39.771,28.788 39.325,28.788 C29.125,28.799 18.925,28.798 8.726,28.800 C8.111,28.800 8.111,28.804 8.090,29.421 C8.041,30.881 6.921,31.977 5.471,31.982 C4.737,31.984 4.003,31.986 3.269,31.981 C2.110,31.973 1.050,31.103 0.820,29.976 C0.624,29.019 0.624,29.019 0.000,28.292 ZM23.998,21.652 C23.998,21.652 23.998,21.653 23.998,21.654 C21.779,21.654 19.561,21.654 17.343,21.654 C13.937,21.653 10.531,21.651 7.126,21.653 C6.533,21.653 6.500,21.691 6.499,22.303 C6.498,23.646 6.498,24.989 6.499,26.331 C6.499,27.045 6.500,27.064 7.234,27.066 C10.373,27.076 13.513,27.076 16.652,27.075 C20.839,27.074 25.025,27.068 29.211,27.067 C33.100,27.065 36.990,27.067 40.879,27.065 C41.465,27.065 41.500,27.027 41.500,26.462 C41.500,25.088 41.500,23.714 41.496,22.340 C41.494,21.660 41.484,21.652 40.823,21.652 C35.214,21.652 29.606,21.652 23.998,21.652 ZM17.660,8.647 C17.660,10.144 17.660,11.642 17.660,13.139 C17.660,13.852 17.660,13.850 18.321,13.658 C18.470,13.615 18.625,13.567 18.778,13.564 C19.962,13.543 21.147,13.505 22.331,13.529 C22.955,13.542 23.577,13.508 24.201,13.514 C25.292,13.525 26.383,13.493 27.473,13.524 C28.323,13.549 29.195,13.410 30.012,13.779 C30.342,13.928 30.340,13.710 30.340,13.488 C30.339,10.306 30.351,7.124 30.332,3.942 C30.324,2.671 29.573,1.876 28.338,1.692 C27.682,1.595 27.030,1.657 26.376,1.656 C24.286,1.652 22.196,1.620 20.107,1.642 C18.537,1.658 17.662,2.588 17.661,4.155 C17.660,5.652 17.661,7.150 17.660,8.647 ZM32.082,8.615 C32.082,10.223 32.087,11.831 32.078,13.439 C32.076,13.779 32.155,13.911 32.507,13.745 C32.911,13.554 33.346,13.536 33.789,13.536 C35.490,13.534 37.190,13.489 38.890,13.517 C39.571,13.528 40.269,13.445 40.936,13.673 C41.515,13.871 41.527,13.874 41.508,13.277 C41.456,11.654 42.155,10.487 43.615,9.781 C43.843,9.671 43.937,9.523 43.937,9.273 C43.930,7.477 43.957,5.681 43.922,3.886 C43.899,2.679 42.941,1.767 41.734,1.678 C40.969,1.622 40.205,1.649 39.440,1.651 C37.801,1.654 36.162,1.624 34.523,1.640 C32.891,1.655 32.010,2.842 32.067,4.166 C32.131,5.647 32.082,7.132 32.082,8.615 ZM15.918,8.620 C15.918,7.074 15.921,5.529 15.917,3.983 C15.913,2.687 15.002,1.684 13.717,1.663 C11.315,1.625 8.911,1.617 6.508,1.644 C5.006,1.660 4.071,2.661 4.067,4.158 C4.062,5.797 4.080,7.436 4.061,9.075 C4.056,9.470 4.172,9.684 4.542,9.862 C5.541,10.344 6.162,11.154 6.422,12.238 C6.519,12.639 6.487,13.046 6.485,13.450 C6.484,13.750 6.538,13.907 6.884,13.751 C7.274,13.574 7.694,13.540 8.121,13.540 C10.211,13.540 12.300,13.532 14.390,13.529 C14.735,13.529 15.074,13.574 15.403,13.691 C15.912,13.873 15.917,13.869 15.918,13.349 C15.920,11.772 15.918,10.196 15.918,8.620 ZM24.002,19.919 C25.921,19.919 27.841,19.907 29.760,19.927 C30.217,19.932 30.365,19.780 30.348,19.331 C30.318,18.568 30.341,17.803 30.338,17.039 C30.333,15.747 29.810,15.220 28.519,15.214 C27.598,15.209 26.677,15.214 25.756,15.214 C23.618,15.214 21.480,15.207 19.342,15.216 C18.255,15.220 17.669,15.799 17.662,16.848 C17.657,17.675 17.679,18.502 17.653,19.328 C17.640,19.770 17.783,19.933 18.243,19.927 C20.162,19.906 22.082,19.919 24.002,19.919 ZM1.700,19.557 C1.702,19.557 1.705,19.557 1.707,19.557 C1.707,21.866 1.717,24.174 1.698,26.482 C1.695,26.945 1.867,27.088 2.303,27.071 C2.895,27.048 3.489,27.068 4.082,27.065 C4.721,27.062 4.747,27.036 4.748,26.408 C4.749,23.990 4.747,21.572 4.748,19.154 C4.749,17.033 4.758,14.912 4.750,12.790 C4.746,11.814 4.228,11.288 3.298,11.268 C2.234,11.245 1.703,11.753 1.701,12.819 C1.696,15.065 1.700,17.311 1.700,19.557 ZM43.250,19.629 C43.251,19.629 43.252,19.629 43.253,19.629 C43.253,21.906 43.252,24.183 43.253,26.460 C43.253,27.028 43.293,27.064 43.870,27.062 C44.447,27.060 45.025,27.069 45.602,27.063 C46.259,27.056 46.299,27.023 46.300,26.375 C46.303,21.853 46.302,17.331 46.300,12.808 C46.300,12.576 46.294,12.343 46.200,12.119 C45.913,11.432 45.256,11.130 44.361,11.285 C43.698,11.399 43.256,11.947 43.253,12.705 C43.246,15.013 43.250,17.321 43.250,19.629 ZM36.803,19.915 C36.803,19.916 36.803,19.917 36.803,19.918 C38.208,19.918 39.613,19.913 41.018,19.922 C41.346,19.924 41.509,19.823 41.504,19.468 C41.490,18.502 41.507,17.534 41.489,16.568 C41.478,15.933 41.108,15.487 40.486,15.315 C40.230,15.244 39.968,15.210 39.699,15.211 C37.795,15.215 35.891,15.210 33.987,15.216 C33.723,15.217 33.457,15.245 33.197,15.290 C32.498,15.413 32.108,15.871 32.098,16.586 C32.085,17.506 32.101,18.427 32.076,19.346 C32.064,19.765 32.196,19.930 32.636,19.923 C34.025,19.902 35.414,19.915 36.803,19.915 ZM11.164,19.919 C12.507,19.919 13.850,19.920 15.193,19.918 C15.909,19.918 15.915,19.913 15.917,19.179 C15.919,18.429 15.913,17.680 15.912,16.931 C15.909,15.779 15.482,15.253 14.343,15.230 C12.220,15.186 10.095,15.194 7.972,15.227 C7.023,15.242 6.505,15.848 6.500,16.805 C6.496,17.663 6.512,18.522 6.495,19.380 C6.487,19.780 6.629,19.931 7.041,19.926 C8.415,19.907 9.789,19.919 11.164,19.919 ZM43.614,28.799 C43.114,28.799 42.615,28.798 42.115,28.799 C41.960,28.799 41.798,28.785 41.698,28.947 C41.382,29.463 41.766,30.286 42.364,30.291 C43.112,30.298 43.861,30.361 44.610,30.282 C45.417,30.196 45.555,30.034 45.531,29.219 C45.522,28.923 45.413,28.791 45.113,28.796 C44.614,28.804 44.114,28.798 43.614,28.799 ZM4.409,28.797 C4.409,28.799 4.409,28.800 4.409,28.801 C3.910,28.801 3.410,28.800 2.911,28.801 C2.770,28.801 2.626,28.791 2.530,28.926 C2.206,29.379 2.578,30.211 3.132,30.261 C3.864,30.326 4.597,30.314 5.331,30.290 C6.213,30.260 6.369,30.106 6.350,29.245 C6.342,28.889 6.189,28.784 5.861,28.794 C5.378,28.808 4.893,28.797 4.409,28.797 Z"/>
</svg>