<svg  xmlns="http://www.w3.org/2000/svg" xmlns:xlink="http://www.w3.org/1999/xlink" width="19px" height="38px">
<path d="M18.988,34.927 C18.985,36.836 17.884,37.984 16.059,37.993 C13.867,38.004 11.676,37.996 9.484,37.995 C7.292,37.995 5.101,38.002 2.909,37.993 C1.128,37.985 0.013,36.837 0.009,34.992 C-0.000,30.695 0.016,26.399 -0.001,22.102 C-0.006,20.931 0.352,19.924 1.066,19.044 C1.917,17.994 2.791,16.965 3.635,15.909 C3.915,15.559 4.240,15.435 4.662,15.436 C7.893,15.444 11.125,15.444 14.356,15.435 C14.784,15.434 15.098,15.582 15.374,15.928 C16.201,16.961 17.052,17.973 17.891,18.994 C18.631,19.895 19.003,20.921 18.998,22.125 C18.978,26.392 18.996,30.660 18.988,34.927 ZM16.872,23.095 C16.870,22.071 16.661,21.857 15.681,21.853 C13.631,21.843 11.581,21.850 9.530,21.850 C7.480,21.850 5.430,21.846 3.380,21.852 C2.330,21.856 2.124,22.057 2.123,23.114 C2.117,26.912 2.117,30.710 2.123,34.508 C2.125,35.584 2.324,35.793 3.356,35.794 C7.457,35.800 11.557,35.800 15.658,35.794 C16.652,35.793 16.871,35.577 16.873,34.577 C16.881,30.750 16.880,26.923 16.872,23.095 ZM14.683,34.496 C11.228,34.472 7.773,34.473 4.318,34.496 C3.651,34.500 3.361,34.306 3.368,33.559 C3.396,30.403 3.397,27.247 3.369,24.092 C3.362,23.348 3.642,23.138 4.314,23.151 C6.055,23.184 7.797,23.162 9.539,23.162 C11.252,23.162 12.966,23.183 14.679,23.151 C15.347,23.138 15.636,23.339 15.629,24.088 C15.600,27.244 15.600,30.400 15.628,33.555 C15.635,34.299 15.355,34.501 14.683,34.496 ZM13.391,25.359 C10.786,25.362 8.181,25.364 5.576,25.357 C5.136,25.356 4.815,25.417 4.813,26.007 C4.812,26.584 5.106,26.678 5.560,26.673 C6.849,26.662 8.137,26.669 9.426,26.669 C10.742,26.669 12.059,26.661 13.375,26.673 C13.847,26.677 14.198,26.624 14.182,25.981 C14.166,25.376 13.812,25.359 13.391,25.359 ZM4.814,28.838 C4.822,29.351 5.063,29.482 5.498,29.481 C8.159,29.473 10.820,29.473 13.481,29.479 C13.904,29.480 14.169,29.375 14.180,28.851 C14.192,28.290 13.925,28.159 13.454,28.164 C12.166,28.178 10.877,28.169 9.589,28.169 C8.245,28.169 6.900,28.177 5.556,28.164 C5.097,28.161 4.806,28.266 4.814,28.838 ZM13.497,30.974 C10.836,30.982 8.175,30.982 5.515,30.976 C5.090,30.975 4.827,31.082 4.816,31.604 C4.805,32.167 5.074,32.296 5.543,32.291 C6.832,32.276 8.120,32.286 9.408,32.286 C10.753,32.286 12.097,32.278 13.442,32.290 C13.901,32.294 14.190,32.186 14.182,31.615 C14.174,31.101 13.932,30.973 13.497,30.974 ZM13.195,14.150 C12.397,14.158 12.041,13.901 12.149,13.054 C12.175,12.853 12.153,12.647 12.153,12.443 C12.159,11.229 12.175,11.212 13.309,11.227 C14.266,11.240 14.266,11.240 14.266,12.648 C14.266,12.794 14.250,12.941 14.269,13.084 C14.386,13.966 13.957,14.143 13.195,14.150 ZM10.892,12.701 C10.892,14.126 10.892,14.126 9.516,14.127 C8.103,14.127 8.103,14.127 8.104,12.652 C8.105,11.227 8.105,11.227 9.480,11.227 C10.893,11.226 10.893,11.226 10.892,12.701 ZM12.182,9.916 C11.283,9.905 10.384,9.913 9.485,9.911 C8.586,9.910 7.687,9.903 6.788,9.913 C6.268,9.919 6.102,9.677 6.163,9.148 C6.323,7.758 6.454,6.363 6.591,4.970 C6.657,4.299 6.952,3.780 7.580,3.582 C8.034,3.439 8.119,3.153 8.107,2.733 C8.093,2.266 8.084,1.796 8.119,1.331 C8.181,0.512 8.744,-0.007 9.514,0.002 C10.280,0.010 10.822,0.539 10.881,1.363 C10.906,1.712 10.905,2.065 10.889,2.415 C10.862,3.000 10.881,3.472 11.604,3.665 C12.114,3.802 12.340,4.351 12.397,4.911 C12.543,6.332 12.674,7.756 12.836,9.176 C12.899,9.726 12.680,9.921 12.182,9.916 ZM6.843,12.694 C6.841,14.111 6.841,14.111 5.895,14.126 C4.751,14.143 4.734,14.127 4.729,12.921 C4.729,12.746 4.729,12.572 4.730,12.397 C4.737,11.236 4.753,11.219 5.845,11.227 C6.845,11.235 6.845,11.235 6.843,12.694 Z"/>
</svg>