<svg  xmlns="http://www.w3.org/2000/svg" xmlns:xlink="http://www.w3.org/1999/xlink" width="37px" height="37px">
<path d="M36.548,20.859 C35.663,21.299 34.790,21.763 33.912,22.218 C33.779,22.288 33.647,22.360 33.516,22.433 C33.329,22.539 33.185,22.680 33.253,22.916 C33.319,23.141 33.499,23.206 33.720,23.213 C34.445,23.237 35.170,23.268 35.894,23.297 C36.007,23.301 36.121,23.300 36.231,23.317 C36.689,23.389 36.852,23.693 36.624,24.099 C36.080,25.071 35.520,26.033 34.965,26.998 C34.553,27.714 34.127,28.422 33.729,29.146 C33.562,29.448 33.346,29.574 33.004,29.555 C31.955,29.499 30.906,29.459 29.857,29.412 C29.769,29.408 29.682,29.406 29.594,29.404 C29.350,29.397 29.133,29.459 29.062,29.721 C28.992,29.975 29.177,30.107 29.363,30.225 C30.007,30.633 30.653,31.040 31.295,31.453 C31.855,31.812 31.856,32.149 31.286,32.482 C29.643,33.440 27.994,34.386 26.351,35.344 C26.058,35.515 25.799,35.512 25.512,35.325 C24.673,34.779 23.825,34.247 22.981,33.709 C22.886,33.649 22.792,33.587 22.696,33.528 C22.498,33.407 22.284,33.286 22.077,33.473 C21.874,33.656 21.949,33.886 22.056,34.095 C22.318,34.608 22.585,35.118 22.849,35.629 C22.958,35.840 23.079,36.046 23.173,36.263 C23.362,36.702 23.184,36.982 22.711,36.985 C21.723,36.993 20.734,36.988 19.745,36.988 C19.745,36.989 19.745,36.989 19.745,36.990 C18.819,36.990 17.892,36.970 16.967,36.999 C16.508,37.014 16.264,36.828 16.068,36.431 C15.591,35.467 15.076,34.522 14.578,33.568 C14.475,33.370 14.358,33.184 14.094,33.246 C13.823,33.311 13.781,33.530 13.774,33.772 C13.752,34.509 13.725,35.246 13.696,35.983 C13.667,36.721 13.342,36.897 12.712,36.532 C11.100,35.596 9.488,34.660 7.867,33.739 C7.541,33.554 7.411,33.323 7.432,32.952 C7.495,31.866 7.532,30.779 7.582,29.693 C7.594,29.433 7.600,29.165 7.300,29.067 C7.005,28.970 6.876,29.208 6.747,29.408 C6.333,30.050 5.927,30.696 5.508,31.334 C5.174,31.843 4.814,31.832 4.513,31.310 C3.568,29.674 2.629,28.034 1.678,26.403 C1.486,26.074 1.469,25.792 1.686,25.464 C2.252,24.609 2.796,23.738 3.347,22.873 C3.427,22.746 3.510,22.619 3.570,22.483 C3.640,22.323 3.627,22.164 3.490,22.035 C3.354,21.906 3.203,21.896 3.041,21.980 C2.519,22.250 1.996,22.520 1.474,22.790 C1.218,22.922 0.969,23.071 0.705,23.182 C0.311,23.346 0.007,23.165 0.005,22.748 C-0.005,20.721 0.001,18.693 0.000,16.666 C0.000,16.378 0.199,16.259 0.418,16.145 C1.406,15.632 2.391,15.112 3.378,14.598 C3.588,14.489 3.793,14.365 3.738,14.093 C3.677,13.795 3.425,13.782 3.176,13.774 C2.439,13.750 1.702,13.723 0.965,13.690 C0.279,13.660 0.095,13.360 0.426,12.780 C1.383,11.108 2.351,9.442 3.311,7.771 C3.442,7.543 3.620,7.426 3.890,7.438 C4.965,7.486 6.039,7.527 7.114,7.571 C7.164,7.573 7.213,7.582 7.263,7.583 C7.528,7.587 7.823,7.620 7.922,7.293 C8.017,6.983 7.767,6.855 7.552,6.719 C6.939,6.331 6.325,5.943 5.715,5.549 C5.127,5.170 5.124,4.849 5.719,4.502 C7.352,3.551 8.991,2.611 10.624,1.660 C10.927,1.483 11.194,1.477 11.496,1.675 C12.343,2.230 13.203,2.767 14.058,3.311 C14.185,3.391 14.312,3.472 14.445,3.540 C14.624,3.631 14.805,3.658 14.962,3.492 C15.105,3.340 15.077,3.176 14.990,3.007 C14.680,2.407 14.372,1.806 14.063,1.205 C13.983,1.049 13.892,0.898 13.823,0.737 C13.639,0.306 13.820,0.008 14.286,0.007 C16.263,0.000 18.241,0.006 20.219,0.001 C20.520,0.001 20.701,0.137 20.836,0.399 C21.350,1.401 21.878,2.395 22.398,3.394 C22.506,3.602 22.619,3.810 22.901,3.744 C23.173,3.680 23.211,3.458 23.219,3.216 C23.241,2.467 23.272,1.717 23.299,0.967 C23.322,0.285 23.643,0.101 24.240,0.444 C25.890,1.390 27.534,2.346 29.185,3.289 C29.458,3.445 29.565,3.647 29.559,3.959 C29.538,5.022 29.486,6.082 29.415,7.143 C29.408,7.242 29.409,7.343 29.406,7.443 C29.401,7.679 29.482,7.869 29.726,7.933 C29.961,7.994 30.096,7.836 30.209,7.660 C30.632,6.995 31.049,6.326 31.479,5.665 C31.819,5.143 32.154,5.143 32.463,5.673 C33.434,7.338 34.392,9.009 35.360,10.675 C35.524,10.957 35.511,11.205 35.332,11.478 C34.758,12.359 34.198,13.249 33.634,14.136 C33.561,14.252 33.486,14.369 33.431,14.494 C33.362,14.651 33.359,14.815 33.489,14.948 C33.632,15.095 33.798,15.093 33.971,15.003 C34.637,14.656 35.303,14.310 35.970,13.965 C36.047,13.924 36.125,13.882 36.204,13.846 C36.693,13.622 36.989,13.805 36.992,14.339 C36.996,15.203 36.994,16.066 36.994,16.930 C36.994,17.994 36.986,19.057 37.000,20.121 C37.005,20.480 36.871,20.698 36.548,20.859 ZM18.577,4.503 C10.874,4.461 4.438,10.789 4.520,18.490 C4.428,26.093 10.720,32.368 18.265,32.486 C26.104,32.609 32.547,26.167 32.491,18.388 C32.437,10.841 26.204,4.545 18.577,4.503 ZM18.943,30.599 C11.910,30.832 6.643,25.226 6.392,19.056 C6.103,11.959 11.739,6.671 17.901,6.392 C25.039,6.068 30.689,11.905 30.596,18.501 C30.638,25.092 25.287,30.389 18.943,30.599 ZM18.885,8.728 C13.216,8.520 8.673,13.130 8.720,18.587 C8.765,23.814 13.077,28.288 18.465,28.256 C23.780,28.317 28.084,24.019 28.263,18.874 C28.460,13.221 23.978,8.915 18.885,8.728 ZM18.226,24.005 C15.403,23.906 12.983,21.422 13.001,18.481 C12.926,15.533 15.526,12.929 18.596,12.986 C21.539,13.040 24.058,15.569 24.007,18.604 C23.961,21.399 21.528,24.121 18.226,24.005 ZM18.283,16.001 C16.974,16.068 15.941,17.219 16.006,18.540 C15.915,19.727 16.971,21.064 18.597,21.017 C19.935,20.978 21.078,19.748 21.028,18.489 C20.967,16.966 19.816,15.923 18.283,16.001 Z"/>
</svg>