<svg  xmlns="http://www.w3.org/2000/svg" xmlns:xlink="http://www.w3.org/1999/xlink" width="23px" height="29px">
<path d="M22.999,14.535 C22.998,14.535 22.997,14.535 22.996,14.535 C22.996,18.999 22.997,23.462 22.996,27.926 C22.996,28.430 22.993,28.432 22.490,28.432 C19.740,28.433 16.991,28.428 14.242,28.439 C13.890,28.441 13.767,28.353 13.767,27.992 C13.777,19.030 13.775,10.068 13.776,1.106 C13.776,0.565 13.777,0.564 14.318,0.564 C17.019,0.563 19.721,0.563 22.422,0.564 C23.000,0.564 22.999,0.568 22.999,1.145 C22.999,5.608 22.999,10.072 22.999,14.535 ZM16.591,26.710 C17.207,26.751 17.734,26.284 17.776,25.658 C17.813,25.113 17.316,24.591 16.720,24.547 C16.156,24.505 15.582,25.013 15.545,25.587 C15.510,26.133 16.010,26.670 16.591,26.710 ZM16.674,9.515 C16.086,9.506 15.545,10.026 15.544,10.600 C15.543,11.172 16.078,11.689 16.672,11.688 C17.248,11.687 17.774,11.183 17.784,10.621 C17.795,10.049 17.268,9.524 16.674,9.515 ZM20.143,19.481 C20.725,19.458 21.239,18.940 21.228,18.388 C21.216,17.806 20.678,17.295 20.091,17.308 C19.495,17.321 18.966,17.853 18.987,18.419 C19.009,19.000 19.557,19.504 20.143,19.481 ZM20.116,2.279 C19.548,2.267 19.012,2.765 18.988,3.330 C18.964,3.898 19.482,4.430 20.081,4.452 C20.664,4.474 21.214,3.961 21.228,3.383 C21.243,2.815 20.717,2.292 20.116,2.279 ZM12.269,21.758 C11.745,21.737 11.218,21.745 10.693,21.756 C10.439,21.761 10.328,21.682 10.329,21.419 C10.337,19.960 10.336,18.501 10.331,17.042 C10.330,16.813 10.401,16.700 10.657,16.705 C11.218,16.715 11.780,16.715 12.341,16.704 C12.596,16.700 12.670,16.811 12.668,17.040 C12.660,17.770 12.665,18.499 12.665,19.229 C12.666,19.935 12.655,20.642 12.670,21.348 C12.677,21.639 12.596,21.771 12.269,21.758 ZM12.357,13.366 C12.594,13.363 12.670,13.469 12.668,13.683 C12.661,14.227 12.660,14.771 12.670,15.315 C12.674,15.560 12.559,15.641 12.323,15.634 C12.036,15.624 11.750,15.632 11.464,15.632 C11.464,15.631 11.464,15.630 11.464,15.629 C11.189,15.629 10.915,15.625 10.640,15.630 C10.436,15.634 10.330,15.561 10.332,15.348 C10.338,14.781 10.338,14.214 10.332,13.647 C10.329,13.434 10.434,13.364 10.639,13.366 C11.212,13.371 11.785,13.373 12.357,13.366 ZM12.269,12.295 C11.744,12.274 11.218,12.282 10.693,12.293 C10.440,12.298 10.326,12.219 10.327,11.956 C10.335,10.509 10.338,9.061 10.327,7.613 C10.325,7.320 10.443,7.231 10.729,7.239 C11.254,7.253 11.780,7.253 12.305,7.238 C12.596,7.229 12.673,7.353 12.669,7.612 C12.658,8.330 12.665,9.048 12.665,9.766 C12.665,10.472 12.655,11.179 12.670,11.885 C12.677,12.177 12.595,12.308 12.269,12.295 ZM10.635,6.169 C10.427,6.173 10.330,6.090 10.332,5.882 C10.338,5.315 10.338,4.748 10.333,4.181 C10.331,3.966 10.444,3.902 10.645,3.904 C11.217,3.908 11.790,3.908 12.363,3.904 C12.570,3.902 12.670,3.979 12.668,4.189 C12.662,4.744 12.660,5.300 12.667,5.855 C12.670,6.073 12.586,6.175 12.353,6.168 C12.067,6.159 11.781,6.166 11.494,6.166 C11.494,6.166 11.494,6.167 11.494,6.168 C11.208,6.168 10.922,6.163 10.635,6.169 ZM12.345,2.829 C11.784,2.821 11.222,2.819 10.661,2.829 C10.407,2.834 10.323,2.726 10.330,2.495 C10.340,2.182 10.332,1.869 10.333,1.556 C10.333,1.232 10.342,0.907 10.330,0.583 C10.321,0.362 10.423,0.239 10.624,0.162 C11.207,-0.059 11.789,-0.049 12.373,0.159 C12.577,0.231 12.672,0.358 12.668,0.578 C12.659,1.226 12.660,1.875 12.667,2.524 C12.670,2.750 12.571,2.832 12.345,2.829 ZM10.675,22.825 C11.223,22.837 11.773,22.837 12.321,22.826 C12.591,22.821 12.680,22.934 12.668,23.180 C12.655,23.446 12.665,23.712 12.665,23.979 C12.666,24.210 12.651,24.443 12.669,24.673 C12.694,24.978 12.596,25.116 12.252,25.099 C11.752,25.075 11.249,25.080 10.749,25.098 C10.447,25.108 10.313,25.022 10.326,24.708 C10.346,24.200 10.338,23.690 10.327,23.181 C10.322,22.936 10.404,22.819 10.675,22.825 ZM8.647,28.433 C5.946,28.434 3.244,28.435 0.543,28.435 C0.006,28.435 0.002,28.434 0.002,27.924 C0.001,18.974 0.000,10.023 0.000,1.072 C0.000,0.565 0.004,0.562 0.543,0.562 C3.280,0.562 6.017,0.563 8.755,0.564 C9.220,0.565 9.222,0.567 9.222,1.038 C9.222,5.536 9.222,10.035 9.222,14.534 C9.222,18.986 9.222,23.438 9.222,27.890 C9.222,28.432 9.222,28.433 8.647,28.433 ZM2.920,9.521 C2.289,9.515 1.781,10.003 1.776,10.618 C1.772,11.168 2.300,11.680 2.879,11.689 C3.454,11.697 4.010,11.164 4.011,10.603 C4.012,10.045 3.489,9.526 2.920,9.521 ZM2.889,24.545 C2.317,24.540 1.786,25.042 1.770,25.605 C1.753,26.176 2.277,26.704 2.873,26.718 C3.459,26.732 4.004,26.216 4.011,25.640 C4.018,25.069 3.487,24.551 2.889,24.545 ZM6.359,2.279 C5.788,2.262 5.221,2.797 5.213,3.360 C5.206,3.903 5.740,4.435 6.309,4.452 C6.879,4.469 7.446,3.933 7.454,3.370 C7.462,2.828 6.928,2.295 6.359,2.279 ZM6.365,17.314 C5.735,17.306 5.226,17.794 5.220,18.410 C5.215,18.959 5.742,19.472 6.321,19.482 C6.896,19.492 7.452,18.960 7.454,18.397 C7.457,17.840 6.934,17.320 6.365,17.314 ZM10.332,26.469 C10.329,26.271 10.403,26.168 10.623,26.170 C11.208,26.175 11.794,26.175 12.379,26.170 C12.599,26.168 12.670,26.274 12.668,26.471 C12.663,27.132 12.661,27.792 12.667,28.453 C12.668,28.646 12.574,28.753 12.403,28.821 C11.798,29.059 11.195,29.056 10.589,28.821 C10.394,28.745 10.324,28.615 10.330,28.416 C10.340,28.092 10.333,27.767 10.333,27.443 C10.334,27.118 10.338,26.793 10.332,26.469 Z"/>
</svg>