<svg  xmlns="http://www.w3.org/2000/svg" xmlns:xlink="http://www.w3.org/1999/xlink" width="50px" height="22px">
<path d="M2.705,0.000 C17.570,0.000 32.436,0.000 47.301,0.000 C48.937,0.471 50.067,1.741 49.998,3.820 C49.929,5.896 49.991,7.975 49.978,10.053 C49.966,11.872 48.694,13.285 46.863,13.490 C46.202,13.563 45.529,13.541 44.861,13.545 C44.114,13.549 44.119,13.541 44.114,14.302 C44.105,15.509 44.188,16.728 44.052,17.921 C43.819,19.965 42.150,21.560 40.041,21.934 C38.089,22.280 35.976,21.270 35.001,19.512 C34.425,18.472 34.298,17.339 34.403,16.184 C34.473,15.402 35.096,14.905 35.827,14.947 C36.568,14.990 37.056,15.535 37.072,16.343 C37.080,16.714 37.081,17.082 37.140,17.451 C37.330,18.652 38.225,19.369 39.472,19.302 C40.551,19.243 41.401,18.326 41.404,17.189 C41.412,14.049 41.412,10.908 41.413,7.767 C41.414,7.139 41.431,6.510 41.400,5.883 C41.366,5.178 40.887,4.753 40.196,4.759 C39.477,4.766 39.054,5.165 39.013,5.892 C38.992,6.262 38.989,6.632 38.989,7.003 C38.987,8.935 38.989,10.868 38.987,12.800 C38.986,13.509 38.961,13.534 38.245,13.534 C35.133,13.537 32.020,13.538 28.908,13.538 C28.314,13.538 28.262,13.583 28.262,14.163 C28.261,15.113 28.267,16.064 28.259,17.014 C28.235,20.000 26.054,22.122 23.041,21.958 C20.081,21.796 18.039,19.167 18.589,15.947 C18.703,15.277 19.328,14.894 20.006,14.949 C20.651,15.002 21.169,15.530 21.211,16.201 C21.232,16.538 21.206,16.878 21.227,17.215 C21.288,18.154 21.748,18.841 22.639,19.182 C24.040,19.718 25.528,18.703 25.545,17.188 C25.571,14.982 25.556,12.775 25.557,10.569 C25.558,9.071 25.564,7.573 25.552,6.075 C25.546,5.315 25.149,4.834 24.518,4.766 C23.657,4.674 23.095,5.171 23.091,6.070 C23.079,8.309 23.084,10.548 23.082,12.787 C23.081,13.528 23.080,13.533 22.316,13.534 C19.252,13.537 16.189,13.537 13.126,13.535 C12.324,13.535 12.333,13.537 12.316,14.344 C12.289,15.566 12.431,16.794 12.228,18.009 C11.788,20.634 9.185,22.426 6.580,21.914 C3.751,21.359 2.200,18.880 2.630,16.006 C2.737,15.292 3.377,14.884 4.102,14.954 C4.735,15.015 5.246,15.566 5.276,16.236 C5.291,16.574 5.271,16.913 5.285,17.250 C5.330,18.369 6.256,19.286 7.351,19.307 C8.675,19.332 9.604,18.422 9.612,17.053 C9.625,14.960 9.617,12.866 9.616,10.772 C9.616,9.177 9.623,7.583 9.606,5.988 C9.597,5.144 9.069,4.677 8.271,4.757 C7.641,4.820 7.235,5.323 7.234,6.057 C7.230,8.344 7.220,10.631 7.236,12.918 C7.239,13.380 7.075,13.549 6.613,13.540 C5.685,13.523 4.756,13.543 3.827,13.547 C1.216,13.559 -0.079,11.620 0.003,9.714 C0.091,7.672 0.021,5.624 0.024,3.578 C0.025,3.257 0.018,2.936 0.095,2.617 C0.434,1.224 1.365,0.415 2.705,0.000 Z"/>
</svg>