<svg  xmlns="http://www.w3.org/2000/svg" xmlns:xlink="http://www.w3.org/1999/xlink" width="50px" height="32px">
    <path d="M0.000,12.563 C0.374,12.098 0.849,12.036 1.405,12.163 C2.101,12.323 2.811,12.426 3.509,12.579 C3.776,12.637 3.838,12.565 3.782,12.318 C3.698,11.954 3.614,11.588 3.543,11.221 C3.442,10.701 3.714,10.248 4.192,10.123 C4.652,10.002 5.140,10.291 5.280,10.792 C5.381,11.152 5.459,11.520 5.523,11.889 C5.588,12.265 5.712,12.414 6.088,12.158 C6.410,11.939 6.757,11.750 7.109,11.584 C7.448,11.424 7.550,11.207 7.452,10.841 C7.310,10.307 7.200,9.764 7.092,9.221 C6.979,8.655 7.240,8.216 7.744,8.088 C8.221,7.968 8.676,8.271 8.825,8.828 C8.930,9.221 9.019,9.618 9.099,10.017 C9.148,10.263 9.227,10.377 9.487,10.224 C9.936,9.960 10.391,9.707 10.848,9.457 C11.051,9.346 11.108,9.208 11.049,8.976 C10.908,8.424 10.791,7.866 10.671,7.309 C10.529,6.650 10.788,6.173 11.343,6.057 C11.864,5.948 12.269,6.267 12.426,6.923 C12.514,7.287 12.593,7.653 12.670,8.019 C12.725,8.283 12.850,8.331 13.081,8.193 C13.500,7.942 13.922,7.695 14.352,7.466 C14.601,7.333 14.643,7.153 14.584,6.898 C14.452,6.327 14.322,5.755 14.218,5.178 C14.116,4.614 14.403,4.161 14.894,4.055 C15.386,3.949 15.811,4.248 15.955,4.816 C16.055,5.211 16.145,5.608 16.223,6.007 C16.272,6.253 16.387,6.308 16.598,6.189 C17.065,5.924 17.529,5.653 18.001,5.397 C18.208,5.284 18.191,5.129 18.148,4.941 C18.019,4.386 17.892,3.830 17.779,3.272 C17.644,2.607 17.910,2.130 18.463,2.019 C18.946,1.922 19.366,2.252 19.521,2.865 C19.608,3.212 19.694,3.561 19.753,3.914 C19.812,4.275 19.972,4.292 20.251,4.123 C20.626,3.895 21.009,3.677 21.398,3.474 C21.686,3.323 21.787,3.137 21.693,2.802 C21.549,2.286 21.452,1.756 21.346,1.229 C21.165,0.334 21.636,-0.135 22.563,0.033 C23.794,0.256 25.023,0.497 26.252,0.732 C33.550,2.123 40.847,3.513 48.144,4.907 C48.590,4.992 49.035,5.089 49.477,5.194 C49.712,5.251 49.837,5.463 50.000,5.619 C50.000,5.913 50.000,6.206 50.000,6.499 C49.481,8.248 49.114,10.035 48.669,11.802 C48.163,13.807 47.684,15.818 47.190,17.825 C46.944,18.823 46.625,19.020 45.619,18.817 C45.221,18.737 44.820,18.672 44.423,18.584 C44.100,18.512 43.937,18.628 43.872,18.951 C43.791,19.350 43.685,19.744 43.581,20.137 C43.426,20.723 43.118,20.967 42.516,20.898 C41.953,20.833 41.391,20.725 40.839,20.591 C40.494,20.507 40.367,20.623 40.307,20.943 C40.235,21.326 40.136,21.705 40.040,22.084 C39.858,22.805 39.471,23.050 38.747,22.911 C38.252,22.815 37.754,22.734 37.265,22.612 C36.967,22.538 36.843,22.645 36.781,22.916 C36.686,23.329 36.587,23.740 36.479,24.149 C36.310,24.785 35.979,25.017 35.338,24.923 C34.824,24.847 34.314,24.742 33.804,24.641 C33.457,24.571 33.249,24.657 33.191,25.048 C33.138,25.401 33.030,25.745 32.940,26.092 C32.751,26.832 32.371,27.074 31.609,26.939 C31.113,26.851 30.616,26.767 30.124,26.662 C29.863,26.606 29.735,26.671 29.683,26.947 C29.604,27.362 29.500,27.773 29.388,28.181 C29.200,28.872 28.815,29.107 28.114,28.971 C27.603,28.873 27.092,28.778 26.584,28.665 C26.320,28.606 26.181,28.702 26.121,28.953 C26.034,29.317 25.945,29.681 25.854,30.044 C25.640,30.891 25.309,31.113 24.442,30.955 C23.019,30.696 21.599,30.422 20.177,30.153 C19.778,30.077 19.379,30.002 18.982,29.919 C18.556,29.832 18.301,29.575 18.206,29.144 C17.995,28.191 17.764,27.241 17.562,26.286 C17.499,25.987 17.355,25.843 17.055,25.788 C15.217,25.451 13.380,25.104 11.545,24.751 C11.244,24.693 11.094,24.777 11.026,25.085 C10.868,25.801 10.695,26.513 10.510,27.221 C10.317,27.959 9.966,28.184 9.226,28.050 C7.419,27.721 5.615,27.377 3.807,27.056 C3.209,26.949 2.928,26.604 2.802,26.026 C1.935,22.050 1.050,18.078 0.170,14.105 C0.121,13.882 0.057,13.664 0.000,13.444 C0.000,13.150 0.000,12.857 0.000,12.563 ZM46.123,9.676 C46.929,9.270 47.723,9.007 47.759,7.984 C47.768,7.729 47.850,7.469 47.937,7.225 C48.084,6.816 47.918,6.686 47.528,6.613 C44.525,6.054 41.524,5.476 38.522,4.905 C33.637,3.974 28.750,3.049 23.867,2.107 C23.446,2.026 23.353,2.086 23.454,2.520 C23.877,4.343 24.274,6.173 24.676,8.001 C24.833,8.716 25.010,9.429 25.118,10.151 C25.193,10.651 24.869,11.034 24.418,11.113 C23.966,11.193 23.562,10.941 23.403,10.472 C23.361,10.349 23.336,10.221 23.308,10.094 C22.977,8.599 22.640,7.107 22.321,5.610 C22.233,5.197 22.086,5.087 21.710,5.345 C21.389,5.565 21.048,5.768 20.691,5.919 C20.299,6.084 20.280,6.325 20.365,6.692 C20.768,8.437 21.143,10.188 21.539,11.934 C21.608,12.239 21.605,12.517 21.419,12.772 C21.213,13.057 20.928,13.210 20.576,13.152 C20.143,13.080 19.896,12.793 19.802,12.373 C19.443,10.768 19.078,9.165 18.735,7.557 C18.656,7.186 18.529,7.132 18.218,7.329 C17.861,7.555 17.493,7.767 17.114,7.954 C16.802,8.109 16.710,8.290 16.797,8.651 C17.187,10.282 17.530,11.923 17.915,13.555 C18.063,14.185 18.188,14.779 17.376,15.215 C18.425,15.417 19.330,15.592 20.235,15.765 C22.758,16.248 25.281,16.726 27.801,17.216 C28.580,17.368 28.825,17.779 28.644,18.556 C28.556,18.931 28.464,19.305 28.345,19.803 C28.698,19.606 28.938,19.447 29.199,19.333 C29.624,19.145 29.834,18.840 29.924,18.379 C30.080,17.581 30.291,16.793 30.497,16.006 C30.649,15.425 31.076,15.119 31.549,15.219 C32.086,15.332 32.353,15.797 32.227,16.431 C32.164,16.749 32.069,17.062 31.998,17.380 C31.973,17.493 31.903,17.660 32.133,17.642 C32.530,17.610 33.320,16.913 33.419,16.512 C33.621,15.690 33.810,14.864 34.023,14.045 C34.189,13.405 34.619,13.109 35.146,13.243 C35.669,13.375 35.896,13.840 35.752,14.489 C35.665,14.876 35.573,15.261 35.459,15.751 C35.777,15.578 35.980,15.443 36.201,15.352 C36.696,15.150 36.948,14.800 37.047,14.267 C37.185,13.515 37.396,12.778 37.576,12.034 C37.727,11.411 38.179,11.073 38.685,11.203 C39.223,11.341 39.455,11.801 39.326,12.433 C39.244,12.834 39.071,13.221 39.088,13.693 C39.332,13.558 39.521,13.428 39.728,13.343 C40.222,13.138 40.481,12.789 40.580,12.255 C40.723,11.488 40.928,10.732 41.117,9.974 C41.267,9.374 41.716,9.049 42.203,9.166 C42.742,9.295 42.999,9.759 42.866,10.388 C42.799,10.706 42.703,11.019 42.635,11.337 C42.610,11.451 42.555,11.619 42.792,11.588 C43.226,11.532 43.993,10.844 44.098,10.410 C44.304,9.556 44.496,8.697 44.717,7.847 C44.858,7.303 45.330,7.031 45.832,7.160 C46.295,7.280 46.557,7.746 46.446,8.273 C46.353,8.713 46.245,9.149 46.123,9.676 ZM26.656,19.134 C26.742,18.768 26.461,18.787 26.247,18.747 C21.919,17.926 17.590,17.112 13.263,16.286 C9.687,15.605 6.112,14.916 2.539,14.215 C2.139,14.137 2.029,14.229 2.117,14.624 C2.879,18.041 3.640,21.457 4.386,24.877 C4.465,25.240 4.642,25.390 4.995,25.450 C6.133,25.642 7.270,25.845 8.399,26.082 C8.793,26.164 8.968,26.073 9.049,25.682 C9.196,24.981 9.368,24.285 9.543,23.590 C9.713,22.913 10.074,22.667 10.757,22.792 C13.203,23.243 15.644,23.719 18.092,24.155 C18.711,24.265 19.037,24.569 19.158,25.177 C19.328,26.039 19.558,26.889 19.721,27.753 C19.793,28.136 19.969,28.308 20.344,28.371 C21.482,28.563 22.621,28.755 23.748,28.998 C24.171,29.090 24.283,28.943 24.369,28.581 C24.823,26.664 25.294,24.751 25.759,22.836 C26.059,21.602 26.357,20.368 26.656,19.134 ZM16.624,15.070 C16.315,14.700 16.240,14.321 16.156,13.942 C15.836,12.495 15.503,11.051 15.189,9.603 C15.110,9.238 14.989,9.128 14.644,9.354 C14.277,9.595 13.889,9.806 13.501,10.011 C13.264,10.136 13.173,10.301 13.233,10.566 C13.515,11.804 13.795,13.043 14.065,14.284 C14.113,14.508 14.226,14.627 14.442,14.667 C15.141,14.796 15.840,14.925 16.624,15.070 ZM29.180,21.401 C28.720,21.664 28.387,21.864 28.045,22.045 C27.824,22.162 27.720,22.339 27.664,22.575 C27.360,23.855 27.050,25.133 26.737,26.411 C26.677,26.658 26.655,26.887 26.990,26.911 C27.305,26.934 27.744,27.272 27.886,26.716 C28.329,24.991 28.732,23.255 29.180,21.401 ZM41.752,18.937 C41.991,19.005 42.046,18.838 42.092,18.649 C42.226,18.097 42.365,17.545 42.500,16.992 C42.760,15.918 43.022,14.844 43.275,13.768 C43.300,13.661 43.454,13.445 43.151,13.476 C42.699,13.522 41.935,14.228 41.826,14.679 C41.561,15.786 41.296,16.892 41.027,17.998 C40.830,18.805 40.827,18.804 41.644,18.916 C41.676,18.920 41.708,18.928 41.752,18.937 ZM36.279,17.372 C35.954,17.552 35.750,17.688 35.529,17.783 C35.022,18.001 34.780,18.372 34.670,18.919 C34.449,20.018 34.155,21.102 33.890,22.193 C33.743,22.802 33.749,22.773 34.376,22.934 C34.795,23.041 34.987,22.937 35.040,22.512 C35.068,22.287 35.143,22.069 35.196,21.848 C35.548,20.397 35.899,18.945 36.279,17.372 ZM32.691,19.472 C32.185,19.640 31.821,19.908 31.435,20.132 C31.312,20.203 31.286,20.337 31.256,20.465 C30.936,21.792 30.626,23.121 30.289,24.443 C30.203,24.779 30.335,24.924 30.622,24.919 C30.903,24.915 31.302,25.279 31.437,24.681 C31.633,23.809 31.865,22.946 32.075,22.078 C32.279,21.232 32.476,20.384 32.691,19.472 ZM45.371,16.948 C45.470,16.975 45.573,16.849 45.623,16.650 C45.687,16.398 45.749,16.146 45.811,15.894 C46.138,14.553 46.469,13.213 46.788,11.870 C46.820,11.735 46.995,11.482 46.661,11.487 C46.270,11.493 45.510,12.191 45.416,12.575 C45.137,13.727 44.859,14.879 44.576,16.030 C44.383,16.819 44.386,16.746 45.371,16.948 ZM39.707,15.436 C39.377,15.618 39.074,15.801 38.756,15.955 C38.513,16.072 38.393,16.254 38.333,16.508 C38.029,17.790 37.727,19.071 37.402,20.348 C37.318,20.677 37.372,20.854 37.730,20.872 C38.038,20.887 38.418,21.224 38.558,20.599 C38.886,19.140 39.263,17.693 39.606,16.237 C39.663,15.994 39.786,15.751 39.707,15.436 ZM12.161,13.999 C12.013,13.328 11.890,12.756 11.760,12.185 C11.519,11.132 11.517,11.133 10.562,11.680 C9.532,12.270 9.541,12.267 9.856,13.435 C9.926,13.693 10.052,13.831 10.302,13.877 C10.812,13.974 11.322,14.071 11.832,14.168 C12.049,14.209 12.195,14.170 12.161,13.999 Z"/>
</svg>