<svg xmlns="http://www.w3.org/2000/svg" xmlns:xlink="http://www.w3.org/1999/xlink" width="38px" height="30px">
<path d="M37.371,10.885 C31.360,17.032 25.356,23.187 19.360,29.350 C18.918,29.805 18.434,30.003 17.816,29.999 C15.111,29.984 12.406,29.993 9.702,29.993 C7.011,29.993 4.319,29.992 1.628,29.993 C1.386,29.993 1.145,29.994 0.908,29.925 C0.349,29.762 0.007,29.347 0.005,28.753 C-0.003,25.815 0.002,22.877 0.001,19.939 C0.001,19.569 0.163,19.279 0.410,19.026 C0.971,18.450 1.532,17.874 2.094,17.299 C7.498,11.758 12.906,6.221 18.301,0.672 C18.753,0.208 19.242,-0.000 19.877,0.001 C25.354,0.014 30.831,0.008 36.307,0.009 C37.539,0.009 37.992,0.472 37.992,1.727 C37.993,4.265 37.985,6.803 37.999,9.341 C38.002,9.962 37.802,10.444 37.371,10.885 ZM16.973,21.639 C16.975,21.359 16.836,21.287 16.596,21.290 C16.099,21.296 15.603,21.284 15.106,21.293 C14.724,21.299 14.338,21.249 13.875,21.343 C15.049,22.349 16.129,23.353 16.936,24.631 C16.970,23.618 16.966,22.629 16.973,21.639 ZM15.948,27.173 C16.100,27.495 16.375,27.432 16.614,27.392 C16.894,27.345 16.742,27.102 16.730,26.951 C16.660,26.088 16.318,25.326 15.826,24.641 C14.899,23.349 13.739,22.312 12.430,21.442 C12.238,21.314 12.035,21.289 11.816,21.290 C10.781,21.292 9.745,21.290 8.710,21.290 C8.311,21.290 7.912,21.290 7.512,21.290 C7.506,21.324 7.499,21.358 7.492,21.392 C7.547,21.428 7.599,21.469 7.657,21.501 C8.355,21.895 9.124,22.006 9.901,22.103 C10.950,22.235 11.955,22.514 12.344,23.677 C12.582,24.387 13.026,24.797 13.672,25.058 C14.305,25.314 14.866,25.686 15.319,26.216 C15.569,26.509 15.784,26.825 15.948,27.173 ZM11.062,27.410 C11.405,27.410 11.755,27.403 12.105,27.412 C12.429,27.421 12.398,27.276 12.268,27.065 C12.020,26.662 11.612,26.554 11.203,26.466 C10.532,26.320 10.002,25.995 9.708,25.333 C9.620,25.135 9.476,24.972 9.273,24.928 C8.291,24.714 7.445,24.221 6.560,23.749 C5.405,23.132 4.113,22.904 2.835,23.584 C2.612,23.702 2.400,23.776 2.485,24.074 C2.569,24.370 2.818,24.247 2.995,24.220 C3.787,24.096 4.551,24.163 5.279,24.523 C5.513,24.639 5.764,24.731 6.014,24.727 C6.969,24.713 7.610,25.182 8.160,25.956 C8.858,26.937 9.739,27.663 11.062,27.410 ZM2.784,27.408 C3.105,27.411 3.426,27.409 3.747,27.409 C3.747,27.410 3.747,27.411 3.747,27.411 C4.001,27.411 4.256,27.422 4.509,27.408 C4.673,27.399 4.944,27.498 4.976,27.330 C5.019,27.109 4.777,26.966 4.582,26.872 C4.476,26.821 4.353,26.788 4.237,26.782 C3.742,26.757 3.249,26.769 2.758,26.857 C2.569,26.892 2.465,26.966 2.475,27.174 C2.486,27.385 2.628,27.407 2.784,27.408 ZM2.468,25.724 C2.497,26.105 2.744,25.913 2.915,25.912 C3.049,25.912 3.184,25.903 3.316,25.882 C4.475,25.699 5.425,25.971 5.963,27.149 C6.029,27.294 6.121,27.405 6.295,27.405 C6.909,27.405 7.522,27.405 8.252,27.405 C7.813,26.941 7.449,26.576 7.161,26.144 C6.975,25.865 6.717,25.731 6.388,25.684 C5.914,25.616 5.422,25.622 4.980,25.380 C4.302,25.010 3.577,25.092 2.853,25.150 C2.479,25.181 2.445,25.418 2.468,25.724 ZM3.472,21.291 C2.312,21.304 2.491,21.130 2.463,22.318 C2.454,22.680 2.547,22.753 2.874,22.604 C4.461,21.880 5.953,22.375 7.343,23.140 C7.940,23.468 8.501,23.793 9.167,23.935 C9.661,24.040 10.155,24.234 10.384,24.732 C10.637,25.282 11.049,25.524 11.594,25.634 C12.411,25.798 12.971,26.284 13.256,27.092 C13.313,27.253 13.383,27.403 13.584,27.404 C13.987,27.406 14.390,27.411 14.793,27.406 C15.008,27.404 15.010,27.286 14.907,27.139 C14.829,27.027 14.740,26.924 14.654,26.818 C14.207,26.267 13.578,26.005 12.969,25.717 C12.285,25.393 11.799,24.898 11.586,24.144 C11.432,23.597 11.038,23.301 10.537,23.157 C10.203,23.060 9.854,23.010 9.508,22.973 C8.516,22.867 7.526,22.662 6.770,21.990 C6.050,21.350 5.280,21.199 4.399,21.288 C4.346,21.294 4.292,21.289 4.238,21.289 C4.238,21.290 4.238,21.290 4.238,21.291 C3.983,21.291 3.727,21.288 3.472,21.291 ZM32.953,2.592 C31.944,2.588 30.935,2.605 29.926,2.585 C29.245,2.571 28.568,2.509 28.136,3.216 C28.116,3.248 28.075,3.270 28.039,3.289 C27.736,3.454 27.382,3.288 27.400,2.941 C27.419,2.569 27.231,2.587 26.987,2.587 C24.794,2.591 22.600,2.595 20.406,2.584 C20.086,2.583 19.853,2.680 19.625,2.914 C14.615,8.060 9.599,13.200 4.586,18.343 C4.496,18.435 4.365,18.502 4.343,18.711 C4.926,18.711 5.499,18.702 6.071,18.716 C6.347,18.722 6.557,18.638 6.750,18.431 C7.187,17.963 7.637,17.507 8.091,17.055 C8.392,16.755 8.663,16.723 8.860,16.953 C9.114,17.251 8.951,17.494 8.731,17.703 C8.427,17.991 8.108,18.262 7.795,18.541 C7.833,18.598 7.872,18.655 7.910,18.712 C8.043,18.712 8.175,18.712 8.307,18.712 C11.295,18.712 14.283,18.707 17.270,18.719 C17.609,18.720 17.845,18.608 18.082,18.365 C23.081,13.228 28.089,8.098 33.093,2.965 C33.184,2.872 33.310,2.802 33.339,2.649 C33.220,2.546 33.081,2.593 32.953,2.592 ZM35.422,4.195 C34.404,5.233 33.433,6.222 32.463,7.212 C32.380,7.297 32.355,7.399 32.391,7.516 C32.470,7.766 32.341,7.938 32.182,8.100 C31.953,8.333 31.723,8.566 31.498,8.803 C31.296,9.015 31.101,9.222 30.766,9.104 C30.630,9.057 30.543,9.175 30.459,9.261 C28.651,11.113 26.844,12.966 25.037,14.819 C24.930,14.928 24.866,15.033 24.883,15.215 C24.923,15.661 24.188,16.441 23.750,16.409 C23.543,16.394 23.424,16.470 23.296,16.601 C22.089,17.841 20.881,19.079 19.673,20.318 C19.569,20.425 19.447,20.530 19.451,20.697 C19.464,21.322 19.494,21.947 19.496,22.600 C19.918,22.232 20.285,21.835 20.661,21.447 C20.951,21.149 21.250,21.100 21.426,21.327 C21.652,21.621 21.510,21.861 21.289,22.085 C20.753,22.628 20.223,23.177 19.690,23.723 C19.567,23.850 19.437,23.970 19.443,24.176 C19.457,24.635 19.532,25.092 19.424,25.613 C19.539,25.537 19.576,25.522 19.602,25.494 C24.825,20.142 30.047,14.789 35.270,9.436 C35.376,9.327 35.471,9.214 35.471,9.047 C35.470,8.207 35.471,7.368 35.471,6.491 C35.247,6.536 35.176,6.684 35.067,6.778 C34.841,6.974 34.608,7.030 34.391,6.789 C34.187,6.562 34.253,6.334 34.449,6.131 C34.696,5.877 34.929,5.606 35.194,5.375 C35.566,5.051 35.496,4.666 35.422,4.195 ZM28.819,15.131 C28.779,15.162 28.719,15.165 28.696,15.173 C28.369,15.184 28.107,14.844 28.254,14.584 C28.496,14.155 28.844,13.806 29.263,13.552 C29.434,13.450 29.604,13.550 29.726,13.694 C29.840,13.829 29.887,14.000 29.780,14.150 C29.510,14.526 29.188,14.855 28.819,15.131 ZM21.988,9.113 C21.958,9.135 21.910,9.131 21.879,9.137 C21.693,9.137 21.561,9.056 21.473,8.901 C21.383,8.741 21.384,8.566 21.502,8.437 C21.814,8.096 22.134,7.761 22.472,7.449 C22.625,7.307 22.829,7.332 22.993,7.470 C23.144,7.597 23.212,7.797 23.112,7.952 C22.816,8.413 22.428,8.793 21.988,9.113 ZM16.239,10.851 C16.019,11.077 15.772,11.219 15.506,10.953 C15.232,10.677 15.396,10.433 15.614,10.210 C16.478,9.327 17.341,8.443 18.203,7.557 C18.370,7.386 18.557,7.304 18.783,7.405 C18.946,7.478 19.018,7.622 19.021,7.802 C19.020,7.984 18.915,8.108 18.800,8.227 C17.946,9.102 17.092,9.976 16.239,10.851 ZM17.845,13.731 C17.884,13.699 17.944,13.695 17.983,13.681 C18.171,13.689 18.303,13.770 18.391,13.924 C18.482,14.084 18.483,14.257 18.362,14.384 C17.840,14.934 17.312,15.480 16.770,16.010 C16.620,16.157 16.415,16.124 16.255,15.982 C16.098,15.843 16.016,15.643 16.150,15.470 C16.649,14.825 17.220,14.249 17.845,13.731 Z"/>
</svg>