<svg xmlns="http://www.w3.org/2000/svg" xmlns:xlink="http://www.w3.org/1999/xlink" width="23px" height="27px">
    <path d="M22.975,21.272 C22.981,21.826 22.987,22.388 22.848,22.925 C22.629,23.774 21.961,24.378 21.221,24.817 C20.362,25.327 19.454,25.728 18.492,26.003 C14.500,27.143 10.460,27.242 6.395,26.463 C4.417,26.083 1.013,25.325 0.273,23.169 C0.041,22.493 0.029,21.766 0.020,21.052 C0.019,21.035 0.019,21.017 0.019,20.999 C-0.053,15.593 0.104,10.168 0.068,4.745 C0.061,3.793 0.457,3.101 1.158,2.522 C2.104,1.741 3.219,1.284 4.383,0.933 C5.886,0.481 7.420,0.189 8.989,0.076 C9.093,0.068 9.194,0.026 9.296,-0.000 L13.785,-0.000 C15.011,0.196 16.251,0.310 17.460,0.612 C18.777,0.942 20.058,1.351 21.223,2.061 C22.422,2.791 23.020,3.777 23.000,5.230 C23.000,10.579 22.915,15.925 22.975,21.272 ZM20.161,3.887 C19.685,3.538 19.138,3.328 18.572,3.160 C16.283,2.478 13.933,2.297 11.371,2.318 C9.523,2.281 7.504,2.430 5.517,2.874 C4.580,3.082 3.633,3.297 2.853,3.893 C2.311,4.307 2.340,4.739 2.905,5.119 C3.424,5.468 3.999,5.710 4.606,5.860 C9.141,6.980 13.683,6.960 18.226,5.914 C18.920,5.754 19.594,5.512 20.169,5.078 C20.699,4.679 20.697,4.278 20.161,3.887 ZM20.174,7.471 C19.028,7.963 17.835,8.307 16.606,8.540 C13.860,9.061 11.098,9.181 8.323,8.842 C6.500,8.619 4.702,8.274 3.006,7.539 C2.461,7.302 2.462,7.299 2.462,7.886 C2.463,10.268 2.462,12.650 2.462,15.032 L2.459,15.032 C2.459,17.240 2.460,19.447 2.459,21.653 C2.459,22.813 2.586,22.999 3.678,23.455 C5.138,24.065 6.685,24.322 8.245,24.459 C10.929,24.695 13.613,24.680 16.284,24.261 C17.432,24.081 18.556,23.819 19.611,23.334 C20.118,23.100 20.595,22.812 20.595,22.151 C20.595,17.352 20.595,12.552 20.602,7.753 C20.602,7.407 20.525,7.321 20.174,7.471 ZM17.225,19.136 C15.802,19.146 16.016,19.199 16.014,17.968 C16.011,16.626 15.862,16.818 17.210,16.790 C18.498,16.822 18.403,16.594 18.396,17.979 C18.390,19.246 18.553,19.127 17.225,19.136 ZM14.964,14.626 C13.636,14.619 13.758,14.823 13.759,13.408 C13.772,12.163 13.615,12.291 14.899,12.283 C16.325,12.273 16.127,12.180 16.139,13.476 C16.151,14.788 16.226,14.634 14.964,14.626 ZM12.669,19.135 C11.413,19.126 11.412,19.333 11.429,17.928 C11.443,16.639 11.338,16.800 12.562,16.796 C14.037,16.790 13.775,16.665 13.814,18.011 C13.788,19.215 13.986,19.144 12.669,19.135 Z"/>
</svg>