<svg  xmlns="http://www.w3.org/2000/svg" xmlns:xlink="http://www.w3.org/1999/xlink" width="35px" height="21px">
<path d="M34.999,3.355 C35.005,3.704 34.909,3.890 34.546,3.869 C34.114,3.844 34.166,4.166 34.166,4.444 C34.165,8.180 34.166,11.915 34.165,15.650 C34.165,18.333 32.420,20.129 29.808,20.132 C27.989,20.135 26.171,20.133 24.353,20.133 C22.489,20.133 20.626,20.139 18.762,20.128 C18.380,20.125 18.093,20.155 18.151,20.664 C18.177,20.894 18.045,20.999 17.819,20.999 C16.774,20.996 15.728,20.996 14.683,20.997 C14.477,20.997 14.377,20.897 14.380,20.685 C14.381,20.576 14.376,20.467 14.376,20.358 C14.375,17.401 14.386,14.444 14.365,11.487 C14.362,11.005 14.519,10.865 14.963,10.877 C15.857,10.902 16.751,10.891 17.645,10.881 C17.995,10.877 18.202,10.987 18.160,11.389 C18.128,11.689 18.266,11.802 18.558,11.801 C20.906,11.795 23.254,11.795 25.603,11.803 C25.920,11.804 26.023,11.677 26.021,11.359 C26.013,9.009 26.012,6.659 26.021,4.309 C26.022,3.988 25.912,3.837 25.599,3.869 C25.155,3.914 25.023,3.695 25.034,3.262 C25.057,2.360 25.053,1.457 25.037,0.555 C25.031,0.172 25.131,-0.003 25.548,-0.001 C28.533,0.014 31.518,0.012 34.502,0.001 C34.875,-0.001 35.009,0.120 35.000,0.508 C34.980,1.457 34.982,2.406 34.999,3.355 ZM20.202,10.129 C19.263,10.116 18.323,10.116 17.384,10.128 C17.028,10.133 16.827,10.015 16.869,9.621 C16.912,9.217 16.714,9.127 16.356,9.129 C14.084,9.141 11.811,9.143 9.539,9.127 C9.152,9.125 9.050,9.269 9.052,9.643 C9.064,11.962 9.064,14.281 9.052,16.599 C9.050,16.970 9.145,17.163 9.535,17.118 C9.855,17.081 9.961,17.258 9.959,17.565 C9.953,18.545 9.949,19.526 9.962,20.506 C9.967,20.870 9.825,20.996 9.475,20.993 C7.976,20.981 6.476,20.988 4.976,20.988 C3.491,20.988 2.006,20.978 0.522,20.995 C0.127,21.000 -0.011,20.865 -0.001,20.456 C0.022,19.522 0.016,18.588 0.001,17.655 C-0.004,17.304 0.061,17.075 0.468,17.112 C0.894,17.151 0.862,16.834 0.862,16.549 C0.862,13.701 0.853,10.854 0.865,8.006 C0.869,6.886 0.812,5.766 0.911,4.647 C1.098,2.509 2.825,0.865 4.938,0.859 C8.680,0.848 12.422,0.852 16.164,0.860 C16.576,0.861 16.936,0.876 16.888,0.282 C16.870,0.065 17.038,0.007 17.229,0.007 C18.259,0.010 19.289,0.015 20.319,0.006 C20.716,0.002 20.699,0.271 20.699,0.543 C20.699,2.442 20.699,4.340 20.699,6.238 C20.699,7.359 20.689,8.480 20.704,9.600 C20.709,9.980 20.573,10.134 20.202,10.129 Z"/>
</svg>