<svg  xmlns="http://www.w3.org/2000/svg" xmlns:xlink="http://www.w3.org/1999/xlink" width="28px" height="31px">
<path d="M26.159,26.932 C24.656,26.900 23.150,26.887 21.648,26.935 C20.991,26.956 20.861,26.695 20.866,26.082 C20.892,23.269 20.878,20.457 20.878,17.645 C20.877,17.645 20.875,17.645 20.874,17.645 C20.874,14.832 20.889,12.020 20.863,9.208 C20.857,8.591 21.047,8.394 21.639,8.408 C23.163,8.444 24.688,8.436 26.212,8.412 C26.712,8.404 26.899,8.565 26.898,9.101 C26.885,14.790 26.884,20.479 26.902,26.167 C26.903,26.753 26.721,26.944 26.159,26.932 ZM24.766,14.459 C24.611,14.085 24.373,13.736 23.915,13.725 C23.426,13.713 23.197,14.083 22.999,14.466 C22.569,15.297 22.537,16.219 22.447,17.086 C22.496,17.614 22.519,18.104 22.593,18.585 C22.665,19.047 22.797,19.499 23.022,19.911 C23.218,20.271 23.450,20.644 23.886,20.642 C24.320,20.639 24.546,20.260 24.751,19.907 C24.783,19.853 24.814,19.796 24.835,19.737 C25.460,17.969 25.491,16.204 24.766,14.459 ZM25.468,7.478 C24.933,7.490 24.399,7.480 23.864,7.480 C23.864,7.479 23.864,7.478 23.864,7.478 C23.041,7.478 22.219,7.470 21.396,7.481 C21.035,7.486 20.861,7.341 20.877,6.956 C20.889,6.680 20.892,6.403 20.873,6.127 C20.841,5.638 20.923,5.290 21.522,5.341 C21.888,5.372 21.917,5.027 21.981,4.768 C22.220,3.800 22.464,2.833 22.673,1.858 C22.771,1.397 22.997,1.234 23.445,1.251 C25.185,1.319 24.855,0.960 25.287,2.713 C25.460,3.414 25.634,4.114 25.792,4.817 C25.871,5.170 26.014,5.401 26.412,5.359 C26.807,5.317 26.894,5.562 26.891,5.913 C26.874,7.799 27.075,7.442 25.468,7.478 ZM19.322,26.927 C17.756,26.907 16.190,26.898 14.625,26.931 C14.055,26.943 13.938,26.700 13.942,26.172 C13.960,23.317 13.950,20.462 13.950,17.607 C13.951,17.607 13.952,17.607 13.953,17.607 C13.953,14.795 13.967,11.982 13.942,9.170 C13.936,8.574 14.129,8.401 14.687,8.413 C16.231,8.444 17.777,8.435 19.321,8.415 C19.793,8.409 19.974,8.564 19.973,9.075 C19.960,14.806 19.960,20.537 19.973,26.268 C19.974,26.779 19.795,26.933 19.322,26.927 ZM17.865,14.516 C17.700,14.094 17.435,13.676 16.947,13.680 C16.493,13.684 16.255,14.094 16.058,14.477 C15.640,15.290 15.625,16.195 15.518,17.123 C15.602,18.011 15.626,18.955 16.046,19.813 C16.232,20.195 16.447,20.589 16.936,20.594 C17.452,20.600 17.702,20.205 17.869,19.787 C18.572,18.034 18.549,16.269 17.865,14.516 ZM18.513,7.478 C17.999,7.490 17.484,7.480 16.970,7.480 C16.147,7.479 15.324,7.469 14.501,7.484 C14.111,7.491 13.929,7.337 13.952,6.923 C13.967,6.647 13.965,6.369 13.946,6.093 C13.915,5.625 14.004,5.291 14.567,5.343 C14.940,5.378 14.979,5.057 15.045,4.794 C15.284,3.826 15.531,2.859 15.743,1.885 C15.839,1.442 16.019,1.239 16.490,1.252 C18.349,1.308 17.920,1.001 18.368,2.744 C18.547,3.443 18.713,4.145 18.875,4.848 C18.951,5.175 19.088,5.392 19.458,5.354 C19.827,5.316 19.970,5.508 19.966,5.884 C19.948,7.824 20.169,7.439 18.513,7.478 ZM12.273,26.932 C10.750,26.896 9.225,26.904 7.701,26.928 C7.196,26.937 7.017,26.764 7.019,26.235 C7.032,20.504 7.032,14.774 7.023,9.043 C7.022,8.567 7.195,8.413 7.641,8.418 C9.207,8.435 10.773,8.451 12.337,8.411 C12.944,8.395 13.055,8.662 13.052,9.205 C13.035,12.038 13.044,14.872 13.044,17.705 C13.043,17.705 13.042,17.705 13.041,17.705 C13.041,20.517 13.025,23.329 13.053,26.141 C13.059,26.765 12.859,26.945 12.273,26.932 ZM10.889,14.400 C10.689,14.046 10.462,13.665 10.022,13.677 C9.591,13.688 9.325,14.045 9.169,14.422 C8.416,16.228 8.420,18.050 9.150,19.861 C9.310,20.260 9.591,20.642 10.046,20.638 C10.504,20.635 10.749,20.230 10.932,19.843 C11.328,19.004 11.382,18.086 11.482,17.157 C11.355,16.234 11.375,15.259 10.889,14.400 ZM11.578,7.479 C11.064,7.488 10.550,7.480 10.036,7.480 C10.036,7.481 10.036,7.482 10.036,7.483 C9.233,7.483 8.431,7.465 7.629,7.490 C7.171,7.504 6.994,7.314 7.025,6.851 C7.047,6.534 7.040,6.213 7.027,5.895 C7.011,5.526 7.144,5.315 7.523,5.357 C7.932,5.403 8.049,5.141 8.129,4.800 C8.362,3.809 8.624,2.824 8.838,1.828 C8.933,1.387 9.147,1.245 9.567,1.256 C11.424,1.305 10.984,0.984 11.443,2.745 C11.625,3.442 11.787,4.146 11.952,4.848 C12.028,5.173 12.174,5.390 12.540,5.356 C12.914,5.322 13.044,5.520 13.042,5.892 C13.033,7.804 13.227,7.451 11.578,7.479 ZM5.444,26.929 C3.920,26.905 2.395,26.901 0.872,26.935 C0.290,26.947 0.085,26.767 0.091,26.141 C0.120,23.308 0.104,20.474 0.104,17.640 C0.104,14.828 0.119,12.015 0.092,9.203 C0.085,8.580 0.285,8.398 0.871,8.412 C2.395,8.448 3.920,8.439 5.444,8.416 C5.944,8.408 6.129,8.572 6.127,9.108 C6.113,14.818 6.111,20.528 6.125,26.238 C6.126,26.772 5.948,26.937 5.444,26.929 ZM3.958,14.396 C3.802,14.027 3.529,13.661 3.090,13.677 C2.662,13.693 2.427,14.063 2.235,14.426 C1.788,15.274 1.792,16.225 1.653,17.177 C1.798,18.089 1.779,19.066 2.254,19.927 C2.774,20.869 3.503,20.909 3.940,19.943 C4.766,18.117 4.739,16.241 3.958,14.396 ZM4.651,7.480 C4.137,7.491 3.623,7.482 3.108,7.482 C3.108,7.481 3.108,7.480 3.108,7.479 C2.306,7.479 1.504,7.461 0.702,7.486 C0.242,7.501 0.066,7.312 0.101,6.849 C0.122,6.574 0.118,6.296 0.101,6.020 C0.076,5.595 0.171,5.300 0.666,5.353 C1.064,5.395 1.132,5.090 1.204,4.794 C1.438,3.825 1.687,2.859 1.898,1.884 C1.994,1.440 2.180,1.241 2.647,1.254 C4.485,1.303 4.054,0.984 4.525,2.751 C4.710,3.447 4.872,4.151 5.034,4.854 C5.109,5.182 5.247,5.396 5.616,5.358 C5.992,5.319 6.120,5.524 6.118,5.893 C6.106,7.803 6.301,7.444 4.651,7.480 ZM1.504,27.867 C2.821,27.849 4.138,27.880 5.455,27.853 C5.969,27.843 6.133,28.040 6.124,28.560 C6.096,30.221 6.280,29.974 4.745,29.989 C4.189,29.994 3.634,29.990 3.078,29.990 C3.078,29.991 3.078,29.991 3.078,29.992 C2.296,29.992 1.513,29.977 0.732,29.998 C0.300,30.010 0.090,29.880 0.098,29.388 C0.129,27.570 -0.085,27.888 1.504,27.867 ZM8.430,27.866 C9.726,27.854 11.023,27.880 12.320,27.852 C12.833,27.840 13.066,27.973 13.050,28.560 C13.004,30.238 13.223,29.963 11.672,29.988 C11.117,29.997 10.561,29.990 10.005,29.989 C9.203,29.989 8.399,29.975 7.597,29.995 C7.167,30.006 7.020,29.822 7.024,29.389 C7.040,27.589 6.856,27.880 8.430,27.866 ZM15.356,27.865 C16.672,27.847 17.990,27.882 19.306,27.855 C19.823,27.844 19.985,28.041 19.973,28.559 C19.935,30.234 20.140,29.962 18.595,29.988 C18.039,29.997 17.484,29.990 16.928,29.989 C16.146,29.989 15.364,29.974 14.583,29.995 C14.154,30.006 13.939,29.882 13.946,29.388 C13.972,27.581 13.783,27.886 15.356,27.865 ZM22.309,27.865 C23.626,27.840 24.943,27.879 26.260,27.856 C26.748,27.847 26.913,28.031 26.900,28.526 C26.854,30.256 27.081,29.953 25.490,29.991 C24.955,30.004 24.420,29.993 23.885,29.993 C23.885,29.991 23.885,29.989 23.885,29.987 C23.062,29.987 22.238,29.977 21.416,29.992 C21.018,29.999 20.865,29.829 20.872,29.423 C20.905,27.535 20.681,27.896 22.309,27.865 Z"/>
</svg>