<svg  xmlns="http://www.w3.org/2000/svg" xmlns:xlink="http://www.w3.org/1999/xlink" width="31px" height="32px">
<path d="M31.000,13.964 C31.000,19.916 31.000,25.868 31.000,31.819 C30.660,32.051 30.272,31.992 29.897,31.992 C20.360,31.994 10.823,31.994 1.286,31.993 C1.118,31.993 0.949,31.986 0.781,31.992 C0.278,32.011 0.041,31.751 0.029,31.272 C0.017,30.770 0.018,30.267 0.017,29.764 C0.015,28.258 0.016,28.238 1.510,28.259 C2.071,28.267 2.299,28.114 2.293,27.516 C2.266,24.961 2.283,22.405 2.279,19.849 C2.278,19.020 2.271,19.020 1.562,19.426 C0.914,19.798 0.692,19.739 0.288,19.085 C-0.147,18.379 -0.107,18.170 0.544,17.750 C0.668,17.670 0.795,17.595 0.920,17.518 C7.732,13.346 14.543,9.173 21.354,5.000 C23.953,3.407 26.550,1.811 29.152,0.224 C29.746,-0.138 29.936,-0.074 30.325,0.536 C30.798,1.278 30.780,1.517 30.192,1.899 C29.787,2.162 29.376,2.420 28.948,2.645 C28.529,2.866 28.366,3.165 28.369,3.650 C28.387,6.646 28.373,9.642 28.371,12.637 C28.371,13.690 28.384,13.692 29.476,13.712 C29.994,13.721 30.538,13.606 31.000,13.964 ZM16.123,15.691 C16.120,15.691 16.118,15.691 16.115,15.691 C16.115,17.261 16.119,18.830 16.113,20.400 C16.111,20.847 16.352,20.970 16.753,20.973 C17.164,20.976 17.316,20.787 17.309,20.396 C17.297,19.831 17.305,19.266 17.309,18.701 C17.318,17.688 17.649,17.351 18.677,17.341 C19.960,17.328 21.243,17.320 22.526,17.330 C22.986,17.334 23.166,17.145 23.164,16.693 C23.162,16.045 23.194,15.396 23.222,14.748 C23.248,14.121 23.606,13.791 24.214,13.741 C24.654,13.705 25.097,13.717 25.538,13.704 C26.352,13.680 26.400,13.638 26.401,12.841 C26.405,10.204 26.404,7.567 26.400,4.929 C26.400,4.748 26.487,4.505 26.318,4.397 C26.102,4.260 25.935,4.500 25.769,4.602 C22.723,6.464 19.684,8.340 16.635,10.196 C16.267,10.420 16.111,10.681 16.116,11.107 C16.133,12.635 16.123,14.163 16.123,15.691 ZM4.259,22.930 C4.260,22.930 4.261,22.930 4.261,22.930 C4.261,24.459 4.264,25.987 4.260,27.516 C4.258,27.922 4.273,28.259 4.842,28.263 C5.438,28.267 5.471,27.919 5.466,27.483 C5.459,26.918 5.447,26.351 5.478,25.788 C5.524,24.958 5.880,24.627 6.720,24.616 C7.772,24.602 8.824,24.610 9.876,24.607 C11.585,24.602 11.362,24.798 11.375,23.091 C11.390,21.066 11.409,21.036 13.454,20.977 C13.974,20.961 14.152,20.774 14.149,20.265 C14.135,17.627 14.139,14.988 14.150,12.350 C14.152,11.898 14.049,11.766 13.618,12.032 C10.670,13.856 7.718,15.674 4.760,17.482 C4.394,17.706 4.248,17.984 4.253,18.407 C4.269,19.915 4.259,21.423 4.259,22.930 Z"/>
</svg>