<svg  xmlns="http://www.w3.org/2000/svg" xmlns:xlink="http://www.w3.org/1999/xlink" width="28px" height="41px">
<path d="M27.999,20.500 C27.998,26.730 27.999,32.961 27.998,39.191 C27.998,40.449 27.456,40.999 26.218,40.999 C18.013,41.000 9.809,41.000 1.605,41.000 C0.520,41.000 0.002,40.475 0.001,39.363 C-0.000,28.839 -0.000,18.314 0.001,7.789 C0.001,6.703 0.513,6.188 1.580,6.187 C3.023,6.186 4.467,6.173 5.910,6.197 C6.333,6.204 6.442,6.059 6.436,5.647 C6.414,4.279 6.426,2.910 6.428,1.542 C6.430,0.574 6.963,0.004 7.906,0.003 C14.094,-0.002 20.283,-0.003 26.472,0.003 C27.486,0.004 27.998,0.565 27.998,1.634 C28.000,7.923 27.999,14.211 27.999,20.500 ZM18.907,36.354 C19.010,35.836 18.945,35.471 18.522,35.138 C17.596,34.408 16.757,33.560 15.814,32.857 C14.266,31.702 13.277,30.256 13.103,28.268 C13.045,27.606 12.742,27.008 12.301,26.510 C10.938,24.971 10.475,23.094 10.284,21.102 C10.121,19.396 9.985,17.688 9.620,16.005 C9.128,13.732 8.636,11.454 8.866,9.097 C8.883,8.918 8.803,8.876 8.649,8.857 C8.291,8.813 8.159,8.959 8.190,9.324 C8.326,10.917 8.442,12.512 8.658,14.096 C8.949,16.226 9.255,18.355 9.566,20.482 C9.841,22.366 10.061,24.259 10.820,26.033 C11.305,27.168 11.479,28.373 11.458,29.613 C11.436,30.923 11.428,32.235 11.463,33.544 C11.487,34.406 11.293,35.181 10.857,35.912 C10.385,36.702 10.181,37.577 10.174,38.494 C10.169,39.083 10.339,39.204 10.905,39.141 C11.149,39.114 11.239,38.944 11.335,38.766 C11.914,37.693 12.262,36.549 12.351,35.325 C12.423,34.330 13.226,33.912 14.063,34.435 C14.184,34.511 14.306,34.596 14.402,34.700 C14.718,35.041 15.123,35.114 15.544,35.071 C16.421,34.981 17.216,35.197 17.948,35.676 C18.259,35.880 18.557,36.106 18.907,36.354 ZM18.949,34.262 C18.949,33.435 18.929,32.753 18.957,32.072 C18.973,31.704 18.832,31.492 18.544,31.291 C15.754,29.351 14.118,26.629 13.471,23.293 C13.156,21.666 12.938,20.023 12.236,18.501 C12.116,18.242 12.070,17.946 12.005,17.663 C11.656,16.127 11.749,14.567 11.761,13.012 C11.769,11.848 11.815,10.685 11.659,9.526 C11.569,8.860 11.577,8.859 10.935,8.859 C10.692,8.859 10.449,8.870 10.206,8.856 C9.940,8.840 9.840,8.944 9.803,9.223 C9.620,10.585 9.774,11.929 10.045,13.254 C10.606,16.003 11.069,18.762 11.295,21.565 C11.424,23.157 11.916,24.636 12.997,25.862 C13.647,26.599 13.986,27.493 14.108,28.466 C14.267,29.735 14.761,30.793 15.797,31.577 C16.460,32.081 17.073,32.653 17.708,33.196 C18.088,33.521 18.467,33.848 18.949,34.262 ZM12.709,13.424 C12.709,13.846 12.720,14.268 12.707,14.690 C12.655,16.328 12.884,17.907 13.584,19.402 C13.817,19.902 13.933,20.447 14.028,20.993 C14.283,22.452 14.453,23.928 15.019,25.315 C15.801,27.236 16.933,28.884 18.579,30.141 C18.668,30.208 18.756,30.342 18.868,30.294 C19.016,30.232 18.945,30.063 18.947,29.941 C18.953,29.257 18.926,28.572 18.958,27.890 C18.981,27.417 18.847,27.077 18.496,26.749 C17.410,25.738 16.664,24.511 16.508,22.991 C16.405,21.981 16.067,21.076 15.552,20.219 C15.321,19.835 15.143,19.420 14.999,18.991 C14.426,17.273 14.445,15.500 14.541,13.723 C14.611,12.441 14.609,11.163 14.351,9.901 C14.137,8.853 14.121,8.857 13.095,8.858 C13.038,8.858 12.980,8.865 12.924,8.857 C12.626,8.817 12.506,8.925 12.564,9.245 C12.812,10.629 12.726,12.029 12.709,13.424 ZM10.530,30.541 C10.571,28.690 10.368,27.366 9.849,26.095 C9.515,25.275 9.219,24.438 9.085,23.555 C8.713,21.114 8.334,18.674 7.990,16.229 C7.672,13.971 7.374,11.710 7.274,9.427 C7.250,8.871 7.204,8.870 6.519,8.851 C6.141,8.840 6.000,8.959 6.049,9.351 C6.244,10.937 6.438,12.523 6.607,14.111 C6.722,15.194 6.870,16.279 6.769,17.372 C6.694,18.195 6.728,19.011 6.990,19.788 C7.922,22.546 8.530,25.386 9.097,28.237 C9.378,29.649 9.640,31.064 9.295,32.512 C9.033,33.608 8.574,34.626 8.137,35.653 C7.750,36.562 7.401,37.484 7.269,38.475 C7.188,39.072 7.237,39.139 7.815,39.141 C8.144,39.142 8.474,39.123 8.801,39.145 C9.159,39.169 9.283,39.027 9.261,38.666 C9.189,37.451 9.503,36.334 10.116,35.297 C10.427,34.772 10.592,34.198 10.537,33.588 C10.432,32.410 10.484,31.235 10.530,30.541 ZM2.676,38.321 C2.568,39.181 2.558,39.145 3.404,39.140 C3.447,39.140 3.490,39.137 3.532,39.138 C3.745,39.145 3.841,39.043 3.847,38.823 C3.854,38.518 3.859,38.211 3.903,37.910 C4.095,36.615 4.572,35.409 5.122,34.243 C6.432,31.464 6.659,28.591 6.019,25.605 C5.574,23.533 4.831,21.566 4.042,19.615 C3.597,18.515 3.428,17.413 3.754,16.253 C3.980,15.450 3.981,14.656 3.696,13.856 C3.162,12.355 3.002,10.803 3.149,9.216 C3.167,9.023 3.159,8.865 2.904,8.860 C2.662,8.856 2.613,9.003 2.627,9.200 C2.679,9.956 2.633,10.712 2.635,11.467 C2.639,12.891 2.663,14.315 2.662,15.738 C2.661,17.191 2.634,18.644 2.632,20.096 C2.631,20.548 2.725,20.986 2.870,21.420 C3.637,23.720 4.428,26.013 4.972,28.383 C5.473,30.571 5.198,32.601 3.790,34.405 C3.488,34.792 3.233,35.216 2.950,35.618 C2.760,35.887 2.680,36.175 2.661,36.511 C2.624,37.138 2.633,37.761 2.676,38.321 ZM5.815,17.601 C5.895,15.326 5.554,13.417 5.358,11.496 C5.278,10.716 5.173,9.939 5.075,9.161 C5.015,8.685 4.647,8.900 4.399,8.864 C4.122,8.824 4.078,9.010 4.071,9.245 C4.030,10.720 4.073,12.181 4.596,13.588 C4.929,14.486 4.958,15.415 4.694,16.333 C4.403,17.348 4.526,18.296 4.920,19.263 C5.600,20.928 6.246,22.608 6.696,24.358 C7.290,26.676 7.563,29.009 7.077,31.390 C6.801,32.742 6.228,33.980 5.718,35.243 C5.364,36.119 5.042,37.004 4.874,37.940 C4.672,39.064 4.766,39.169 5.862,39.147 C6.190,39.140 6.334,39.014 6.336,38.686 C6.341,37.888 6.554,37.132 6.835,36.399 C7.209,35.424 7.616,34.462 8.008,33.494 C8.447,32.408 8.633,31.270 8.453,30.116 C8.033,27.430 7.464,24.773 6.728,22.157 C6.277,20.554 5.562,19.007 5.815,17.601 ZM18.950,25.806 C18.950,24.631 18.886,23.539 18.968,22.459 C19.051,21.375 18.794,20.465 18.068,19.675 C17.114,18.639 16.792,17.404 16.992,16.013 C16.994,15.999 16.993,15.984 16.994,15.970 C17.175,13.899 16.982,11.848 16.649,9.808 C16.470,8.710 16.670,8.882 15.513,8.855 C15.186,8.847 15.123,8.965 15.209,9.274 C15.490,10.276 15.540,11.315 15.518,12.343 C15.493,13.549 15.485,14.756 15.471,15.963 C15.454,17.484 15.823,18.893 16.609,20.193 C17.034,20.894 17.304,21.656 17.378,22.484 C17.490,23.748 17.978,24.834 18.950,25.806 ZM25.360,17.921 C24.251,19.723 23.362,21.524 22.700,23.442 C21.981,25.522 21.369,27.609 21.558,29.864 C21.641,30.846 21.571,31.842 21.575,32.832 C21.575,32.932 21.537,33.048 21.636,33.150 C22.089,32.378 22.468,31.595 22.701,30.751 C23.578,27.574 24.442,24.393 25.308,21.213 C25.342,21.089 25.357,20.955 25.357,20.826 C25.362,19.884 25.360,18.942 25.360,17.921 ZM21.574,17.468 C22.110,16.715 22.464,15.878 22.638,14.976 C22.844,13.908 22.976,12.824 23.202,11.761 C23.569,10.036 24.277,8.421 24.848,6.763 C25.256,5.578 25.446,4.377 25.341,3.124 C25.316,2.828 25.198,2.714 24.912,2.721 C24.413,2.732 23.913,2.724 23.413,2.723 C22.724,2.723 22.724,2.723 22.885,3.392 C23.165,4.558 23.420,5.750 23.048,6.919 C22.544,8.505 22.239,10.120 22.024,11.765 C21.929,12.496 21.640,13.207 21.594,13.937 C21.519,15.109 21.574,16.290 21.574,17.468 ZM21.573,23.667 C22.316,21.551 23.268,19.572 24.394,17.671 C24.958,16.717 25.358,15.687 25.362,14.545 C25.364,14.080 25.333,13.615 25.335,13.150 C25.343,11.712 25.362,10.274 25.372,8.836 C25.373,8.711 25.399,8.573 25.269,8.436 C24.663,10.026 24.079,11.600 23.888,13.290 C23.647,15.423 23.059,17.419 21.716,19.124 C21.610,19.258 21.572,19.401 21.572,19.567 C21.574,20.934 21.573,22.301 21.573,23.667 ZM25.368,24.836 C25.351,24.832 25.334,24.828 25.317,24.824 C25.123,25.532 24.926,26.239 24.737,26.948 C24.058,29.487 23.441,32.042 22.136,34.360 C21.704,35.129 21.557,36.027 21.570,36.932 C21.579,37.485 21.564,38.038 21.576,38.591 C21.580,38.815 21.474,39.105 21.871,39.143 C22.486,39.201 22.628,39.147 22.729,38.713 C22.918,37.905 23.136,37.102 23.497,36.358 C23.887,35.552 24.222,34.747 24.109,33.820 C24.099,33.738 24.134,33.649 24.149,33.563 C24.349,32.408 24.790,31.333 25.216,30.254 C25.290,30.065 25.370,29.880 25.369,29.668 C25.367,28.058 25.368,26.447 25.368,24.836 ZM18.950,19.202 C18.950,19.011 18.950,18.881 18.950,18.750 C18.950,15.795 18.950,12.839 18.950,9.883 C18.949,8.845 18.948,8.857 17.921,8.852 C17.566,8.850 17.447,8.920 17.527,9.321 C17.981,11.602 18.113,13.920 17.922,16.227 C17.824,17.421 18.134,18.327 18.950,19.202 ZM2.664,34.307 C3.945,32.802 4.543,31.128 4.157,29.148 C3.845,27.547 3.349,26.001 2.869,24.450 C2.834,24.336 2.847,24.185 2.664,24.098 C2.664,27.510 2.664,30.895 2.664,34.307 ZM12.997,39.141 C13.083,39.141 13.170,39.131 13.254,39.143 C13.680,39.204 13.848,39.033 13.824,38.586 C13.805,38.241 13.873,37.892 13.890,37.544 C13.941,36.524 14.401,36.221 15.329,36.621 C15.963,36.895 16.538,37.279 17.085,37.700 C17.596,38.095 18.081,38.525 18.582,38.933 C18.677,39.011 18.772,39.213 18.922,39.009 C19.037,38.853 18.932,37.714 18.794,37.580 C17.821,36.641 16.796,35.837 15.325,36.022 C14.762,36.093 14.260,35.873 13.840,35.476 C13.718,35.361 13.595,35.161 13.420,35.229 C13.250,35.295 13.280,35.529 13.263,35.694 C13.165,36.642 12.916,37.548 12.536,38.416 C12.219,39.144 12.214,39.141 12.997,39.141 ZM21.571,8.445 C22.208,6.999 22.458,5.517 22.048,3.957 C21.652,2.452 22.020,2.764 20.491,2.723 C20.121,2.713 20.112,2.866 20.277,3.137 C20.620,3.697 20.749,4.311 20.719,4.967 C20.704,5.286 20.722,5.607 20.708,5.925 C20.699,6.151 20.767,6.304 20.966,6.426 C21.393,6.689 21.572,7.100 21.571,7.601 C21.571,7.877 21.571,8.153 21.571,8.445 ZM17.698,4.026 C17.681,4.637 17.728,5.240 17.871,5.837 C17.933,6.095 18.059,6.200 18.317,6.190 C18.673,6.177 19.029,6.187 19.386,6.187 C19.550,6.187 19.687,6.170 19.735,5.957 C19.986,4.819 19.649,3.811 19.089,2.851 C19.063,2.807 19.003,2.760 18.955,2.755 C18.587,2.716 18.193,2.629 17.861,2.788 C17.578,2.924 17.741,3.287 17.703,3.548 C17.680,3.704 17.698,3.866 17.698,4.026 ZM12.985,4.049 C12.959,4.371 13.023,4.758 13.092,5.143 C13.277,6.174 13.363,6.241 14.388,6.187 C14.402,6.187 14.417,6.186 14.431,6.187 C14.648,6.206 14.714,6.107 14.651,5.900 C14.499,5.408 14.605,4.925 14.696,4.440 C14.774,4.028 14.840,3.614 14.907,3.200 C14.959,2.882 14.867,2.687 14.506,2.722 C14.408,2.732 14.307,2.723 14.208,2.723 C13.005,2.723 12.981,2.747 12.985,4.049 ZM25.278,32.916 C25.109,33.413 24.989,33.908 25.015,34.414 C25.048,35.077 24.887,35.667 24.584,36.248 C24.175,37.033 23.912,37.878 23.700,38.741 C23.630,39.027 23.682,39.152 23.987,39.142 C24.315,39.131 24.644,39.126 24.971,39.145 C25.302,39.164 25.398,39.005 25.377,38.699 C25.353,38.337 25.334,37.974 25.336,37.611 C25.344,36.176 25.362,34.741 25.372,33.306 C25.373,33.182 25.402,33.043 25.278,32.916 ZM16.352,6.188 C16.991,6.188 16.994,6.187 16.864,5.551 C16.700,4.749 16.677,3.942 16.768,3.130 C16.782,3.001 16.841,2.840 16.701,2.776 C16.475,2.674 16.220,2.693 15.988,2.755 C15.766,2.814 15.845,3.038 15.827,3.201 C15.802,3.445 15.780,3.690 15.756,3.934 C15.708,4.410 15.531,4.863 15.543,5.349 C15.560,6.054 15.681,6.188 16.352,6.188 ZM9.050,3.164 C9.050,4.048 9.055,4.933 9.048,5.816 C9.046,6.066 9.120,6.198 9.388,6.190 C9.758,6.178 10.129,6.188 10.500,6.185 C10.645,6.184 10.832,6.178 10.764,5.960 C10.536,5.221 10.440,4.409 9.752,3.904 C9.481,3.706 9.268,3.457 9.050,3.164 ZM11.081,2.723 C10.852,2.723 10.624,2.718 10.396,2.726 C10.289,2.730 10.137,2.674 10.088,2.805 C10.032,2.956 10.182,3.038 10.280,3.108 C10.925,3.566 11.253,4.228 11.461,4.972 C11.547,5.279 11.656,5.579 11.743,5.886 C11.810,6.122 11.957,6.244 12.186,6.170 C12.428,6.092 12.266,5.893 12.240,5.765 C12.067,4.908 11.903,4.051 12.090,3.178 C12.173,2.788 12.031,2.685 11.679,2.721 C11.482,2.741 11.280,2.724 11.081,2.723 ZM17.203,39.134 C16.601,38.501 15.937,38.030 15.229,37.623 C14.972,37.476 14.817,37.532 14.805,37.847 C14.792,38.181 14.792,38.514 14.788,38.848 C14.787,39.018 14.862,39.132 15.039,39.133 C15.760,39.136 16.482,39.134 17.203,39.134 Z"/>
</svg>