<svg  xmlns="http://www.w3.org/2000/svg" xmlns:xlink="http://www.w3.org/1999/xlink" width="37px" height="35px">
<path d="M37.001,24.015 C37.002,24.350 36.887,24.528 36.603,24.690 C33.095,26.699 29.594,28.722 26.091,30.739 C23.700,32.117 21.305,33.489 18.919,34.875 C18.624,35.047 18.402,35.036 18.105,34.865 C12.707,31.752 7.300,28.653 1.896,25.549 C1.380,25.253 0.871,24.941 0.348,24.656 C0.102,24.522 -0.000,24.352 0.000,24.065 C0.008,19.138 0.009,14.212 0.002,9.285 C0.001,8.963 0.115,8.793 0.399,8.657 C5.780,6.076 11.156,3.486 16.533,0.897 C17.105,0.622 17.680,0.354 18.248,0.072 C18.439,-0.023 18.607,-0.025 18.799,0.068 C20.244,0.766 21.692,1.458 23.139,2.153 C23.228,2.196 23.358,2.218 23.362,2.342 C23.367,2.470 23.228,2.483 23.151,2.544 C22.545,3.022 21.956,3.098 21.250,2.671 C20.488,2.210 19.648,1.884 18.850,1.484 C18.633,1.375 18.457,1.370 18.234,1.478 C14.040,3.509 9.842,5.532 5.643,7.555 C4.781,7.971 3.915,8.381 3.052,8.797 C2.962,8.840 2.825,8.863 2.826,8.983 C2.826,9.100 2.964,9.124 3.050,9.174 C4.183,9.829 5.317,10.482 6.451,11.135 C6.799,11.336 6.822,11.431 6.446,11.562 C5.689,11.824 5.564,12.341 5.595,13.074 C5.650,14.408 5.616,15.746 5.609,17.082 C5.608,17.326 5.658,17.497 5.883,17.632 C7.873,18.825 9.855,20.031 11.842,21.228 C12.232,21.462 12.248,21.449 12.248,20.974 C12.251,19.454 12.257,17.934 12.241,16.414 C12.237,16.051 12.390,15.878 12.672,15.671 C13.269,15.231 13.758,15.285 14.374,15.675 C15.600,16.451 16.886,17.127 18.139,17.860 C18.418,18.023 18.644,18.026 18.925,17.863 C22.221,15.954 25.522,14.052 28.823,12.151 C30.518,11.175 32.218,10.206 33.914,9.231 C34.035,9.161 34.232,9.121 34.238,8.981 C34.244,8.820 34.036,8.807 33.915,8.749 C32.541,8.083 31.163,7.424 29.786,6.762 C29.681,6.711 29.578,6.658 29.475,6.602 C29.342,6.530 29.299,6.436 29.452,6.345 C29.775,6.153 30.102,5.967 30.431,5.787 C30.560,5.717 30.680,5.791 30.798,5.848 C32.766,6.803 34.732,7.762 36.707,8.704 C36.978,8.834 36.995,9.028 36.995,9.275 C36.992,11.738 36.993,14.202 36.993,16.665 C36.993,19.115 36.987,21.565 37.001,24.015 ZM35.729,16.784 C35.729,16.784 35.728,16.784 35.728,16.784 C35.728,14.596 35.729,12.408 35.727,10.221 C35.726,9.724 35.715,9.721 35.303,9.957 C34.426,10.458 33.549,10.961 32.671,11.461 C28.113,14.060 23.558,16.662 18.992,19.246 C18.643,19.443 18.542,19.669 18.544,20.051 C18.558,22.645 18.551,25.239 18.551,27.833 C18.551,29.576 18.550,31.318 18.552,33.060 C18.553,33.465 18.594,33.486 18.937,33.295 C19.231,33.131 19.526,32.969 19.819,32.802 C24.985,29.858 30.149,26.910 35.320,23.975 C35.618,23.806 35.739,23.619 35.737,23.269 C35.722,21.107 35.729,18.946 35.729,16.784 ZM28.444,20.841 C28.172,21.219 28.183,21.244 28.639,21.357 C30.445,21.802 32.251,22.245 34.056,22.690 C34.194,22.724 34.333,22.757 34.467,22.804 C34.596,22.848 34.694,22.979 34.570,23.065 C34.160,23.349 33.743,23.631 33.324,23.768 C32.742,23.627 32.240,23.508 31.738,23.384 C30.410,23.055 29.079,22.732 27.755,22.387 C27.464,22.311 27.303,22.402 27.139,22.632 C25.278,25.225 23.408,27.812 21.546,30.405 C21.328,30.709 20.996,30.827 20.700,31.006 C20.445,31.160 20.179,31.295 19.924,31.449 C19.694,31.589 19.630,31.495 19.624,31.264 C19.619,31.055 19.696,30.887 19.815,30.722 C21.817,27.958 23.817,25.192 25.817,22.425 C25.848,22.383 25.874,22.337 25.909,22.298 C26.133,22.052 26.025,21.968 25.752,21.901 C23.882,21.447 22.015,20.981 20.148,20.518 C20.048,20.494 19.946,20.471 19.850,20.434 C19.614,20.344 19.608,20.200 19.808,20.073 C20.410,19.692 20.976,19.396 21.780,19.639 C23.347,20.115 24.960,20.435 26.551,20.835 C26.823,20.903 26.973,20.827 27.132,20.605 C28.961,18.053 30.801,15.508 32.634,12.959 C33.085,12.332 33.811,12.133 34.423,11.757 C34.564,11.670 34.631,11.786 34.647,11.923 C34.675,12.163 34.566,12.347 34.432,12.533 C32.433,15.300 30.438,18.070 28.444,20.841 ZM28.884,5.353 C24.838,7.617 20.791,9.879 16.743,12.141 C15.014,13.107 13.286,14.077 11.549,15.030 C11.254,15.192 11.165,15.396 11.170,15.721 C11.187,16.834 11.179,17.947 11.178,19.061 C11.178,19.176 11.216,19.318 11.108,19.391 C10.972,19.484 10.871,19.346 10.766,19.282 C9.557,18.552 8.356,17.809 7.138,17.094 C6.807,16.900 6.654,16.677 6.678,16.281 C6.708,15.773 6.685,15.260 6.686,14.749 C6.686,14.199 6.695,13.649 6.682,13.099 C6.675,12.817 6.771,12.639 7.023,12.504 C9.991,10.914 12.954,9.317 15.917,7.719 C18.721,6.207 21.524,4.694 24.322,3.172 C24.598,3.023 24.826,2.999 25.116,3.143 C26.368,3.762 27.633,4.358 28.892,4.964 C28.982,5.008 29.125,5.031 29.131,5.140 C29.139,5.280 28.980,5.300 28.884,5.353 Z"/>
</svg>