<svg  xmlns="http://www.w3.org/2000/svg" xmlns:xlink="http://www.w3.org/1999/xlink" width="32px" height="42px">
<path d="M27.667,19.241 C27.657,19.901 27.159,20.400 26.510,20.398 C25.815,20.397 25.318,19.849 25.319,19.084 C25.320,18.405 25.843,17.857 26.485,17.862 C27.193,17.868 27.680,18.435 27.667,19.241 ZM24.338,16.849 C23.415,15.874 22.313,15.358 20.968,15.318 C20.307,15.298 19.823,14.733 19.854,14.107 C19.889,13.417 20.442,12.998 21.511,13.014 C23.173,13.132 24.762,13.846 26.011,15.262 C26.464,15.776 26.434,16.456 25.968,16.902 C25.495,17.355 24.826,17.365 24.338,16.849 ZM30.966,23.273 C30.970,24.152 30.973,25.031 30.965,25.911 C30.957,26.734 30.529,27.177 29.700,27.179 C26.596,27.188 23.492,27.186 20.387,27.179 C19.615,27.178 19.193,26.790 19.110,26.014 C19.070,25.641 19.091,25.261 19.076,24.885 C19.004,22.997 17.493,21.514 15.598,21.471 C15.150,21.461 14.701,21.478 14.252,21.462 C13.547,21.437 13.026,20.926 13.032,20.287 C13.037,19.627 13.539,19.161 14.268,19.146 C15.544,19.119 16.820,19.092 18.005,19.696 C18.439,19.918 18.887,20.136 19.218,20.486 C19.658,20.951 20.168,21.029 20.769,21.023 C23.173,21.000 25.578,21.003 27.982,21.026 C28.500,21.030 28.656,20.860 28.656,20.345 C28.662,16.030 25.439,12.389 21.162,11.984 C18.569,11.739 15.963,11.963 13.881,11.892 C10.995,11.892 8.627,11.904 6.258,11.883 C5.784,11.879 5.637,12.025 5.649,12.497 C5.697,14.523 5.723,16.551 5.732,18.578 C5.734,19.033 5.903,19.170 6.336,19.152 C6.981,19.125 7.628,19.136 8.274,19.149 C8.991,19.163 9.508,19.660 9.505,20.305 C9.502,20.926 9.006,21.449 8.314,21.455 C5.928,21.474 3.541,21.476 1.155,21.454 C0.421,21.447 0.006,20.902 0.004,20.044 C-0.002,17.837 0.002,15.629 0.002,13.422 C0.002,12.596 -0.007,11.771 0.006,10.945 C0.020,10.042 0.472,9.587 1.371,9.574 C2.322,9.561 3.273,9.558 4.224,9.574 C4.613,9.581 4.783,9.445 4.766,9.045 C4.746,8.579 4.752,8.111 4.767,7.645 C4.779,7.278 4.628,7.133 4.257,7.138 C3.325,7.153 2.391,7.146 1.458,7.140 C0.453,7.133 0.011,6.697 0.005,5.695 C-0.004,4.331 0.001,2.967 0.003,1.603 C0.004,0.433 0.417,0.009 1.588,0.008 C5.769,0.004 9.950,0.005 14.130,0.005 C14.561,0.005 14.993,-0.010 15.422,0.016 C16.203,0.063 16.638,0.520 16.642,1.297 C16.650,2.823 16.650,4.348 16.642,5.874 C16.637,6.682 16.191,7.125 15.364,7.138 C14.377,7.152 13.390,7.152 12.403,7.137 C12.040,7.131 11.875,7.249 11.892,7.631 C11.913,8.097 11.919,8.566 11.890,9.030 C11.863,9.469 12.055,9.578 12.462,9.576 C15.009,9.564 17.557,9.567 20.105,9.571 C25.706,9.580 30.258,13.567 30.913,19.130 C31.073,20.494 30.959,21.891 30.966,23.273 ZM28.075,23.380 C27.018,23.420 25.958,23.390 24.899,23.390 C23.966,23.390 23.033,23.391 22.100,23.390 C21.236,23.389 21.263,23.386 21.359,24.229 C21.412,24.693 21.571,24.876 22.063,24.870 C24.073,24.845 26.083,24.843 28.092,24.870 C28.629,24.877 28.674,24.608 28.650,24.201 C28.626,23.805 28.767,23.354 28.075,23.380 ZM3.340,12.404 C3.341,11.997 3.192,11.881 2.802,11.881 C2.414,11.882 2.312,12.039 2.317,12.398 C2.333,13.438 2.323,14.478 2.323,15.519 C2.323,16.541 2.331,17.563 2.318,18.585 C2.314,18.938 2.359,19.159 2.804,19.156 C3.225,19.153 3.372,19.010 3.368,18.591 C3.345,16.529 3.334,14.466 3.340,12.404 ZM7.142,8.282 C7.139,9.571 7.144,9.571 8.410,9.569 C9.742,9.553 9.563,9.738 9.571,8.456 C9.579,7.144 9.574,7.138 8.288,7.144 C7.006,7.150 7.145,6.977 7.142,8.282 ZM13.764,4.826 C14.177,4.830 14.359,4.710 14.330,4.278 C14.302,3.868 14.296,3.452 14.332,3.043 C14.378,2.517 14.165,2.370 13.655,2.375 C11.326,2.397 8.997,2.384 6.668,2.384 C5.396,2.384 4.124,2.394 2.852,2.380 C2.464,2.376 2.296,2.506 2.318,2.910 C2.342,3.356 2.348,3.808 2.315,4.253 C2.281,4.714 2.476,4.831 2.908,4.826 C4.699,4.808 6.491,4.819 8.282,4.819 C10.110,4.819 11.937,4.809 13.764,4.826 ZM11.378,19.145 C12.164,19.141 12.733,19.611 12.742,20.274 C12.752,20.950 12.187,21.464 11.431,21.467 C10.637,21.470 10.089,21.007 10.076,20.324 C10.063,19.625 10.588,19.150 11.378,19.145 ZM20.300,31.921 C21.387,30.801 22.499,29.704 23.608,28.606 C24.220,28.001 24.885,27.982 25.504,28.586 C26.647,29.701 27.809,30.802 28.886,31.979 C32.073,35.460 30.329,40.889 25.731,41.876 C22.126,42.650 18.630,39.787 18.626,35.809 C18.661,34.468 19.186,33.068 20.300,31.921 ZM21.338,37.639 C21.988,38.991 23.141,39.569 24.592,39.633 C26.063,39.556 27.200,38.941 27.826,37.585 C28.444,36.249 28.326,34.930 27.364,33.805 C26.573,32.881 25.658,32.062 24.804,31.191 C24.633,31.017 24.495,30.989 24.311,31.179 C23.463,32.056 22.552,32.878 21.769,33.809 C20.804,34.956 20.687,36.287 21.338,37.639 ZM22.707,33.848 C22.896,33.732 23.100,33.676 23.266,33.684 C23.776,33.681 24.113,33.884 24.336,34.275 C24.562,34.673 24.551,35.090 24.283,35.442 C24.005,35.808 23.932,36.137 24.102,36.581 C24.283,37.054 24.003,37.605 23.549,37.854 C23.060,38.124 22.504,38.027 22.133,37.610 C21.290,36.660 21.617,34.518 22.707,33.848 Z"/>
</svg>