<svg xmlns="http://www.w3.org/2000/svg" xmlns:xlink="http://www.w3.org/1999/xlink" width="33px" height="37px">
    <path d="M32.872,21.682 C32.872,25.963 32.846,30.243 32.887,34.523 C32.900,35.824 31.883,37.001 30.390,36.995 C22.391,36.960 14.391,36.978 6.392,36.978 C4.992,36.978 4.001,35.992 4.005,34.611 C4.008,33.272 4.016,31.932 3.999,30.592 C3.995,30.246 4.111,30.136 4.453,30.150 C5.226,30.183 5.182,30.049 5.182,30.874 C5.181,32.052 5.178,33.231 5.181,34.410 C5.184,35.344 5.651,35.813 6.590,35.813 C14.513,35.815 22.437,35.815 30.360,35.813 C31.187,35.812 31.615,35.357 31.617,34.481 C31.621,32.670 31.620,30.858 31.620,29.047 C31.619,22.410 31.619,15.772 31.617,9.135 C31.617,8.438 31.487,8.316 30.784,8.316 C29.405,8.315 28.025,8.317 26.646,8.312 C25.385,8.308 24.406,7.346 24.399,6.096 C24.391,4.694 24.398,3.292 24.396,1.890 C24.395,1.386 24.176,1.167 23.667,1.167 C18.012,1.166 12.358,1.166 6.703,1.167 C6.578,1.167 6.451,1.168 6.327,1.183 C5.541,1.277 5.189,1.654 5.186,2.436 C5.178,4.322 5.182,6.207 5.181,8.093 C5.181,9.867 5.171,11.641 5.188,13.415 C5.191,13.785 5.091,13.919 4.703,13.905 C4.007,13.881 4.007,13.903 4.006,13.213 C4.006,9.553 4.006,5.893 4.005,2.233 C4.004,0.999 4.992,0.006 6.243,0.005 C12.237,0.002 18.230,0.005 24.223,-0.002 C24.497,-0.002 24.693,0.088 24.883,0.277 C26.503,1.885 28.129,3.487 29.756,5.087 C30.689,6.004 31.624,6.921 32.569,7.825 C32.785,8.032 32.875,8.247 32.874,8.544 C32.867,12.923 32.869,17.303 32.869,21.682 C32.870,21.682 32.871,21.682 32.872,21.682 ZM25.588,2.909 C25.588,3.971 25.559,5.036 25.599,6.099 C25.621,6.714 26.034,7.108 26.675,7.131 C27.738,7.170 28.803,7.142 29.777,7.142 C28.402,5.752 26.999,4.334 25.588,2.909 ZM28.071,17.377 C28.018,20.464 28.055,23.553 28.053,26.641 C28.052,28.070 27.097,29.009 25.646,29.010 C21.923,29.011 18.200,29.010 14.478,29.010 C10.730,29.010 6.982,29.012 3.234,29.009 C1.911,29.008 0.925,28.036 0.923,26.733 C0.919,23.545 0.918,20.358 0.921,17.170 C0.923,15.979 1.952,14.969 3.161,14.968 C10.657,14.966 18.153,14.981 25.648,14.954 C27.046,14.949 28.092,16.106 28.071,17.377 ZM7.262,18.640 C6.372,18.564 5.482,18.619 4.594,18.582 C4.267,18.568 4.193,18.703 4.197,18.997 C4.210,20.039 4.202,21.081 4.203,22.123 C4.203,23.190 4.206,24.257 4.200,25.324 C4.198,25.561 4.252,25.699 4.532,25.692 C5.471,25.668 6.410,25.724 7.348,25.615 C8.716,25.457 9.770,24.621 10.130,23.347 C10.228,23.003 10.295,22.642 10.310,22.286 C10.395,20.356 9.573,18.838 7.262,18.640 ZM18.379,21.643 C18.320,20.194 17.556,19.067 16.370,18.693 C15.602,18.451 14.813,18.432 14.027,18.564 C12.681,18.788 11.866,19.587 11.561,20.898 C11.355,21.784 11.366,22.673 11.610,23.548 C11.941,24.735 12.736,25.445 13.957,25.696 C14.442,25.796 14.931,25.789 15.418,25.760 C16.880,25.674 17.873,24.855 18.243,23.453 C18.358,23.018 18.408,22.576 18.380,22.127 C18.380,21.965 18.386,21.804 18.379,21.643 ZM24.884,18.846 C24.507,18.705 24.123,18.583 23.724,18.541 C22.540,18.415 21.410,18.524 20.517,19.426 C19.758,20.192 19.531,21.153 19.539,22.189 C19.534,22.550 19.559,22.907 19.624,23.263 C19.856,24.522 20.710,25.450 21.875,25.680 C22.712,25.845 23.545,25.806 24.368,25.588 C24.924,25.440 24.926,25.434 24.923,24.851 C24.922,24.653 24.910,24.453 24.926,24.256 C24.952,23.947 24.862,23.848 24.547,23.977 C24.141,24.143 23.716,24.243 23.275,24.283 C22.514,24.352 21.883,24.039 21.647,23.356 C21.343,22.472 21.347,21.574 21.778,20.717 C21.980,20.314 22.319,20.082 22.779,20.019 C23.310,19.946 23.800,20.089 24.274,20.287 C24.528,20.392 24.665,20.365 24.754,20.097 C24.847,19.814 24.956,19.535 25.080,19.265 C25.187,19.032 25.098,18.926 24.884,18.846 ZM14.990,24.242 C14.310,24.261 13.845,23.997 13.625,23.410 C13.305,22.554 13.318,21.683 13.626,20.827 C13.830,20.257 14.288,20.007 14.876,19.981 C15.474,19.954 15.937,20.251 16.193,20.792 C16.391,21.211 16.400,21.655 16.393,22.128 C16.412,22.527 16.387,22.945 16.238,23.349 C16.027,23.924 15.607,24.226 14.990,24.242 ZM6.302,24.163 C6.090,24.110 6.115,23.957 6.113,23.815 C6.109,23.257 6.111,22.699 6.111,22.141 C6.112,22.141 6.113,22.141 6.114,22.141 C6.114,21.584 6.123,21.026 6.110,20.468 C6.103,20.193 6.213,20.109 6.485,20.101 C7.761,20.064 8.331,20.600 8.341,21.872 C8.344,22.243 8.348,22.613 8.263,22.981 C8.059,23.856 7.180,24.386 6.302,24.163 Z"/>
</svg>