<svg xmlns="http://www.w3.org/2000/svg" xmlns:xlink="http://www.w3.org/1999/xlink" width="33px" height="19px">
    <path d="M33.007,14.341 C33.005,14.717 33.047,15.110 32.766,15.438 C32.699,15.516 32.741,15.692 32.730,15.823 C32.703,16.157 32.543,16.363 32.238,16.371 C31.606,16.389 30.973,16.377 30.343,16.377 C30.161,14.380 28.374,13.302 26.938,13.395 C25.538,13.485 24.403,14.614 24.021,16.435 C23.255,16.435 22.485,16.435 21.685,16.435 C21.685,12.615 21.685,8.796 21.685,4.879 C22.150,4.960 22.596,4.999 23.020,5.119 C24.369,5.502 25.504,6.289 26.605,7.148 C27.886,8.147 29.203,9.098 30.484,10.097 C31.489,10.882 32.253,11.860 32.578,13.147 C32.594,13.211 32.612,13.301 32.656,13.324 C33.086,13.552 33.009,13.970 33.007,14.341 ZM27.489,9.129 C27.395,8.947 27.257,8.785 27.120,8.631 C26.280,7.689 25.315,6.899 24.231,6.278 C23.740,5.997 23.204,5.788 22.672,5.593 C22.295,5.455 22.181,5.565 22.180,5.967 C22.177,7.102 22.185,8.238 22.176,9.374 C22.173,9.675 22.286,9.785 22.576,9.781 C23.349,9.769 24.122,9.777 24.896,9.777 L24.896,9.776 C25.647,9.776 26.399,9.785 27.151,9.769 C27.304,9.766 27.536,9.711 27.586,9.607 C27.642,9.490 27.563,9.273 27.489,9.129 ZM20.869,16.230 C17.838,16.224 14.808,16.226 11.778,16.224 C11.736,16.224 11.695,16.209 11.636,16.197 C11.434,14.564 10.031,13.468 8.729,13.410 C7.143,13.339 5.845,14.350 5.471,15.930 C5.420,16.143 5.351,16.234 5.113,16.232 C3.899,16.217 2.685,16.227 1.470,16.227 C1.010,16.227 0.820,16.101 0.806,15.655 C0.777,14.710 0.797,13.763 0.797,12.792 C7.572,12.792 14.324,12.792 21.098,12.792 C21.108,12.881 21.126,12.965 21.127,13.050 C21.129,14.010 21.124,14.970 21.132,15.929 C21.133,16.130 21.093,16.231 20.869,16.230 ZM21.107,12.213 C20.566,12.213 20.052,12.213 19.537,12.213 C13.270,12.213 7.003,12.213 0.737,12.212 C0.144,12.212 -0.000,12.063 -0.000,11.450 C-0.000,7.885 -0.000,4.320 -0.000,0.756 C-0.000,0.160 0.145,0.009 0.718,0.009 C7.243,0.009 13.768,0.010 20.293,0.010 C20.357,0.010 20.422,0.009 20.486,0.010 C20.962,0.021 21.120,0.179 21.122,0.676 C21.127,1.735 21.125,2.795 21.125,3.854 C21.125,6.525 21.126,9.196 21.125,11.867 C21.125,11.974 21.114,12.081 21.107,12.213 ZM8.508,14.219 C9.800,14.214 10.838,15.283 10.836,16.616 C10.835,17.944 9.820,18.991 8.532,18.994 C7.241,18.997 6.200,17.949 6.193,16.641 C6.185,15.316 7.229,14.224 8.508,14.219 ZM8.520,18.228 C9.391,18.226 10.086,17.505 10.084,16.605 C10.082,15.710 9.376,14.992 8.504,14.998 C7.659,15.003 6.955,15.732 6.951,16.605 C6.948,17.497 7.656,18.230 8.520,18.228 ZM8.540,15.410 C9.177,15.420 9.719,15.976 9.717,16.615 C9.715,17.281 9.169,17.817 8.504,17.806 C7.840,17.795 7.338,17.278 7.342,16.611 C7.345,15.933 7.878,15.399 8.540,15.410 ZM27.201,14.220 C28.469,14.231 29.523,15.317 29.520,16.610 C29.517,17.933 28.466,19.002 27.173,18.997 C25.899,18.991 24.855,17.919 24.855,16.614 C24.856,15.301 25.926,14.208 27.201,14.220 ZM27.205,18.231 C28.054,18.215 28.761,17.485 28.765,16.619 C28.770,15.739 28.045,14.997 27.184,14.999 C26.321,15.001 25.606,15.739 25.609,16.623 C25.613,17.499 26.355,18.248 27.205,18.231 ZM27.207,15.411 C27.855,15.425 28.376,15.964 28.372,16.617 C28.368,17.291 27.835,17.817 27.164,17.807 C26.512,17.798 25.995,17.265 25.998,16.607 C26.001,15.939 26.550,15.396 27.207,15.411 Z"/>
</svg>