<svg xmlns="http://www.w3.org/2000/svg" xmlns:xlink="http://www.w3.org/1999/xlink" width="22px" height="28px">
    <path d="M18.777,8.529 C16.972,6.658 14.629,5.525 12.139,5.259 L13.949,3.382 C14.623,2.684 14.672,1.722 14.058,1.247 C13.444,0.771 12.388,0.954 11.713,1.653 L9.895,3.538 C9.221,4.237 8.094,5.199 7.392,5.675 C7.130,5.852 6.966,6.072 6.900,6.303 C6.788,6.690 6.952,7.107 7.392,7.405 C8.093,7.881 9.220,8.842 9.894,9.542 L11.713,11.427 C12.240,11.973 12.999,12.202 13.599,12.049 C13.767,12.007 13.923,11.936 14.057,11.833 C14.647,11.376 14.624,10.474 14.028,9.784 C14.002,9.754 13.977,9.725 13.949,9.696 L12.314,8.001 C14.052,8.284 15.666,9.119 16.937,10.436 C18.524,12.081 19.397,14.267 19.397,16.592 C19.397,18.917 18.524,21.103 16.938,22.747 C16.793,22.897 16.642,23.039 16.489,23.176 C13.194,26.130 8.193,25.990 5.063,22.747 C1.790,19.353 1.790,13.830 5.064,10.435 L3.224,8.528 C2.932,8.831 2.660,9.149 2.406,9.478 C0.850,11.492 0.003,13.974 0.003,16.591 C0.002,19.637 1.147,22.501 3.224,24.654 C5.301,26.809 8.064,27.995 11.001,27.995 C13.733,27.994 16.313,26.967 18.332,25.090 C18.483,24.949 18.632,24.805 18.778,24.654 C20.856,22.501 21.999,19.638 21.999,16.592 C21.999,13.547 20.855,10.683 18.777,8.529 Z"/>
</svg>