<svg xmlns="http://www.w3.org/2000/svg" xmlns:xlink="http://www.w3.org/1999/xlink" width="27px" height="29px">
    <path d="M26.625,13.214 C22.780,13.214 18.936,13.214 15.090,13.214 C14.706,13.213 14.698,13.204 14.698,12.772 C14.697,10.710 14.697,8.648 14.697,6.586 C14.697,4.535 14.697,2.483 14.697,0.431 C14.698,0.032 14.706,0.023 15.089,0.023 C18.188,0.023 21.287,0.021 24.386,0.024 C25.930,0.026 26.989,1.150 26.993,2.806 C26.999,6.140 26.995,9.474 26.995,12.808 C26.995,13.192 26.976,13.214 26.625,13.214 ZM24.510,5.644 C24.513,5.428 24.456,5.326 24.236,5.327 C21.978,5.332 19.720,5.332 17.461,5.327 C17.248,5.326 17.177,5.414 17.180,5.637 C17.189,6.273 17.196,6.910 17.178,7.546 C17.170,7.837 17.271,7.913 17.527,7.911 C18.627,7.899 19.728,7.906 20.828,7.906 C21.938,7.906 23.048,7.897 24.158,7.912 C24.438,7.916 24.522,7.814 24.514,7.522 C24.496,6.896 24.502,6.270 24.510,5.644 ZM15.087,15.788 C18.912,15.787 22.738,15.787 26.563,15.787 C26.991,15.788 26.993,15.789 26.994,16.250 C26.995,19.604 26.999,22.958 26.993,26.312 C26.990,27.787 25.880,28.975 24.504,28.977 C21.367,28.982 18.230,28.979 15.094,28.977 C14.704,28.977 14.697,28.969 14.696,28.541 C14.695,26.490 14.696,24.438 14.696,22.387 C14.696,20.325 14.696,18.263 14.696,16.201 C14.696,15.804 14.712,15.788 15.087,15.788 ZM17.524,26.317 C18.632,26.305 19.741,26.312 20.849,26.312 C21.958,26.312 23.066,26.304 24.174,26.318 C24.444,26.321 24.520,26.222 24.513,25.945 C24.498,25.320 24.499,24.695 24.511,24.070 C24.516,23.814 24.431,23.730 24.196,23.731 C21.960,23.737 19.724,23.737 17.488,23.730 C17.245,23.730 17.175,23.831 17.179,24.078 C17.191,24.703 17.196,25.328 17.178,25.953 C17.170,26.242 17.266,26.320 17.524,26.317 ZM17.543,21.037 C18.644,21.025 19.744,21.032 20.844,21.032 C21.954,21.032 23.064,21.026 24.174,21.036 C24.414,21.038 24.519,20.968 24.513,20.689 C24.498,20.053 24.502,19.416 24.512,18.780 C24.515,18.550 24.456,18.450 24.222,18.451 C21.973,18.458 19.725,18.458 17.476,18.451 C17.249,18.451 17.176,18.538 17.180,18.776 C17.190,19.401 17.195,20.028 17.178,20.653 C17.170,20.954 17.272,21.041 17.543,21.037 ZM11.940,28.984 C8.803,28.976 5.666,28.985 2.529,28.975 C1.064,28.971 0.002,27.811 0.000,26.234 C-0.003,22.890 -0.001,19.546 -0.001,16.201 C-0.001,15.799 0.008,15.789 0.386,15.789 C2.309,15.788 4.231,15.789 6.154,15.789 C8.066,15.789 9.979,15.788 11.892,15.789 C12.288,15.790 12.296,15.798 12.296,16.218 C12.297,20.342 12.295,24.466 12.301,28.590 C12.302,28.880 12.218,28.985 11.940,28.984 ZM8.054,22.149 C8.450,21.747 8.820,21.317 9.216,20.916 C9.391,20.739 9.388,20.611 9.223,20.438 C8.786,19.980 8.353,19.517 7.929,19.046 C7.787,18.890 7.691,18.898 7.554,19.050 C7.162,19.485 6.751,19.901 6.364,20.339 C6.196,20.530 6.086,20.514 5.925,20.331 C5.551,19.907 5.151,19.508 4.776,19.085 C4.618,18.907 4.509,18.879 4.338,19.073 C3.924,19.541 3.497,19.998 3.060,20.442 C2.880,20.626 2.906,20.743 3.072,20.912 C3.473,21.322 3.859,21.749 4.250,22.171 C4.309,22.235 4.388,22.287 4.390,22.391 C4.371,22.492 4.297,22.547 4.237,22.611 C3.840,23.040 3.441,23.468 3.041,23.895 C2.940,24.003 2.852,24.098 2.997,24.249 C3.461,24.736 3.920,25.229 4.377,25.723 C4.520,25.878 4.627,25.841 4.758,25.695 C5.143,25.268 5.548,24.860 5.929,24.428 C6.096,24.238 6.208,24.254 6.368,24.435 C6.751,24.866 7.154,25.274 7.539,25.702 C7.681,25.860 7.781,25.886 7.935,25.714 C8.365,25.233 8.805,24.762 9.253,24.300 C9.414,24.134 9.388,24.027 9.241,23.876 C8.842,23.463 8.461,23.030 8.060,22.620 C7.890,22.447 7.877,22.328 8.054,22.149 ZM11.869,13.213 C9.957,13.214 8.044,13.213 6.131,13.213 C4.209,13.213 2.286,13.209 0.364,13.218 C0.096,13.220 -0.006,13.137 -0.006,12.836 C0.002,9.451 -0.006,6.066 0.002,2.680 C0.005,1.216 1.105,0.031 2.468,0.027 C5.624,0.018 8.780,0.026 11.936,0.019 C12.207,0.018 12.302,0.108 12.301,0.406 C12.294,4.519 12.297,8.633 12.296,12.746 C12.296,13.209 12.293,13.212 11.869,13.213 ZM9.475,5.326 C8.873,5.339 8.270,5.323 7.668,5.334 C7.436,5.339 7.341,5.254 7.345,4.997 C7.355,4.351 7.337,3.705 7.351,3.059 C7.357,2.784 7.285,2.675 7.013,2.684 C6.431,2.703 5.847,2.702 5.264,2.685 C5.002,2.677 4.937,2.788 4.943,3.047 C4.956,3.662 4.947,4.277 4.946,4.893 C4.945,5.322 4.940,5.328 4.551,5.329 C3.967,5.331 3.384,5.338 2.801,5.326 C2.571,5.322 2.475,5.395 2.481,5.657 C2.494,6.293 2.495,6.929 2.480,7.565 C2.473,7.844 2.575,7.915 2.817,7.909 C3.410,7.895 4.003,7.918 4.595,7.901 C4.877,7.893 4.967,8.010 4.951,8.298 C4.934,8.604 4.947,8.913 4.946,9.221 C4.946,9.549 4.956,9.877 4.943,10.205 C4.933,10.451 5.008,10.556 5.252,10.551 C5.844,10.537 6.438,10.535 7.030,10.552 C7.291,10.559 7.357,10.445 7.352,10.188 C7.340,9.573 7.348,8.957 7.348,8.342 C7.348,7.911 7.352,7.906 7.742,7.906 C8.325,7.906 8.909,7.899 9.492,7.909 C9.720,7.914 9.819,7.840 9.814,7.578 C9.801,6.942 9.800,6.306 9.814,5.671 C9.821,5.391 9.715,5.320 9.475,5.326 Z"/>
</svg>