<svg xmlns="http://www.w3.org/2000/svg" xmlns:xlink="http://www.w3.org/1999/xlink" width="19px" height="23px">
    <path d="M19.001,8.860 C19.001,9.940 18.968,11.022 19.008,12.100 C19.088,14.271 18.345,16.148 17.123,17.883 C15.907,19.607 14.259,20.782 12.443,21.751 C11.597,22.202 10.723,22.594 9.822,22.923 C9.643,22.989 9.472,23.034 9.280,22.961 C6.825,22.017 4.485,20.863 2.678,18.870 C1.222,17.264 0.207,15.402 0.021,13.179 C-0.050,12.339 -0.000,11.488 -0.001,10.642 C-0.002,8.694 -0.003,6.746 0.002,4.797 C0.004,3.881 0.381,3.406 1.272,3.254 C2.506,3.043 3.749,2.885 4.952,2.513 C6.254,2.112 7.501,1.600 8.567,0.714 C8.744,0.566 8.905,0.397 9.073,0.237 C9.372,-0.050 9.647,-0.081 9.946,0.201 C11.783,1.931 14.075,2.581 16.450,3.043 C16.978,3.145 17.522,3.154 18.037,3.332 C18.666,3.550 19.000,4.007 19.002,4.685 C19.005,6.077 19.003,7.469 19.003,8.860 C19.002,8.860 19.001,8.860 19.001,8.860 ZM5.881,10.934 C5.673,10.926 5.509,11.002 5.368,11.141 C5.023,11.479 5.037,11.918 5.406,12.359 C6.036,13.115 6.672,13.867 7.292,14.633 C7.967,15.466 8.348,15.483 9.055,14.681 C9.069,14.664 9.084,14.648 9.098,14.631 C10.053,13.556 11.009,12.482 11.964,11.407 C12.596,10.696 13.234,9.991 13.856,9.271 C14.211,8.860 14.189,8.396 13.834,8.082 C13.505,7.790 13.036,7.834 12.688,8.214 C12.217,8.727 11.763,9.255 11.299,9.775 C10.343,10.849 9.382,11.918 8.430,12.996 C8.235,13.217 8.118,13.184 7.945,12.962 C7.504,12.395 7.035,11.849 6.580,11.291 C6.395,11.063 6.172,10.923 5.881,10.934 Z"/>
</svg>