<svg  xmlns="http://www.w3.org/2000/svg" xmlns:xlink="http://www.w3.org/1999/xlink" width="11px" height="11px">
    <path  d="M5.492,11.002 C4.386,11.002 3.281,11.004 2.176,11.001 C1.148,10.998 0.314,10.368 0.067,9.403 C0.022,9.227 0.003,9.039 0.002,8.857 C-0.002,6.622 -0.002,4.387 0.000,2.152 C0.002,1.059 0.746,0.193 1.826,0.021 C1.943,0.003 2.063,0.001 2.181,0.001 C4.392,0.000 6.602,-0.001 8.813,0.001 C9.866,0.002 10.707,0.654 10.941,1.653 C10.980,1.819 10.998,1.993 10.998,2.164 C11.002,4.386 11.002,6.609 11.000,8.832 C10.999,9.937 10.252,10.809 9.162,10.981 C9.034,11.002 8.901,11.001 8.770,11.001 C7.677,11.002 6.584,11.002 5.492,11.002 ZM1.073,4.383 C1.073,4.438 1.073,4.479 1.073,4.520 C1.073,5.952 1.073,7.385 1.074,8.818 C1.074,9.483 1.516,9.928 2.181,9.928 C4.391,9.929 6.602,9.929 8.812,9.928 C9.479,9.928 9.925,9.477 9.925,8.808 C9.926,7.379 9.925,5.950 9.925,4.521 C9.925,4.478 9.925,4.434 9.925,4.389 C9.377,4.389 8.841,4.389 8.337,4.389 C8.392,4.724 8.463,5.051 8.497,5.381 C8.532,5.722 8.474,6.058 8.373,6.385 C8.273,6.708 8.123,7.006 7.922,7.279 C7.719,7.555 7.476,7.790 7.194,7.984 C6.185,8.682 4.833,8.687 3.813,7.992 C3.294,7.639 2.916,7.169 2.692,6.583 C2.412,5.853 2.422,5.121 2.703,4.383 C2.157,4.383 1.623,4.383 1.073,4.383 ZM7.429,5.501 C7.434,4.453 6.573,3.577 5.530,3.569 C4.454,3.562 3.570,4.417 3.563,5.471 C3.555,6.548 4.409,7.426 5.470,7.433 C6.559,7.440 7.423,6.588 7.429,5.501 ZM9.717,1.278 C9.098,1.278 8.487,1.278 7.868,1.278 C7.868,1.896 7.868,2.504 7.868,3.126 C8.490,3.126 9.101,3.126 9.717,3.126 "/>
</svg>