<svg  xmlns="http://www.w3.org/2000/svg" xmlns:xlink="http://www.w3.org/1999/xlink" width="89px" height="51px">
    <path  d="M82.124,14.122 L78.594,14.122 L78.594,18.974 C76.952,18.974 75.310,18.974 73.696,18.974 C73.696,12.659 73.696,6.343 73.696,0.000 C76.460,0.000 79.305,0.000 82.124,0.000 C91.291,0.027 91.291,14.122 82.124,14.122 ZM82.097,4.337 C80.947,4.310 79.716,4.337 78.594,4.337 C78.594,5.882 78.594,8.213 78.594,9.758 L82.097,9.758 C84.778,9.758 84.942,4.364 82.097,4.337 ZM65.979,18.974 C64.364,18.974 62.750,18.974 61.135,18.974 L61.135,4.337 L56.429,4.337 C56.429,2.873 56.429,1.437 56.429,0.000 L70.658,0.000 C70.658,1.437 70.658,2.873 70.658,4.337 L65.979,4.337 L65.979,18.974 ZM48.411,11.357 L42.500,11.357 L42.500,18.974 C40.831,18.974 39.135,18.974 37.493,18.974 L37.493,0.000 C39.135,0.000 40.831,0.000 42.500,0.000 L42.500,6.885 L48.411,6.885 L48.411,0.000 C50.080,0.000 51.750,0.000 53.419,0.000 L53.419,18.974 C51.750,18.974 50.080,18.974 48.411,18.974 L48.411,11.357 ZM21.047,0.000 C25.480,0.000 28.517,0.000 33.005,0.000 C33.005,1.409 33.005,2.873 33.005,4.337 C30.159,4.337 28.736,4.337 25.918,4.337 L25.918,7.021 L32.430,7.021 C32.430,8.457 32.430,9.894 32.430,11.331 L25.918,11.331 C25.918,12.442 25.918,13.526 25.918,14.664 C28.736,14.664 30.378,14.664 33.251,14.664 C33.251,16.074 33.251,17.538 33.251,18.974 C28.764,18.974 25.480,18.974 21.047,18.974 C21.047,12.632 21.047,6.289 21.047,0.000 ZM14.042,18.974 L0.551,18.974 L0.551,0.000 L5.559,0.000 L5.559,14.502 L11.114,14.502 L11.114,0.000 L16.122,0.000 L16.122,14.773 L18.064,14.773 L18.064,21.116 L14.042,21.116 L14.042,18.974 ZM88.012,23.777 C88.012,24.004 87.824,24.190 87.595,24.190 L0.416,24.190 C0.187,24.190 -0.000,24.004 -0.000,23.777 C-0.000,23.550 0.187,23.365 0.416,23.365 L87.595,23.365 C87.824,23.365 88.012,23.550 88.012,23.777 ZM5.330,32.917 L9.173,28.768 L10.055,28.768 L10.055,38.348 C9.215,38.348 8.374,38.348 7.534,38.348 L7.534,34.090 L5.481,36.219 L5.206,36.219 L3.167,34.090 L3.167,38.348 C2.326,38.348 1.486,38.348 0.645,38.348 L0.645,28.768 L1.555,28.768 L5.330,32.917 ZM5.602,42.706 L5.602,41.950 L7.827,41.950 L7.827,42.706 C10.170,42.783 12.085,43.681 12.085,46.462 C12.085,49.256 10.157,50.167 7.814,50.244 L7.814,51.000 L5.614,51.000 L5.614,50.244 C3.272,50.167 1.344,49.256 1.344,46.462 C1.344,43.681 3.259,42.783 5.602,42.706 ZM7.789,48.129 C8.733,48.077 9.717,47.744 9.717,46.462 C9.717,45.180 8.785,44.847 7.789,44.809 L7.789,48.129 ZM5.640,48.129 L5.640,44.809 C4.644,44.847 3.712,45.180 3.712,46.462 C3.712,47.744 4.696,48.077 5.640,48.129 ZM18.529,30.979 C17.096,30.979 16.380,30.979 14.961,30.979 L14.961,32.330 L18.240,32.330 C18.240,33.053 18.240,33.776 18.240,34.500 L14.961,34.500 C14.961,35.059 14.961,35.605 14.961,36.178 C16.380,36.178 17.206,36.178 18.653,36.178 C18.653,36.888 18.653,37.625 18.653,38.348 C16.393,38.348 14.740,38.348 12.508,38.348 C12.508,35.155 12.508,31.961 12.508,28.795 C14.740,28.795 16.270,28.795 18.529,28.795 C18.529,29.505 18.529,30.242 18.529,30.979 ZM17.056,45.296 L17.120,45.296 L18.673,41.989 L21.184,41.989 L21.184,42.335 L16.887,50.962 L14.390,50.962 L14.390,50.718 L15.813,47.821 L12.759,42.335 L12.759,41.989 L15.348,41.989 L17.056,45.296 ZM25.019,32.139 C29.634,32.139 29.634,38.334 25.019,38.348 L20.775,38.348 L20.775,28.795 L27.705,28.795 L27.705,30.979 L23.242,30.979 L23.242,32.139 L25.019,32.139 ZM23.242,36.165 C23.806,36.165 24.426,36.165 25.005,36.165 C26.369,36.165 26.355,34.295 25.005,34.295 L23.242,34.295 L23.242,36.165 ZM26.426,48.667 L24.756,48.667 L24.756,50.962 C23.980,50.962 23.203,50.962 22.440,50.962 C22.440,47.975 22.440,44.988 22.440,41.989 C23.747,41.989 25.093,41.989 26.426,41.989 C30.761,42.001 30.761,48.667 26.426,48.667 ZM24.756,44.040 C24.756,44.770 24.756,45.872 24.756,46.603 L26.413,46.603 C27.681,46.603 27.759,44.052 26.413,44.040 C25.869,44.027 25.287,44.040 24.756,44.040 ZM36.358,30.979 C34.925,30.979 34.208,30.979 32.789,30.979 L32.789,32.330 L36.068,32.330 C36.068,33.053 36.068,33.776 36.068,34.500 L32.789,34.500 C32.789,35.059 32.789,35.605 32.789,36.178 C34.208,36.178 35.035,36.178 36.481,36.178 C36.481,36.888 36.481,37.625 36.481,38.348 C34.222,38.348 32.569,38.348 30.337,38.348 C30.337,35.155 30.337,31.961 30.337,28.795 C32.569,28.795 34.098,28.795 36.358,28.795 C36.358,29.505 36.358,30.242 36.358,30.979 ZM33.803,45.244 L36.598,45.244 L36.598,41.989 C37.388,41.989 38.177,41.989 38.966,41.989 L38.966,50.962 C38.177,50.962 37.388,50.962 36.598,50.962 L36.598,47.359 L33.803,47.359 L33.803,50.962 C33.013,50.962 32.211,50.962 31.435,50.962 L31.435,41.989 C32.211,41.989 33.013,41.989 33.803,41.989 L33.803,45.244 ZM37.392,37.993 L41.731,28.672 L42.792,28.672 L47.146,37.993 L47.146,38.348 L44.735,38.348 L42.255,32.753 L39.803,38.348 L37.392,38.348 L37.392,37.993 ZM43.665,46.385 L48.246,41.950 L49.087,41.950 L49.087,50.962 C48.298,50.962 47.495,50.962 46.693,50.962 L46.693,46.552 L42.125,50.974 L41.297,50.974 L41.297,41.989 C42.086,41.989 42.876,41.989 43.665,41.989 L43.665,46.385 ZM48.414,38.348 C48.414,35.155 48.414,31.975 48.414,28.795 C49.227,28.795 50.054,28.795 50.880,28.795 L50.880,31.648 L52.657,31.648 C57.273,31.648 57.273,38.334 52.657,38.348 C51.238,38.348 49.806,38.348 48.414,38.348 ZM52.644,33.844 L50.880,33.844 C50.880,34.622 50.880,35.387 50.880,36.165 C51.445,36.165 52.065,36.178 52.644,36.165 C54.076,36.151 53.994,33.844 52.644,33.844 ZM57.241,44.040 L55.028,44.040 L55.028,50.962 C54.265,50.962 53.501,50.962 52.738,50.962 L52.738,44.040 L50.512,44.040 C50.512,43.347 50.512,42.668 50.512,41.989 L57.241,41.989 C57.241,42.668 57.241,43.347 57.241,44.040 ZM60.511,32.262 L63.487,32.262 L63.487,28.795 C64.327,28.795 65.168,28.795 66.008,28.795 L66.008,38.348 C65.168,38.348 64.327,38.348 63.487,38.348 L63.487,34.513 L60.511,34.513 L60.511,38.348 C59.671,38.348 58.816,38.348 57.990,38.348 L57.990,28.795 C58.816,28.795 59.671,28.795 60.511,28.795 L60.511,32.262 ZM62.315,45.296 L62.379,45.296 L63.933,41.989 L66.443,41.989 L66.443,42.335 L62.147,50.962 L59.649,50.962 L59.649,50.718 L61.072,47.821 L58.018,42.335 L58.018,41.989 L60.607,41.989 L62.315,45.296 ZM71.685,48.667 L70.016,48.667 L70.016,50.962 C69.239,50.962 68.463,50.962 67.699,50.962 C67.699,47.975 67.699,44.988 67.699,41.989 C69.006,41.989 70.352,41.989 71.685,41.989 C76.020,42.001 76.020,48.667 71.685,48.667 ZM70.016,44.040 C70.016,44.770 70.016,45.872 70.016,46.603 L71.672,46.603 C72.940,46.603 73.018,44.052 71.672,44.040 C71.128,44.027 70.546,44.040 70.016,44.040 ZM67.883,33.585 C67.883,26.981 77.774,26.981 77.774,33.585 C77.774,40.204 67.883,40.204 67.883,33.585 ZM75.253,33.585 C75.253,30.147 70.418,30.147 70.418,33.585 C70.418,37.052 75.253,37.052 75.253,33.585 ZM78.997,44.668 L80.667,44.668 C85.002,44.668 85.002,50.949 80.667,50.962 L76.681,50.962 L76.681,41.989 L78.997,41.989 L78.997,44.668 ZM78.997,48.911 C79.528,48.911 80.110,48.923 80.654,48.911 C82.000,48.898 81.922,46.731 80.654,46.731 L78.997,46.731 L78.997,48.911 ZM81.826,25.943 C82.294,25.889 82.763,25.834 83.245,25.807 C83.286,26.312 83.617,26.557 84.195,26.557 C84.760,26.557 85.132,26.380 85.215,25.807 C85.697,25.834 86.165,25.889 86.634,25.943 C86.579,27.472 85.752,28.277 84.223,28.277 C82.735,28.277 81.867,27.472 81.826,25.943 ZM79.718,38.362 L79.718,28.795 C80.558,28.795 81.399,28.795 82.239,28.795 L82.239,33.476 L87.116,28.754 L88.012,28.754 L88.012,38.348 C87.171,38.348 86.317,38.348 85.463,38.348 L85.463,33.654 L80.600,38.362 L79.718,38.362 ZM87.939,50.962 L85.623,50.962 L85.623,41.989 L87.939,41.989 L87.939,50.962 Z"/>
</svg>