<svg xmlns="http://www.w3.org/2000/svg" xmlns:xlink="http://www.w3.org/1999/xlink" width="12px" height="9px">
    <path d="M11.135,9.000 C7.672,8.993 4.209,8.996 0.746,8.997 C0.626,8.997 0.514,8.971 0.408,8.919 C0.200,8.815 0.080,8.638 0.004,8.426 C0.004,6.400 0.004,4.374 0.004,2.348 C0.113,2.430 0.223,2.510 0.332,2.593 C1.562,3.531 2.791,4.470 4.021,5.408 C4.523,5.791 5.022,6.178 5.529,6.553 C5.836,6.780 6.162,6.770 6.473,6.550 C6.591,6.467 6.706,6.381 6.822,6.294 C8.499,5.037 10.177,3.779 11.855,2.522 C11.897,2.490 11.934,2.445 11.994,2.442 C11.994,4.436 11.994,6.431 11.994,8.426 C11.849,8.828 11.569,9.001 11.135,9.000 ZM6.109,5.308 C6.025,5.372 5.968,5.375 5.887,5.309 C5.671,5.136 5.450,4.969 5.231,4.801 C4.181,3.992 3.131,3.184 2.081,2.376 C1.389,1.844 0.696,1.313 0.004,0.782 C0.004,0.712 0.004,0.642 0.004,0.571 C0.151,0.163 0.440,-0.004 0.875,-0.003 C4.299,0.004 7.723,0.001 11.146,0.001 C11.240,0.001 11.333,-0.005 11.426,0.018 C11.723,0.093 11.894,0.296 11.994,0.571 C11.994,0.642 11.994,0.712 11.994,0.782 C11.588,1.092 11.183,1.402 10.778,1.713 C9.221,2.911 7.664,4.108 6.109,5.308 Z"/>
</svg>