<svg xmlns="http://www.w3.org/2000/svg" xmlns:xlink="http://www.w3.org/1999/xlink" width="10px" height="13px">
    <path d="M4.996,6.699 C3.749,6.699 2.737,5.763 2.737,4.608 C2.737,3.452 3.749,2.516 4.996,2.516 C6.244,2.516 7.256,3.453 7.256,4.608 C7.256,5.762 6.244,6.699 4.996,6.699 M4.996,-0.004 C2.234,-0.004 -0.005,2.068 -0.005,4.625 C-0.005,7.039 2.260,10.154 3.772,11.671 C4.338,12.236 4.996,12.999 4.996,12.999 C4.996,12.999 5.703,12.232 6.309,11.650 C7.820,10.196 9.997,7.279 9.997,4.625 C9.997,2.068 7.758,-0.004 4.996,-0.004 "/>
</svg>