<svg xmlns="http://www.w3.org/2000/svg" xmlns:xlink="http://www.w3.org/1999/xlink" width="18px" height="18px">
    <path d="M15.881,9.875 C15.709,9.120 15.616,8.332 15.349,7.605 C14.227,4.556 12.012,2.750 8.740,2.204 C8.546,2.171 8.331,2.176 8.365,1.874 C8.429,1.302 8.472,0.729 8.528,0.156 C8.534,0.100 8.573,0.047 8.594,-0.002 C14.145,0.475 17.983,5.208 17.995,9.875 C17.289,9.875 16.582,9.875 15.881,9.875 ZM13.798,9.963 C13.102,9.979 12.408,10.001 11.715,10.000 C11.653,10.000 11.558,9.856 11.535,9.765 C11.097,8.006 9.981,6.880 8.231,6.330 C8.137,6.300 7.997,6.181 8.001,6.112 C8.045,5.456 8.115,4.802 8.180,4.120 C11.440,4.620 13.630,7.445 13.798,9.963 ZM8.858,13.390 C9.381,12.882 10.028,12.753 10.659,13.114 C11.448,13.564 12.132,14.166 12.710,14.865 C13.131,15.375 13.069,15.881 12.577,16.327 C12.034,16.818 11.543,17.377 10.832,17.653 C10.254,17.877 9.659,17.986 9.043,17.992 C8.229,17.998 7.470,17.781 6.742,17.432 C5.159,16.673 3.908,15.506 2.766,14.203 C1.778,13.075 0.930,11.856 0.408,10.436 C-0.132,8.967 -0.161,7.508 0.534,6.069 C0.937,5.237 1.642,4.696 2.358,4.175 C2.690,3.934 3.101,3.958 3.401,4.223 C4.263,4.983 4.879,5.918 5.146,7.045 C5.258,7.512 5.085,7.941 4.700,8.256 C4.432,8.475 4.162,8.691 3.893,8.907 C3.383,9.315 3.257,9.709 3.437,10.337 C3.511,10.594 3.625,10.835 3.763,11.063 C4.430,12.169 5.272,13.119 6.305,13.896 C6.418,13.981 6.535,14.062 6.657,14.134 C7.300,14.509 7.808,14.446 8.339,13.924 C8.516,13.750 8.680,13.563 8.858,13.390 Z"/>
</svg>