<svg  xmlns="http://www.w3.org/2000/svg" xmlns:xlink="http://www.w3.org/1999/xlink" width="64px" height="29px">
    <path d="M62.295,14.730 C61.193,14.730 60.591,14.076 60.591,12.932 L60.591,9.214 C60.591,8.071 61.193,7.417 62.295,7.417 C63.396,7.417 63.999,8.071 63.999,9.214 L63.999,12.932 C63.999,14.076 63.396,14.730 62.295,14.730 ZM62.876,9.143 C62.876,8.633 62.652,8.438 62.295,8.438 C61.938,8.438 61.713,8.633 61.713,9.143 L61.713,13.003 C61.713,13.514 61.938,13.708 62.295,13.708 C62.652,13.708 62.876,13.514 62.876,13.003 L62.876,9.143 ZM59.013,21.143 C58.128,21.143 57.644,20.626 57.644,19.722 L57.644,16.785 C57.644,15.881 58.128,15.364 59.013,15.364 C59.898,15.364 60.381,15.881 60.381,16.785 L60.381,19.722 C60.381,20.626 59.898,21.143 59.013,21.143 ZM59.480,16.728 C59.480,16.325 59.299,16.171 59.013,16.171 C58.726,16.171 58.545,16.325 58.545,16.728 L58.545,19.779 C58.545,20.182 58.726,20.336 59.013,20.336 C59.299,20.336 59.480,20.182 59.480,19.779 L59.480,16.728 ZM58.745,7.499 L59.867,7.499 L59.867,14.648 L58.745,14.648 L58.745,7.499 ZM56.358,14.648 L54.583,14.648 L54.583,7.499 L56.358,7.499 C57.480,7.499 58.031,8.122 58.031,9.266 L58.031,12.881 C58.031,14.025 57.480,14.648 56.358,14.648 ZM56.909,9.214 C56.909,8.704 56.695,8.520 56.338,8.520 L55.705,8.520 L55.705,13.626 L56.338,13.626 C56.695,13.626 56.909,13.443 56.909,12.932 L56.909,9.214 ZM52.145,14.740 C51.043,14.740 50.472,14.086 50.472,12.942 L50.472,7.499 L51.594,7.499 L51.594,13.014 C51.594,13.524 51.818,13.708 52.175,13.708 C52.532,13.708 52.757,13.524 52.757,13.014 L52.757,7.499 L53.818,7.499 L53.818,12.942 C53.818,14.086 53.246,14.740 52.145,14.740 ZM50.728,20.336 C51.015,20.336 51.195,20.190 51.195,19.787 L51.195,15.429 L52.047,15.429 L52.047,19.730 C52.047,20.634 51.589,21.151 50.703,21.151 C49.818,21.151 49.359,20.634 49.359,19.730 L49.359,15.429 L50.261,15.429 L50.261,19.787 C50.261,20.190 50.441,20.336 50.728,20.336 ZM48.860,14.648 L47.738,14.648 L47.738,8.520 L46.564,8.520 L46.564,7.499 L50.033,7.499 L50.033,8.520 L48.860,8.520 L48.860,14.648 ZM44.575,14.730 C43.473,14.730 42.902,14.076 42.902,12.932 L42.902,12.493 L43.963,12.493 L43.963,13.003 C43.963,13.514 44.187,13.698 44.544,13.698 C44.902,13.698 45.126,13.514 45.126,13.003 C45.126,11.533 42.933,11.257 42.933,9.214 C42.933,8.071 43.494,7.417 44.585,7.417 C45.677,7.417 46.238,8.071 46.238,9.214 L46.238,9.439 L45.177,9.439 L45.177,9.143 C45.177,8.633 44.973,8.438 44.616,8.438 C44.259,8.438 44.055,8.633 44.055,9.143 C44.055,10.614 46.248,10.890 46.248,12.932 C46.248,14.076 45.677,14.730 44.575,14.730 ZM44.247,16.236 L42.689,16.236 L42.689,17.810 L43.927,17.810 L43.927,18.617 L42.689,18.617 L42.689,20.271 L44.247,20.271 L44.247,21.078 L41.788,21.078 L41.788,15.429 L44.247,15.429 L44.247,16.236 ZM39.502,21.078 L39.174,18.068 L38.846,21.078 L37.608,21.078 L36.969,15.429 L37.846,15.429 L38.330,19.884 L38.764,15.429 L39.633,15.429 L40.083,19.916 L40.551,15.429 L41.338,15.429 L40.698,21.078 L39.502,21.078 ZM39.117,14.648 L37.352,14.648 L37.352,7.499 L39.046,7.499 C40.209,7.499 40.709,8.040 40.709,9.143 L40.709,9.399 C40.709,10.134 40.484,10.604 39.984,10.839 C40.586,11.073 40.821,11.615 40.821,12.370 L40.821,12.952 C40.821,14.055 40.239,14.648 39.117,14.648 ZM39.586,9.256 C39.586,8.745 39.413,8.520 39.015,8.520 L38.474,8.520 L38.474,10.410 L38.913,10.410 C39.331,10.410 39.586,10.225 39.586,9.654 L39.586,9.256 ZM39.699,12.299 C39.699,11.635 39.484,11.430 38.974,11.430 L38.474,11.430 L38.474,13.626 L39.117,13.626 C39.495,13.626 39.699,13.453 39.699,12.922 L39.699,12.299 ZM35.813,20.053 L34.707,20.053 L34.551,21.078 L33.723,21.078 L34.642,15.429 L35.961,15.429 L36.879,21.078 L35.969,21.078 L35.813,20.053 ZM35.256,16.430 L34.822,19.286 L35.691,19.286 L35.256,16.430 ZM33.598,7.499 L36.659,7.499 L36.659,8.520 L34.720,8.520 L34.720,10.512 L36.261,10.512 L36.261,11.533 L34.720,11.533 L34.720,13.626 L36.659,13.626 L36.659,14.648 L33.598,14.648 L33.598,7.499 ZM32.470,20.384 L32.470,19.496 C32.470,18.972 32.290,18.778 31.880,18.778 L31.569,18.778 L31.569,21.078 L30.667,21.078 L30.667,15.429 L32.027,15.429 C32.962,15.429 33.364,15.857 33.364,16.728 L33.364,17.172 C33.364,17.753 33.175,18.133 32.773,18.318 C33.224,18.504 33.372,18.932 33.372,19.520 L33.372,20.392 C33.372,20.666 33.380,20.868 33.470,21.078 L32.552,21.078 C32.503,20.933 32.470,20.844 32.470,20.384 ZM32.462,16.817 C32.462,16.414 32.323,16.236 32.003,16.236 L31.569,16.236 L31.569,17.971 L31.921,17.971 C32.257,17.971 32.462,17.826 32.462,17.374 L32.462,16.817 ZM30.752,14.648 L30.344,10.839 L29.936,14.648 L28.396,14.648 L27.600,7.499 L28.691,7.499 L29.293,13.136 L29.834,7.499 L30.915,7.499 L31.477,13.177 L32.058,7.499 L33.037,7.499 L32.241,14.648 L30.752,14.648 ZM30.249,16.825 L30.249,17.559 C30.249,18.463 29.807,18.956 28.905,18.956 L28.479,18.956 L28.479,21.078 L27.577,21.078 L27.577,15.429 L28.905,15.429 C29.807,15.429 30.249,15.921 30.249,16.825 ZM28.479,18.148 L28.905,18.148 C29.192,18.148 29.348,18.020 29.348,17.616 L29.348,16.768 C29.348,16.365 29.192,16.236 28.905,16.236 L28.479,16.236 L28.479,18.148 ZM25.314,21.663 C25.314,21.769 25.286,21.830 25.189,21.885 C23.065,23.093 20.944,24.305 18.823,25.517 C16.814,26.664 14.805,27.811 12.798,28.959 C12.735,28.995 12.684,29.011 12.611,28.970 C11.275,28.218 9.938,27.469 8.599,26.721 C8.527,26.681 8.499,26.635 8.500,26.553 C8.503,25.106 8.503,23.659 8.505,22.212 C8.505,22.083 8.514,22.077 8.628,22.141 C9.953,22.893 11.278,23.645 12.601,24.400 C12.698,24.456 12.768,24.455 12.865,24.400 C14.859,23.267 16.856,22.138 18.851,21.007 C19.674,20.541 20.496,20.075 21.319,19.610 C21.385,19.574 21.412,19.532 21.410,19.457 C21.406,19.291 21.408,19.125 21.409,18.960 C21.425,15.870 21.421,12.781 21.425,9.692 C21.425,9.598 21.398,9.545 21.314,9.501 C20.402,9.022 19.516,8.497 18.619,7.991 C17.048,7.105 15.481,6.215 13.912,5.326 C13.550,5.121 13.187,4.918 12.828,4.710 C12.759,4.670 12.706,4.671 12.639,4.709 C10.761,5.770 8.882,6.829 7.002,7.888 C6.199,8.341 5.395,8.793 4.590,9.245 C4.321,9.397 4.317,9.397 4.322,9.707 C4.349,11.411 4.326,13.115 4.344,14.818 C4.362,16.447 4.344,18.077 4.364,19.705 C4.378,20.792 4.371,21.878 4.372,22.964 C4.372,23.386 4.364,23.809 4.360,24.231 C4.359,24.342 4.351,24.345 4.251,24.290 C2.906,23.547 1.562,22.803 0.215,22.063 C0.114,22.007 0.078,21.946 0.077,21.829 C0.058,20.359 0.073,18.889 0.056,17.419 C0.041,16.138 0.056,14.857 0.038,13.576 C0.019,12.217 0.035,10.858 0.017,9.498 C0.007,8.757 0.012,8.016 0.001,7.274 C-0.000,7.175 0.030,7.117 0.118,7.067 C1.326,6.391 2.531,5.711 3.737,5.032 C5.265,4.171 6.793,3.309 8.321,2.448 C9.756,1.639 11.192,0.832 12.626,0.022 C12.694,-0.016 12.746,-0.017 12.814,0.021 C14.599,1.035 16.385,2.048 18.171,3.060 C20.421,4.335 22.671,5.609 24.921,6.883 C25.026,6.942 25.129,7.004 25.235,7.061 C25.290,7.091 25.316,7.132 25.312,7.195 C25.309,7.230 25.311,7.266 25.311,7.302 C25.311,9.689 25.311,12.076 25.311,14.463 C25.311,16.863 25.311,19.263 25.314,21.663 ZM14.439,17.492 C14.439,17.492 14.523,18.697 13.932,19.550 C13.305,20.453 12.000,21.007 12.000,21.007 L11.162,19.290 C11.162,19.290 11.935,19.183 12.686,18.829 C13.623,18.388 14.439,17.492 14.439,17.492 ZM11.927,11.401 C13.968,9.968 16.635,9.827 16.991,9.814 L17.012,9.793 C17.012,9.793 17.012,9.800 17.012,9.814 C17.025,9.813 17.032,9.813 17.032,9.813 C17.032,9.813 17.025,9.825 17.012,9.848 C17.008,10.268 16.932,13.019 15.586,15.068 C14.389,16.892 11.654,18.272 11.654,18.272 L10.312,16.838 L10.315,16.835 L8.828,15.459 C8.828,15.459 10.131,12.663 11.927,11.401 ZM14.632,15.153 C16.172,13.342 16.531,11.061 16.531,11.061 C16.531,11.061 15.990,12.905 14.525,14.628 C13.140,16.257 11.091,16.978 11.091,16.978 C11.091,16.978 13.342,16.670 14.632,15.153 ZM9.549,12.405 C9.549,12.405 8.687,13.256 8.283,14.210 C7.959,14.976 7.883,15.753 7.883,15.753 L6.136,14.982 C6.136,14.982 6.638,13.655 7.515,12.992 C8.343,12.367 9.549,12.405 9.549,12.405 ZM47.500,16.728 L47.500,16.930 C47.500,17.511 47.320,17.882 46.918,18.068 C47.401,18.253 47.590,18.682 47.590,19.279 L47.590,19.739 C47.590,20.610 47.123,21.078 46.221,21.078 L44.803,21.078 L44.803,15.429 L46.164,15.429 C47.098,15.429 47.500,15.857 47.500,16.728 ZM45.705,20.271 L46.221,20.271 C46.525,20.271 46.688,20.134 46.688,19.714 L46.688,19.222 C46.688,18.697 46.516,18.536 46.106,18.536 L45.705,18.536 L45.705,20.271 ZM45.705,16.236 L45.705,17.729 L46.057,17.729 C46.393,17.729 46.598,17.584 46.598,17.132 L46.598,16.817 C46.598,16.414 46.459,16.236 46.139,16.236 L45.705,16.236 ZM54.711,18.810 L54.711,15.429 L55.514,15.429 L55.514,21.078 L54.588,21.078 L53.465,16.987 L53.465,21.078 L52.653,21.078 L52.653,15.429 L53.785,15.429 L54.711,18.810 ZM57.063,21.078 L56.161,21.078 L56.161,15.429 L57.063,15.429 L57.063,21.078 ZM63.012,18.810 L63.012,15.429 L63.815,15.429 L63.815,21.078 L62.889,21.078 L61.766,16.987 L61.766,21.078 L60.955,21.078 L60.955,15.429 L62.086,15.429 L63.012,18.810 Z"/>
</svg>