<svg xmlns="http://www.w3.org/2000/svg" xmlns:xlink="http://www.w3.org/1999/xlink" width="17px" height="16px">
    <path d="M6.530,0.001 C6.842,0.053 7.158,0.085 7.465,0.159 C9.252,0.595 10.588,1.627 11.464,3.242 C12.043,4.308 12.257,5.458 12.148,6.663 C12.071,7.506 11.822,8.300 11.406,9.040 C11.376,9.094 11.346,9.148 11.302,9.228 C11.614,9.534 11.932,9.841 12.244,10.152 C13.375,11.282 14.513,12.403 15.629,13.547 C16.028,13.956 16.079,14.492 15.936,15.023 C15.793,15.549 15.419,15.884 14.882,15.969 C14.357,16.052 13.863,15.959 13.461,15.553 C12.114,14.198 10.761,12.850 9.411,11.498 C9.349,11.436 9.299,11.361 9.267,11.322 C8.815,11.516 8.415,11.718 7.996,11.861 C7.013,12.196 6.001,12.280 4.982,12.066 C2.617,11.573 1.049,10.163 0.273,7.884 C0.144,7.505 0.109,7.093 0.031,6.696 C0.022,6.651 0.010,6.606 -0.000,6.561 C-0.000,6.248 -0.000,5.936 -0.000,5.624 C0.009,5.589 0.024,5.555 0.027,5.520 C0.078,4.915 0.213,4.329 0.456,3.773 C1.315,1.808 2.789,0.581 4.889,0.120 C5.131,0.067 5.379,0.040 5.624,0.001 C5.926,0.001 6.228,0.001 6.530,0.001 ZM1.745,6.129 C1.768,8.531 3.730,10.462 6.137,10.429 C8.526,10.396 10.440,8.475 10.430,6.058 C10.419,3.638 8.448,1.724 6.019,1.746 C3.640,1.768 1.721,3.737 1.745,6.129 Z"/>
</svg>