<svg  xmlns="http://www.w3.org/2000/svg" xmlns:xlink="http://www.w3.org/1999/xlink" width="35px" height="36px">
    <path d="M31.366,14.731 C28.656,17.511 24.698,18.167 21.566,16.653 L19.200,19.078 L22.733,22.700 C23.815,21.880 24.945,21.627 25.476,22.166 L33.160,30.046 C33.796,30.704 33.295,32.284 32.027,33.585 C30.764,34.879 29.217,35.395 28.578,34.740 L20.891,26.863 C20.366,26.324 20.615,25.166 21.412,24.052 L17.881,20.432 L6.995,31.593 L2.915,27.410 L13.803,16.251 L8.138,10.443 L6.496,12.123 L3.253,8.798 L0.013,4.385 L3.410,0.904 L7.854,4.085 L11.097,7.407 L9.458,9.093 L15.122,14.898 L17.613,12.345 C16.388,9.215 17.085,5.399 19.678,2.746 C21.899,0.469 24.966,-0.387 27.722,0.216 L21.731,6.349 L27.860,12.636 L33.842,6.507 C34.417,9.329 33.582,12.459 31.366,14.731 Z"/>
</svg>