<svg  xmlns="http://www.w3.org/2000/svg" xmlns:xlink="http://www.w3.org/1999/xlink" width="34px" height="35px">
    <path d="M33.536,15.952 C28.694,15.952 23.852,15.952 19.010,15.951 C18.526,15.951 18.516,15.940 18.516,15.418 C18.514,12.926 18.515,10.434 18.515,7.942 C18.515,5.463 18.515,2.983 18.515,0.503 C18.516,0.021 18.527,0.011 19.008,0.011 C22.911,0.010 26.813,0.008 30.716,0.012 C32.660,0.013 33.994,1.372 33.998,3.373 C34.007,7.403 34.002,11.432 34.001,15.462 C34.001,15.925 33.977,15.952 33.536,15.952 ZM30.872,6.803 C30.875,6.542 30.804,6.420 30.527,6.420 C27.683,6.427 24.840,6.426 21.996,6.420 C21.727,6.420 21.638,6.526 21.642,6.795 C21.653,7.564 21.661,8.333 21.639,9.102 C21.628,9.454 21.756,9.546 22.078,9.543 C23.464,9.529 24.850,9.537 26.235,9.537 C27.633,9.537 29.031,9.527 30.429,9.544 C30.782,9.549 30.887,9.425 30.877,9.073 C30.855,8.317 30.862,7.560 30.872,6.803 ZM19.005,19.062 C23.823,19.061 28.640,19.061 33.457,19.062 C33.996,19.062 33.999,19.064 33.999,19.621 C34.001,23.675 34.006,27.728 33.999,31.782 C33.995,33.563 32.597,34.999 30.864,35.002 C26.914,35.009 22.964,35.004 19.014,35.003 C18.523,35.002 18.514,34.992 18.514,34.475 C18.513,31.996 18.513,29.517 18.513,27.037 C18.513,24.545 18.513,22.054 18.514,19.562 C18.514,19.082 18.534,19.062 19.005,19.062 ZM22.075,31.788 C23.471,31.773 24.866,31.781 26.262,31.781 C27.658,31.781 29.054,31.771 30.449,31.788 C30.789,31.793 30.885,31.673 30.876,31.338 C30.856,30.583 30.858,29.827 30.874,29.072 C30.880,28.763 30.772,28.661 30.476,28.662 C27.661,28.669 24.845,28.669 22.030,28.662 C21.724,28.661 21.635,28.783 21.641,29.081 C21.655,29.836 21.662,30.593 21.639,31.347 C21.629,31.697 21.749,31.791 22.075,31.788 ZM22.099,25.407 C23.485,25.392 24.870,25.401 26.256,25.400 C27.653,25.400 29.051,25.393 30.448,25.405 C30.751,25.407 30.884,25.323 30.876,24.986 C30.857,24.217 30.862,23.448 30.874,22.679 C30.879,22.400 30.804,22.280 30.509,22.281 C27.677,22.290 24.846,22.289 22.015,22.281 C21.729,22.281 21.636,22.386 21.641,22.673 C21.654,23.430 21.661,24.187 21.639,24.943 C21.629,25.305 21.758,25.411 22.099,25.407 ZM15.043,35.011 C11.093,35.001 7.142,35.011 3.192,35.000 C1.347,34.994 0.010,33.594 0.008,31.688 C0.003,27.646 0.006,23.604 0.006,19.562 C0.006,19.075 0.018,19.064 0.494,19.064 C2.915,19.063 5.335,19.064 7.756,19.064 C10.165,19.064 12.574,19.063 14.983,19.064 C15.481,19.065 15.492,19.075 15.492,19.582 C15.493,24.567 15.490,29.551 15.498,34.535 C15.498,34.885 15.392,35.012 15.043,35.011 ZM10.149,26.750 C10.648,26.265 11.114,25.745 11.613,25.260 C11.833,25.047 11.830,24.891 11.622,24.682 C11.072,24.129 10.526,23.570 9.992,23.000 C9.814,22.811 9.692,22.822 9.520,23.005 C9.026,23.530 8.509,24.033 8.021,24.563 C7.809,24.793 7.671,24.774 7.469,24.554 C6.997,24.041 6.494,23.559 6.021,23.047 C5.823,22.833 5.686,22.798 5.470,23.032 C4.948,23.598 4.411,24.151 3.861,24.688 C3.634,24.910 3.667,25.051 3.876,25.255 C4.381,25.751 4.867,26.267 5.360,26.777 C5.434,26.854 5.533,26.917 5.536,27.043 C5.511,27.164 5.418,27.231 5.344,27.309 C4.843,27.827 4.341,28.345 3.837,28.860 C3.710,28.991 3.599,29.105 3.781,29.289 C4.365,29.877 4.943,30.472 5.519,31.069 C5.700,31.256 5.833,31.213 5.999,31.036 C6.484,30.520 6.993,30.027 7.473,29.505 C7.685,29.275 7.824,29.294 8.027,29.513 C8.508,30.033 9.017,30.527 9.501,31.044 C9.679,31.235 9.805,31.266 9.999,31.058 C10.541,30.478 11.095,29.908 11.659,29.350 C11.862,29.149 11.829,29.020 11.645,28.837 C11.142,28.338 10.662,27.815 10.157,27.320 C9.943,27.111 9.926,26.967 10.149,26.750 ZM14.954,15.950 C12.545,15.952 10.137,15.951 7.728,15.951 C5.307,15.951 2.887,15.946 0.466,15.957 C0.128,15.959 -0.000,15.859 0.000,15.495 C0.010,11.404 0.000,7.313 0.010,3.222 C0.014,1.452 1.399,0.020 3.115,0.015 C7.089,0.004 11.063,0.014 15.038,0.005 C15.379,0.004 15.498,0.112 15.498,0.473 C15.489,5.444 15.492,10.415 15.491,15.387 C15.491,15.946 15.487,15.950 14.954,15.950 ZM11.939,6.418 C11.181,6.435 10.422,6.416 9.664,6.429 C9.372,6.434 9.252,6.331 9.257,6.021 C9.269,5.241 9.247,4.460 9.265,3.679 C9.272,3.347 9.181,3.215 8.839,3.226 C8.105,3.249 7.370,3.247 6.636,3.227 C6.307,3.218 6.225,3.352 6.232,3.665 C6.248,4.408 6.237,5.152 6.235,5.895 C6.234,6.415 6.228,6.422 5.738,6.423 C5.003,6.425 4.269,6.434 3.535,6.420 C3.245,6.414 3.124,6.503 3.131,6.820 C3.148,7.588 3.150,8.357 3.130,9.125 C3.121,9.462 3.250,9.548 3.555,9.541 C4.301,9.524 5.048,9.551 5.794,9.531 C6.149,9.521 6.262,9.662 6.242,10.011 C6.220,10.381 6.237,10.754 6.236,11.126 C6.236,11.522 6.248,11.920 6.232,12.315 C6.220,12.613 6.314,12.740 6.621,12.733 C7.367,12.717 8.114,12.714 8.860,12.734 C9.189,12.743 9.272,12.605 9.265,12.294 C9.250,11.551 9.260,10.807 9.261,10.064 C9.261,9.543 9.266,9.538 9.757,9.537 C10.491,9.536 11.226,9.528 11.960,9.541 C12.247,9.546 12.372,9.457 12.366,9.140 C12.350,8.372 12.348,7.603 12.366,6.835 C12.375,6.497 12.241,6.412 11.939,6.418 Z"/>
</svg>