<svg xmlns="http://www.w3.org/2000/svg" xmlns:xlink="http://www.w3.org/1999/xlink" width="39px" height="39px">
    <path d="M36.846,8.277 C36.574,8.438 36.499,8.619 36.523,8.923 C36.556,9.342 36.570,9.771 36.516,10.186 C36.470,10.543 36.605,10.713 36.889,10.880 C37.593,11.295 38.278,11.741 38.991,12.187 C38.675,12.943 38.366,13.680 38.050,14.436 C37.162,14.236 36.307,14.032 35.445,13.860 C35.308,13.832 35.105,13.905 34.997,14.003 C34.599,14.361 34.220,14.742 33.854,15.133 C33.770,15.223 33.710,15.399 33.734,15.516 C33.891,16.279 34.063,17.040 34.255,17.795 C34.319,18.049 34.296,18.183 34.022,18.282 C33.458,18.487 32.903,18.719 32.357,18.966 C32.125,19.070 32.022,19.008 31.901,18.809 C31.504,18.153 31.080,17.513 30.684,16.856 C30.556,16.642 30.425,16.575 30.164,16.597 C29.683,16.639 29.194,16.631 28.712,16.599 C28.477,16.583 28.340,16.624 28.212,16.830 C27.753,17.568 27.274,18.293 26.783,19.054 C26.081,18.761 25.385,18.481 24.701,18.173 C24.629,18.141 24.581,17.939 24.604,17.833 C24.764,17.084 24.934,16.336 25.127,15.595 C25.192,15.349 25.151,15.211 24.954,15.041 C24.587,14.726 24.240,14.380 23.927,14.011 C23.760,13.815 23.615,13.760 23.374,13.817 C22.628,13.993 21.880,14.158 21.129,14.310 C21.022,14.332 20.820,14.286 20.789,14.215 C20.486,13.528 20.210,12.829 19.917,12.114 C20.662,11.653 21.373,11.202 22.097,10.771 C22.322,10.638 22.403,10.509 22.371,10.227 C22.320,9.772 22.307,9.301 22.371,8.850 C22.419,8.517 22.307,8.368 22.055,8.211 C21.360,7.781 20.677,7.329 19.951,6.861 C20.260,6.119 20.566,5.383 20.887,4.611 C21.715,4.804 22.535,4.981 23.346,5.192 C23.636,5.267 23.804,5.203 23.997,4.974 C24.292,4.624 24.627,4.302 24.979,4.009 C25.186,3.836 25.241,3.681 25.180,3.425 C25.002,2.679 24.853,1.927 24.682,1.180 C24.641,1.006 24.641,0.902 24.838,0.826 C25.515,0.563 26.185,0.281 26.888,-0.006 C27.344,0.733 27.801,1.454 28.238,2.188 C28.365,2.401 28.498,2.483 28.756,2.466 C29.213,2.434 29.676,2.428 30.132,2.466 C30.457,2.493 30.636,2.403 30.801,2.116 C31.209,1.408 31.658,0.726 32.104,0.012 C32.852,0.325 33.579,0.628 34.352,0.951 C34.198,1.648 34.088,2.355 33.877,3.031 C33.703,3.589 33.753,3.988 34.271,4.321 C34.512,4.476 34.729,4.708 34.880,4.952 C35.099,5.307 35.354,5.324 35.716,5.227 C36.480,5.024 37.254,4.860 38.067,4.670 C38.377,5.423 38.681,6.161 38.996,6.928 C38.272,7.386 37.570,7.849 36.846,8.277 ZM29.464,6.123 C27.592,6.116 26.062,7.636 26.034,9.531 C26.006,11.383 27.612,12.988 29.479,12.974 C31.353,12.961 32.878,11.420 32.881,9.537 C32.885,7.661 31.353,6.130 29.464,6.123 ZM22.913,18.319 C22.280,19.223 21.628,20.171 20.954,21.102 C20.778,21.345 20.785,21.517 20.916,21.786 C21.206,22.380 21.462,22.996 21.673,23.623 C21.767,23.903 21.901,24.002 22.170,24.043 C23.305,24.217 24.438,24.407 25.588,24.594 C25.588,25.661 25.588,26.706 25.588,27.791 C24.887,27.916 24.186,28.042 23.485,28.165 C23.007,28.249 22.524,28.311 22.051,28.419 C21.923,28.449 21.775,28.587 21.720,28.712 C21.422,29.388 21.167,30.082 20.861,30.754 C20.763,30.969 20.799,31.101 20.921,31.269 C21.540,32.116 22.151,32.969 22.763,33.820 C22.836,33.922 22.902,34.028 22.957,34.110 C22.198,34.867 21.458,35.607 20.691,36.373 C19.784,35.737 18.837,35.085 17.907,34.412 C17.668,34.240 17.498,34.226 17.223,34.360 C16.606,34.661 15.963,34.914 15.318,35.152 C15.094,35.234 14.992,35.339 14.954,35.569 C14.780,36.615 14.597,37.659 14.399,38.701 C14.378,38.811 14.239,38.982 14.152,38.984 C13.156,39.004 12.160,38.997 11.140,38.997 C10.954,37.875 10.762,36.783 10.597,35.686 C10.552,35.385 10.444,35.241 10.138,35.139 C9.511,34.930 8.896,34.672 8.302,34.380 C8.030,34.246 7.859,34.260 7.622,34.431 C6.700,35.095 5.763,35.738 4.858,36.370 C4.098,35.611 3.359,34.872 2.583,34.097 C2.888,33.669 3.219,33.205 3.550,32.741 C3.907,32.241 4.275,31.749 4.613,31.237 C4.683,31.130 4.691,30.930 4.643,30.806 C4.374,30.118 4.063,29.446 3.803,28.755 C3.718,28.528 3.614,28.434 3.382,28.396 C2.248,28.205 1.118,27.997 -0.014,27.796 C-0.014,26.721 -0.014,25.646 -0.014,24.571 C1.145,24.383 2.306,24.202 3.463,23.996 C3.585,23.974 3.725,23.822 3.780,23.697 C4.085,23.010 4.378,22.317 4.647,21.616 C4.697,21.484 4.674,21.268 4.595,21.152 C3.944,20.189 3.272,19.240 2.629,18.319 C3.393,17.554 4.139,16.807 4.905,16.040 C5.806,16.683 6.747,17.344 7.674,18.024 C7.891,18.183 8.046,18.174 8.285,18.062 C8.909,17.773 9.548,17.513 10.195,17.283 C10.448,17.192 10.557,17.079 10.597,16.813 C10.766,15.678 10.960,14.546 11.147,13.399 C12.218,13.399 13.263,13.399 14.344,13.399 C14.468,14.092 14.593,14.781 14.714,15.470 C14.798,15.949 14.858,16.432 14.970,16.903 C15.002,17.041 15.149,17.198 15.284,17.258 C15.957,17.560 16.652,17.817 17.322,18.126 C17.540,18.226 17.669,18.179 17.835,18.058 C18.777,17.375 19.723,16.698 20.644,16.036 C21.403,16.799 22.148,17.548 22.913,18.319 ZM12.755,21.732 C10.286,21.749 8.256,23.799 8.284,26.248 C8.312,28.724 10.355,30.739 12.809,30.708 C15.270,30.677 17.264,28.663 17.259,26.213 C17.254,23.749 15.210,21.716 12.755,21.732 Z"/>
</svg>