<svg  xmlns="http://www.w3.org/2000/svg" xmlns:xlink="http://www.w3.org/1999/xlink" width="48px" height="27px">
    <path d="M48.011,20.383 C48.008,20.918 48.068,21.477 47.659,21.944 C47.561,22.055 47.623,22.306 47.607,22.492 C47.567,22.967 47.335,23.260 46.892,23.272 C45.973,23.297 45.052,23.279 44.135,23.279 C43.870,20.439 41.271,18.905 39.183,19.037 C37.147,19.166 35.495,20.772 34.940,23.363 C33.826,23.363 32.705,23.363 31.542,23.363 C31.542,17.928 31.542,12.494 31.542,6.922 C32.218,7.037 32.867,7.092 33.484,7.263 C35.445,7.809 37.097,8.927 38.699,10.149 C40.562,11.571 42.477,12.924 44.340,14.346 C45.802,15.463 46.914,16.855 47.386,18.686 C47.410,18.775 47.436,18.904 47.500,18.937 C48.126,19.260 48.013,19.856 48.011,20.383 ZM39.983,12.969 C39.847,12.710 39.647,12.479 39.448,12.260 C38.225,10.920 36.822,9.796 35.246,8.913 C34.531,8.512 33.752,8.215 32.978,7.938 C32.428,7.741 32.263,7.897 32.262,8.470 C32.258,10.085 32.270,11.701 32.256,13.316 C32.252,13.745 32.416,13.902 32.838,13.896 C33.962,13.879 35.087,13.890 36.212,13.890 L36.212,13.889 C37.305,13.889 38.399,13.901 39.492,13.879 C39.715,13.874 40.052,13.797 40.125,13.648 C40.207,13.482 40.091,13.174 39.983,12.969 ZM30.354,23.071 C25.947,23.063 21.539,23.065 17.131,23.063 C17.071,23.063 17.011,23.040 16.925,23.023 C16.632,20.700 14.591,19.142 12.696,19.059 C10.390,18.958 8.502,20.396 7.958,22.644 C7.884,22.948 7.783,23.077 7.437,23.073 C5.671,23.053 3.905,23.067 2.139,23.066 C1.469,23.066 1.193,22.887 1.173,22.253 C1.131,20.908 1.160,19.561 1.160,18.180 C11.014,18.180 20.835,18.180 30.688,18.180 C30.703,18.306 30.729,18.426 30.730,18.547 C30.733,19.912 30.727,21.278 30.737,22.643 C30.739,22.929 30.680,23.072 30.354,23.071 ZM30.702,17.356 C29.915,17.356 29.166,17.356 28.418,17.356 C19.302,17.355 10.187,17.355 1.071,17.355 C0.209,17.355 -0.000,17.143 -0.000,16.270 C-0.001,11.199 -0.001,6.127 -0.000,1.056 C-0.000,0.208 0.211,-0.006 1.044,-0.006 C10.535,-0.006 20.026,-0.006 29.517,-0.006 C29.610,-0.005 29.704,-0.007 29.798,-0.005 C30.490,0.011 30.720,0.236 30.723,0.942 C30.730,2.449 30.727,3.956 30.728,5.464 C30.728,9.264 30.728,13.063 30.727,16.863 C30.727,17.016 30.712,17.169 30.702,17.356 ZM12.375,20.210 C14.254,20.203 15.765,21.723 15.762,23.620 C15.760,25.509 14.284,26.999 12.410,27.003 C10.533,27.007 9.018,25.517 9.007,23.656 C8.996,21.771 10.514,20.217 12.375,20.210 ZM12.393,25.914 C13.660,25.911 14.671,24.885 14.668,23.604 C14.665,22.332 13.638,21.310 12.370,21.318 C11.140,21.326 10.116,22.362 10.111,23.604 C10.106,24.874 11.136,25.917 12.393,25.914 ZM12.422,21.904 C13.348,21.919 14.137,22.709 14.134,23.619 C14.131,24.566 13.337,25.329 12.369,25.313 C11.404,25.297 10.673,24.562 10.679,23.612 C10.684,22.648 11.459,21.888 12.422,21.904 ZM39.564,20.211 C41.410,20.227 42.942,21.772 42.938,23.611 C42.934,25.493 41.405,27.014 39.524,27.007 C37.671,27.000 36.153,25.473 36.153,23.618 C36.154,21.749 37.710,20.194 39.564,20.211 ZM39.571,25.918 C40.806,25.895 41.834,24.856 41.840,23.624 C41.847,22.373 40.793,21.316 39.541,21.319 C38.285,21.322 37.245,22.372 37.250,23.631 C37.255,24.877 38.335,25.942 39.571,25.918 ZM39.574,21.905 C40.517,21.925 41.275,22.693 41.269,23.622 C41.263,24.581 40.488,25.328 39.512,25.314 C38.564,25.301 37.811,24.543 37.815,23.607 C37.820,22.657 38.619,21.885 39.574,21.905 Z"/>
</svg>