<svg xmlns="http://www.w3.org/2000/svg" xmlns:xlink="http://www.w3.org/1999/xlink" width="26px" height="39px">
    <path d="M6.748,24.307 C6.748,22.562 6.736,20.817 6.756,19.072 C6.761,18.646 6.637,18.428 6.212,18.265 C3.357,17.166 1.433,15.169 0.465,12.295 C-1.261,7.168 1.985,1.469 7.311,0.256 C12.865,-1.009 18.248,2.536 19.030,8.109 C19.687,12.788 17.012,16.685 12.975,18.253 C12.541,18.422 12.380,18.618 12.383,19.076 C12.400,22.637 12.379,26.197 12.400,29.757 C12.411,31.730 14.197,33.437 16.205,33.454 C18.416,33.473 20.245,31.881 20.294,29.835 C20.337,28.021 20.307,26.205 20.320,24.390 C20.330,23.051 21.011,22.025 22.154,21.590 C23.952,20.906 25.892,22.177 25.940,24.182 C25.989,26.237 26.066,28.300 25.883,30.355 C25.510,34.533 22.320,38.035 18.197,38.827 C12.797,39.865 7.591,36.187 6.851,30.794 C6.647,29.302 6.770,27.796 6.742,26.297 C6.730,25.634 6.740,24.970 6.740,24.307 C6.743,24.307 6.745,24.307 6.748,24.307 ZM13.534,9.356 C13.649,7.277 11.729,5.395 9.516,5.434 C7.259,5.474 5.548,7.248 5.589,9.509 C5.630,11.734 7.403,13.364 9.752,13.335 C11.866,13.309 13.571,11.516 13.534,9.356 Z"/>
</svg>