<svg  xmlns="http://www.w3.org/2000/svg" xmlns:xlink="http://www.w3.org/1999/xlink" width="51px" height="42px">
    <path d="M25.530,0.004 C33.400,0.004 41.270,0.004 49.141,0.006 C50.327,0.006 51.046,0.734 51.001,1.870 C50.973,2.586 50.485,3.256 49.765,3.390 C49.273,3.481 49.200,3.717 49.201,4.142 C49.210,10.428 49.207,16.714 49.207,22.999 C49.207,28.670 49.175,34.342 49.231,40.012 C49.244,41.354 48.089,42.411 46.632,41.834 C45.276,41.296 43.880,40.858 42.509,40.357 C42.158,40.229 41.846,40.215 41.491,40.345 C40.088,40.861 38.674,41.350 37.268,41.858 C36.748,42.046 36.242,42.046 35.723,41.859 C34.333,41.358 32.935,40.877 31.549,40.366 C31.181,40.231 30.854,40.216 30.481,40.354 C29.112,40.860 27.728,41.328 26.358,41.832 C25.784,42.042 25.237,42.044 24.663,41.833 C23.275,41.324 21.877,40.846 20.489,40.338 C20.153,40.215 19.854,40.226 19.521,40.347 C18.133,40.853 16.735,41.333 15.347,41.839 C14.791,42.042 14.258,42.045 13.702,41.842 C12.314,41.335 10.915,40.856 9.528,40.347 C9.175,40.218 8.861,40.226 8.510,40.355 C7.172,40.845 5.804,41.260 4.488,41.802 C2.969,42.428 1.775,41.423 1.781,39.912 C1.829,28.043 1.806,16.174 1.815,4.305 C1.816,3.798 1.766,3.488 1.154,3.351 C0.312,3.161 -0.116,2.307 0.027,1.401 C0.156,0.585 0.853,0.010 1.760,0.008 C5.053,0.000 8.345,0.002 11.638,0.002 C16.268,0.001 20.899,0.001 25.530,0.001 C25.530,0.002 25.530,0.003 25.530,0.004 ZM16.248,20.633 C16.248,25.883 16.246,31.134 16.252,36.384 C16.252,36.819 16.056,37.439 16.336,37.644 C16.666,37.886 17.156,37.412 17.596,37.335 C18.189,37.231 18.302,36.884 18.301,36.329 C18.285,25.828 18.290,15.327 18.290,4.827 C18.290,3.512 18.289,3.512 16.978,3.519 C16.251,3.523 16.249,3.523 16.249,4.250 C16.248,9.711 16.248,15.172 16.248,20.633 ZM45.755,20.695 C45.755,15.374 45.759,10.054 45.752,4.733 C45.750,3.350 45.943,3.532 44.560,3.521 C43.714,3.514 43.713,3.521 43.713,4.343 C43.713,14.756 43.714,25.168 43.713,35.581 C43.713,37.091 43.711,37.091 45.141,37.600 C45.750,37.816 45.753,37.816 45.754,37.183 C45.754,31.687 45.754,26.191 45.755,20.695 ZM5.260,20.625 C5.260,24.699 5.260,28.772 5.260,32.846 C5.260,34.321 5.266,35.796 5.257,37.271 C5.254,37.659 5.380,37.794 5.762,37.636 C6.038,37.521 6.317,37.397 6.607,37.338 C7.149,37.227 7.316,36.947 7.315,36.384 C7.296,25.866 7.301,15.348 7.301,4.830 C7.301,3.513 7.300,3.513 5.996,3.520 C5.264,3.525 5.261,3.525 5.261,4.243 C5.261,9.703 5.261,15.164 5.260,20.625 ZM23.783,20.685 C23.783,15.403 23.783,10.120 23.783,4.837 C23.783,3.517 23.782,3.517 22.433,3.520 C21.740,3.522 21.740,3.522 21.740,4.229 C21.739,14.707 21.739,25.185 21.739,35.663 C21.739,37.070 21.741,37.070 23.049,37.542 C23.098,37.560 23.147,37.581 23.196,37.600 C23.782,37.814 23.783,37.814 23.784,37.166 C23.784,31.672 23.784,26.179 23.783,20.685 ZM27.232,20.658 C27.232,26.133 27.232,31.609 27.231,37.085 C27.231,37.809 27.231,37.808 27.939,37.553 C28.137,37.481 28.333,37.386 28.538,37.350 C29.132,37.245 29.290,36.915 29.289,36.321 C29.270,25.826 29.275,15.331 29.276,4.836 C29.276,3.511 29.277,3.511 27.922,3.519 C27.233,3.523 27.231,3.523 27.231,4.231 C27.231,9.706 27.231,15.182 27.232,20.658 ZM34.766,20.686 C34.766,15.383 34.766,10.080 34.766,4.778 C34.766,3.515 34.765,3.515 33.512,3.520 C32.728,3.524 32.726,3.524 32.726,4.296 C32.726,14.761 32.726,25.226 32.726,35.692 C32.726,37.069 32.725,37.069 34.011,37.541 C34.761,37.817 34.766,37.815 34.766,37.016 C34.766,31.573 34.766,26.130 34.766,20.686 ZM12.795,20.683 C12.795,15.363 12.799,10.044 12.792,4.724 C12.790,3.341 12.990,3.538 11.594,3.521 C10.811,3.512 10.811,3.520 10.811,4.317 C10.811,14.745 10.811,25.174 10.811,35.603 C10.811,37.085 10.812,37.085 12.204,37.597 C12.794,37.814 12.795,37.814 12.795,37.169 C12.795,31.674 12.795,26.178 12.795,20.683 ZM38.220,20.646 C38.220,25.983 38.220,31.320 38.220,36.657 C38.219,37.796 38.219,37.799 39.270,37.430 C40.287,37.072 40.202,37.262 40.202,36.113 C40.204,25.649 40.204,15.186 40.202,4.722 C40.202,3.349 40.331,3.535 38.982,3.521 C38.220,3.513 38.219,3.520 38.219,4.266 C38.219,9.726 38.219,15.186 38.220,20.646 Z"/>
</svg>