<svg  xmlns="http://www.w3.org/2000/svg" xmlns:xlink="http://www.w3.org/1999/xlink" width="38px" height="38px">
    <path d="M37.483,14.265 C25.161,14.266 12.839,14.266 0.517,14.265 C0.345,14.265 0.172,14.249 0.000,14.240 C0.000,12.658 0.000,11.076 0.000,9.494 C0.172,9.485 0.345,9.469 0.517,9.469 C12.839,9.468 25.161,9.468 37.483,9.469 C37.655,9.469 37.828,9.485 38.000,9.494 C38.000,11.076 38.000,12.658 38.000,14.240 C37.828,14.249 37.655,14.265 37.483,14.265 ZM0.517,7.145 C0.345,7.145 0.172,7.129 0.000,7.120 C0.000,7.095 0.000,7.071 0.000,7.046 C0.361,6.691 0.725,6.339 1.082,5.980 C3.073,3.988 5.062,1.994 7.051,-0.000 C15.017,-0.000 22.983,-0.000 30.949,-0.000 C31.252,0.308 31.552,0.619 31.858,0.925 C33.905,2.966 35.953,5.006 38.000,7.046 C38.000,7.071 38.000,7.095 38.000,7.120 C37.828,7.129 37.655,7.145 37.483,7.145 C25.161,7.146 12.839,7.146 0.517,7.145 ZM2.898,16.588 C8.265,16.588 13.633,16.588 19.001,16.588 C24.368,16.588 29.736,16.588 35.103,16.588 C35.650,16.588 35.651,16.589 35.651,17.135 C35.651,23.908 35.651,30.681 35.651,37.454 C35.651,37.999 35.650,38.000 35.102,38.000 C24.367,38.000 13.632,38.000 2.897,38.000 C2.350,38.000 2.349,37.999 2.349,37.453 C2.349,30.680 2.349,23.907 2.349,17.134 C2.349,16.589 2.350,16.588 2.898,16.588 ZM11.895,30.384 C11.893,30.707 11.961,30.837 12.322,30.836 C16.771,30.824 21.221,30.824 25.670,30.835 C26.018,30.836 26.108,30.728 26.106,30.392 C26.092,28.329 26.090,26.267 26.107,24.204 C26.110,23.837 25.989,23.750 25.641,23.753 C23.441,23.767 21.241,23.760 19.041,23.760 C16.804,23.760 14.567,23.767 12.330,23.752 C11.982,23.750 11.892,23.860 11.894,24.196 C11.908,26.258 11.907,28.321 11.895,30.384 ZM14.625,26.076 C16.095,26.088 17.566,26.082 19.037,26.082 C20.471,26.082 21.905,26.090 23.339,26.075 C23.676,26.071 23.797,26.174 23.782,26.516 C23.758,27.071 23.768,27.628 23.778,28.183 C23.782,28.423 23.686,28.509 23.450,28.508 C20.483,28.504 17.517,28.504 14.550,28.508 C14.313,28.509 14.218,28.422 14.222,28.183 C14.232,27.615 14.238,27.046 14.219,26.479 C14.209,26.171 14.321,26.074 14.625,26.076 Z"/>
</svg>