<svg  xmlns="http://www.w3.org/2000/svg" xmlns:xlink="http://www.w3.org/1999/xlink" width="13px" height="8px">
    <path  d="M1.267,0.437 C1.505,0.437 1.744,0.443 1.982,0.435 C2.218,0.426 2.389,0.536 2.515,0.726 C2.687,0.986 2.855,1.248 3.017,1.513 C3.376,2.099 3.709,2.702 4.087,3.276 C4.226,3.486 4.368,3.695 4.554,3.865 C4.754,4.048 4.892,4.017 4.997,3.764 C5.120,3.461 5.146,3.137 5.172,2.816 C5.210,2.347 5.205,1.876 5.201,1.405 C5.198,1.055 5.056,0.910 4.715,0.903 C4.625,0.901 4.535,0.907 4.445,0.907 C4.411,0.907 4.366,0.923 4.348,0.882 C4.326,0.836 4.367,0.805 4.394,0.777 C4.768,0.389 5.212,0.132 5.737,0.033 C6.076,-0.031 6.419,0.013 6.761,0.004 C6.922,-0.001 7.084,0.003 7.246,0.003 C7.515,0.003 7.669,0.118 7.759,0.382 C7.854,0.663 7.846,0.955 7.847,1.245 C7.850,1.895 7.776,2.544 7.838,3.195 C7.856,3.388 7.882,3.581 7.963,3.759 C8.091,4.041 8.351,4.070 8.539,3.823 C8.623,3.713 8.680,3.587 8.731,3.459 C9.153,2.403 9.729,1.435 10.351,0.494 C10.462,0.326 10.631,0.295 10.800,0.287 C11.454,0.252 12.090,0.361 12.709,0.576 C12.747,0.589 12.784,0.607 12.820,0.626 C12.984,0.709 13.017,0.777 12.971,0.959 C12.891,1.275 12.727,1.553 12.565,1.830 C12.171,2.504 11.693,3.118 11.249,3.756 C11.157,3.887 11.071,4.023 10.994,4.164 C10.817,4.489 10.837,4.614 11.128,4.832 C11.460,5.081 11.758,5.367 12.037,5.675 C12.328,5.996 12.620,6.315 12.853,6.686 C13.110,7.096 12.979,7.500 12.781,7.708 C12.604,7.894 12.381,7.993 12.129,7.997 C11.629,8.004 11.130,7.998 10.631,7.999 C10.494,7.999 10.372,7.960 10.272,7.866 C10.132,7.735 9.996,7.601 9.862,7.464 C9.552,7.149 9.244,6.832 8.895,6.560 C8.824,6.504 8.749,6.454 8.674,6.402 C8.421,6.229 8.159,6.162 7.877,6.330 C7.578,6.510 7.392,6.768 7.381,7.133 C7.376,7.308 7.377,7.483 7.325,7.653 C7.249,7.904 7.126,7.995 6.873,8.000 C6.350,8.009 5.831,7.988 5.327,7.821 C4.679,7.607 4.134,7.221 3.637,6.758 C2.250,5.463 1.226,3.907 0.509,2.133 C0.361,1.767 0.211,1.401 0.066,1.033 C-0.068,0.694 0.035,0.499 0.391,0.469 C0.681,0.445 0.975,0.464 1.267,0.464 C1.267,0.455 1.267,0.446 1.267,0.437 Z"/>
</svg>